<?xml version="1.0" encoding="UTF-8" standalone="no"?><svg xmlns="http://www.w3.org/2000/svg" xmlns:xlink="http://www.w3.org/1999/xlink" contentScriptType="application/ecmascript" contentStyleType="text/css" height="912px" preserveAspectRatio="none" style="width:3544px;height:912px;" version="1.1" viewBox="0 0 3544 912" width="3544px" zoomAndPan="magnify"><defs><filter height="300%" id="f1jyr642b3jact" width="300%" x="-1" y="-1"><feGaussianBlur result="blurOut" stdDeviation="2.0"/><feColorMatrix in="blurOut" result="blurOut2" type="matrix" values="0 0 0 0 0 0 0 0 0 0 0 0 0 0 0 0 0 0 .4 0"/><feOffset dx="4.0" dy="4.0" in="blurOut2" result="blurOut3"/><feBlend in="SourceGraphic" in2="blurOut3" mode="normal"/></filter></defs><g><!--class MJRefreshAutoFooter--><rect fill="#FEFECE" filter="url(#f1jyr642b3jact)" height="48" id="MJRefreshAutoFooter" style="stroke: #A80036; stroke-width: 1.5;" width="152" x="2111.5" y="346"/><ellipse cx="2126.5" cy="362" fill="#ADD1B2" rx="11" ry="11" style="stroke: #A80036; stroke-width: 1.0;"/><path d="M2128.9731,368.1431 Q2128.3921,368.4419 2127.7529,368.5913 Q2127.1138,368.7407 2126.4082,368.7407 Q2123.9014,368.7407 2122.5815,367.0889 Q2121.2617,365.437 2121.2617,362.3159 Q2121.2617,359.1865 2122.5815,357.5347 Q2123.9014,355.8828 2126.4082,355.8828 Q2127.1138,355.8828 2127.7612,356.0322 Q2128.4087,356.1816 2128.9731,356.4805 L2128.9731,359.2031 Q2128.3423,358.6221 2127.7488,358.3523 Q2127.1553,358.0825 2126.5244,358.0825 Q2125.1797,358.0825 2124.4949,359.1492 Q2123.8101,360.2158 2123.8101,362.3159 Q2123.8101,364.4077 2124.4949,365.4744 Q2125.1797,366.541 2126.5244,366.541 Q2127.1553,366.541 2127.7488,366.2712 Q2128.3423,366.0015 2128.9731,365.4204 Z "/><text fill="#000000" font-family="sans-serif" font-size="12" lengthAdjust="spacingAndGlyphs" textLength="120" x="2140.5" y="366.5352">MJRefreshAutoFooter</text><line style="stroke: #A80036; stroke-width: 1.5;" x1="2112.5" x2="2262.5" y1="378" y2="378"/><line style="stroke: #A80036; stroke-width: 1.5;" x1="2112.5" x2="2262.5" y1="386" y2="386"/><!--class MJRefreshFooter--><rect fill="#FEFECE" filter="url(#f1jyr642b3jact)" height="48" id="MJRefreshFooter" style="stroke: #A80036; stroke-width: 1.5;" width="126" x="1831.5" y="177"/><ellipse cx="1846.5" cy="193" fill="#ADD1B2" rx="11" ry="11" style="stroke: #A80036; stroke-width: 1.0;"/><path d="M1848.9731,199.1431 Q1848.3921,199.4419 1847.7529,199.5913 Q1847.1138,199.7407 1846.4082,199.7407 Q1843.9014,199.7407 1842.5815,198.0889 Q1841.2617,196.437 1841.2617,193.3159 Q1841.2617,190.1865 1842.5815,188.5347 Q1843.9014,186.8828 1846.4082,186.8828 Q1847.1138,186.8828 1847.7612,187.0322 Q1848.4087,187.1816 1848.9731,187.4805 L1848.9731,190.2031 Q1848.3423,189.6221 1847.7488,189.3523 Q1847.1553,189.0825 1846.5244,189.0825 Q1845.1797,189.0825 1844.4949,190.1492 Q1843.8101,191.2158 1843.8101,193.3159 Q1843.8101,195.4077 1844.4949,196.4744 Q1845.1797,197.541 1846.5244,197.541 Q1847.1553,197.541 1847.7488,197.2712 Q1848.3423,197.0015 1848.9731,196.4204 Z "/><text fill="#000000" font-family="sans-serif" font-size="12" lengthAdjust="spacingAndGlyphs" textLength="94" x="1860.5" y="197.5352">MJRefreshFooter</text><line style="stroke: #A80036; stroke-width: 1.5;" x1="1832.5" x2="1956.5" y1="209" y2="209"/><line style="stroke: #A80036; stroke-width: 1.5;" x1="1832.5" x2="1956.5" y1="217" y2="217"/><!--class MJRefreshBackFooter--><rect fill="#FEFECE" filter="url(#f1jyr642b3jact)" height="48" id="MJRefreshBackFooter" style="stroke: #A80036; stroke-width: 1.5;" width="153" x="1818" y="346"/><ellipse cx="1833" cy="362" fill="#ADD1B2" rx="11" ry="11" style="stroke: #A80036; stroke-width: 1.0;"/><path d="M1835.4731,368.1431 Q1834.8921,368.4419 1834.2529,368.5913 Q1833.6138,368.7407 1832.9082,368.7407 Q1830.4014,368.7407 1829.0815,367.0889 Q1827.7617,365.437 1827.7617,362.3159 Q1827.7617,359.1865 1829.0815,357.5347 Q1830.4014,355.8828 1832.9082,355.8828 Q1833.6138,355.8828 1834.2612,356.0322 Q1834.9087,356.1816 1835.4731,356.4805 L1835.4731,359.2031 Q1834.8423,358.6221 1834.2488,358.3523 Q1833.6553,358.0825 1833.0244,358.0825 Q1831.6797,358.0825 1830.9949,359.1492 Q1830.3101,360.2158 1830.3101,362.3159 Q1830.3101,364.4077 1830.9949,365.4744 Q1831.6797,366.541 1833.0244,366.541 Q1833.6553,366.541 1834.2488,366.2712 Q1834.8423,366.0015 1835.4731,365.4204 Z "/><text fill="#000000" font-family="sans-serif" font-size="12" lengthAdjust="spacingAndGlyphs" textLength="121" x="1847" y="366.5352">MJRefreshBackFooter</text><line style="stroke: #A80036; stroke-width: 1.5;" x1="1819" x2="1970" y1="378" y2="378"/><line style="stroke: #A80036; stroke-width: 1.5;" x1="1819" x2="1970" y1="386" y2="386"/><!--class MJRefreshComponent--><rect fill="#FEFECE" filter="url(#f1jyr642b3jact)" height="48" id="MJRefreshComponent" style="stroke: #A80036; stroke-width: 1.5;" width="156" x="1030.5" y="8"/><ellipse cx="1045.5" cy="24" fill="#ADD1B2" rx="11" ry="11" style="stroke: #A80036; stroke-width: 1.0;"/><path d="M1047.9731,30.1431 Q1047.3921,30.4419 1046.7529,30.5913 Q1046.1138,30.7407 1045.4082,30.7407 Q1042.9014,30.7407 1041.5815,29.0889 Q1040.2617,27.437 1040.2617,24.3159 Q1040.2617,21.1865 1041.5815,19.5347 Q1042.9014,17.8828 1045.4082,17.8828 Q1046.1138,17.8828 1046.7612,18.0322 Q1047.4087,18.1816 1047.9731,18.4805 L1047.9731,21.2031 Q1047.3423,20.6221 1046.7488,20.3523 Q1046.1553,20.0825 1045.5244,20.0825 Q1044.1797,20.0825 1043.4949,21.1492 Q1042.8101,22.2158 1042.8101,24.3159 Q1042.8101,26.4077 1043.4949,27.4744 Q1044.1797,28.541 1045.5244,28.541 Q1046.1553,28.541 1046.7488,28.2712 Q1047.3423,28.0015 1047.9731,27.4204 Z "/><text fill="#000000" font-family="sans-serif" font-size="12" lengthAdjust="spacingAndGlyphs" textLength="124" x="1059.5" y="28.5352">MJRefreshComponent</text><line style="stroke: #A80036; stroke-width: 1.5;" x1="1031.5" x2="1185.5" y1="40" y2="40"/><line style="stroke: #A80036; stroke-width: 1.5;" x1="1031.5" x2="1185.5" y1="48" y2="48"/><!--class MJRefreshHeader--><rect fill="#FEFECE" filter="url(#f1jyr642b3jact)" height="48" id="MJRefreshHeader" style="stroke: #A80036; stroke-width: 1.5;" width="133" x="816" y="177"/><ellipse cx="831" cy="193" fill="#ADD1B2" rx="11" ry="11" style="stroke: #A80036; stroke-width: 1.0;"/><path d="M833.4731,199.1431 Q832.8921,199.4419 832.2529,199.5913 Q831.6138,199.7407 830.9082,199.7407 Q828.4014,199.7407 827.0815,198.0889 Q825.7617,196.437 825.7617,193.3159 Q825.7617,190.1865 827.0815,188.5347 Q828.4014,186.8828 830.9082,186.8828 Q831.6138,186.8828 832.2612,187.0322 Q832.9087,187.1816 833.4731,187.4805 L833.4731,190.2031 Q832.8423,189.6221 832.2488,189.3523 Q831.6553,189.0825 831.0244,189.0825 Q829.6797,189.0825 828.9949,190.1492 Q828.3101,191.2158 828.3101,193.3159 Q828.3101,195.4077 828.9949,196.4744 Q829.6797,197.541 831.0244,197.541 Q831.6553,197.541 832.2488,197.2712 Q832.8423,197.0015 833.4731,196.4204 Z "/><text fill="#000000" font-family="sans-serif" font-size="12" lengthAdjust="spacingAndGlyphs" textLength="101" x="845" y="197.5352">MJRefreshHeader</text><line style="stroke: #A80036; stroke-width: 1.5;" x1="817" x2="948" y1="209" y2="209"/><line style="stroke: #A80036; stroke-width: 1.5;" x1="817" x2="948" y1="217" y2="217"/><!--class MJRefreshAutoGifFooter--><rect fill="#FEFECE" filter="url(#f1jyr642b3jact)" height="48" id="MJRefreshAutoGifFooter" style="stroke: #A80036; stroke-width: 1.5;" width="168" x="2103.5" y="684"/><ellipse cx="2118.5" cy="700" fill="#ADD1B2" rx="11" ry="11" style="stroke: #A80036; stroke-width: 1.0;"/><path d="M2120.9731,706.1431 Q2120.3921,706.4419 2119.7529,706.5913 Q2119.1138,706.7407 2118.4082,706.7407 Q2115.9014,706.7407 2114.5815,705.0889 Q2113.2617,703.437 2113.2617,700.3159 Q2113.2617,697.1865 2114.5815,695.5347 Q2115.9014,693.8828 2118.4082,693.8828 Q2119.1138,693.8828 2119.7612,694.0322 Q2120.4087,694.1816 2120.9731,694.4805 L2120.9731,697.2031 Q2120.3423,696.6221 2119.7488,696.3523 Q2119.1553,696.0825 2118.5244,696.0825 Q2117.1797,696.0825 2116.4949,697.1492 Q2115.8101,698.2158 2115.8101,700.3159 Q2115.8101,702.4077 2116.4949,703.4744 Q2117.1797,704.541 2118.5244,704.541 Q2119.1553,704.541 2119.7488,704.2712 Q2120.3423,704.0015 2120.9731,703.4204 Z "/><text fill="#000000" font-family="sans-serif" font-size="12" lengthAdjust="spacingAndGlyphs" textLength="136" x="2132.5" y="704.5352">MJRefreshAutoGifFooter</text><line style="stroke: #A80036; stroke-width: 1.5;" x1="2104.5" x2="2270.5" y1="716" y2="716"/><line style="stroke: #A80036; stroke-width: 1.5;" x1="2104.5" x2="2270.5" y1="724" y2="724"/><!--class MJRefreshAutoStateFooter--><rect fill="#FEFECE" filter="url(#f1jyr642b3jact)" height="48" id="MJRefreshAutoStateFooter" style="stroke: #A80036; stroke-width: 1.5;" width="180" x="2097.5" y="515"/><ellipse cx="2112.5" cy="531" fill="#ADD1B2" rx="11" ry="11" style="stroke: #A80036; stroke-width: 1.0;"/><path d="M2114.9731,537.1431 Q2114.3921,537.4419 2113.7529,537.5913 Q2113.1138,537.7407 2112.4082,537.7407 Q2109.9014,537.7407 2108.5815,536.0889 Q2107.2617,534.437 2107.2617,531.3159 Q2107.2617,528.1865 2108.5815,526.5347 Q2109.9014,524.8828 2112.4082,524.8828 Q2113.1138,524.8828 2113.7612,525.0322 Q2114.4087,525.1816 2114.9731,525.4805 L2114.9731,528.2031 Q2114.3423,527.6221 2113.7488,527.3523 Q2113.1553,527.0825 2112.5244,527.0825 Q2111.1797,527.0825 2110.4949,528.1492 Q2109.8101,529.2158 2109.8101,531.3159 Q2109.8101,533.4077 2110.4949,534.4744 Q2111.1797,535.541 2112.5244,535.541 Q2113.1553,535.541 2113.7488,535.2712 Q2114.3423,535.0015 2114.9731,534.4204 Z "/><text fill="#000000" font-family="sans-serif" font-size="12" lengthAdjust="spacingAndGlyphs" textLength="148" x="2126.5" y="535.5352">MJRefreshAutoStateFooter</text><line style="stroke: #A80036; stroke-width: 1.5;" x1="2098.5" x2="2276.5" y1="547" y2="547"/><line style="stroke: #A80036; stroke-width: 1.5;" x1="2098.5" x2="2276.5" y1="555" y2="555"/><!--class MJRefreshAutoNormalFooter--><rect fill="#FEFECE" filter="url(#f1jyr642b3jact)" height="48" id="MJRefreshAutoNormalFooter" style="stroke: #A80036; stroke-width: 1.5;" width="194" x="2306.5" y="684"/><ellipse cx="2321.5" cy="700" fill="#ADD1B2" rx="11" ry="11" style="stroke: #A80036; stroke-width: 1.0;"/><path d="M2323.9731,706.1431 Q2323.3921,706.4419 2322.7529,706.5913 Q2322.1138,706.7407 2321.4082,706.7407 Q2318.9014,706.7407 2317.5815,705.0889 Q2316.2617,703.437 2316.2617,700.3159 Q2316.2617,697.1865 2317.5815,695.5347 Q2318.9014,693.8828 2321.4082,693.8828 Q2322.1138,693.8828 2322.7612,694.0322 Q2323.4087,694.1816 2323.9731,694.4805 L2323.9731,697.2031 Q2323.3423,696.6221 2322.7488,696.3523 Q2322.1553,696.0825 2321.5244,696.0825 Q2320.1797,696.0825 2319.4949,697.1492 Q2318.8101,698.2158 2318.8101,700.3159 Q2318.8101,702.4077 2319.4949,703.4744 Q2320.1797,704.541 2321.5244,704.541 Q2322.1553,704.541 2322.7488,704.2712 Q2323.3423,704.0015 2323.9731,703.4204 Z "/><text fill="#000000" font-family="sans-serif" font-size="12" lengthAdjust="spacingAndGlyphs" textLength="162" x="2335.5" y="704.5352">MJRefreshAutoNormalFooter</text><line style="stroke: #A80036; stroke-width: 1.5;" x1="2307.5" x2="2499.5" y1="716" y2="716"/><line style="stroke: #A80036; stroke-width: 1.5;" x1="2307.5" x2="2499.5" y1="724" y2="724"/><!--class MJRefreshBackGifFooter--><rect fill="#FEFECE" filter="url(#f1jyr642b3jact)" height="48" id="MJRefreshBackGifFooter" style="stroke: #A80036; stroke-width: 1.5;" width="169" x="1669" y="684"/><ellipse cx="1684" cy="700" fill="#ADD1B2" rx="11" ry="11" style="stroke: #A80036; stroke-width: 1.0;"/><path d="M1686.4731,706.1431 Q1685.8921,706.4419 1685.2529,706.5913 Q1684.6138,706.7407 1683.9082,706.7407 Q1681.4014,706.7407 1680.0815,705.0889 Q1678.7617,703.437 1678.7617,700.3159 Q1678.7617,697.1865 1680.0815,695.5347 Q1681.4014,693.8828 1683.9082,693.8828 Q1684.6138,693.8828 1685.2612,694.0322 Q1685.9087,694.1816 1686.4731,694.4805 L1686.4731,697.2031 Q1685.8423,696.6221 1685.2488,696.3523 Q1684.6553,696.0825 1684.0244,696.0825 Q1682.6797,696.0825 1681.9949,697.1492 Q1681.3101,698.2158 1681.3101,700.3159 Q1681.3101,702.4077 1681.9949,703.4744 Q1682.6797,704.541 1684.0244,704.541 Q1684.6553,704.541 1685.2488,704.2712 Q1685.8423,704.0015 1686.4731,703.4204 Z "/><text fill="#000000" font-family="sans-serif" font-size="12" lengthAdjust="spacingAndGlyphs" textLength="137" x="1698" y="704.5352">MJRefreshBackGifFooter</text><line style="stroke: #A80036; stroke-width: 1.5;" x1="1670" x2="1837" y1="716" y2="716"/><line style="stroke: #A80036; stroke-width: 1.5;" x1="1670" x2="1837" y1="724" y2="724"/><!--class MJRefreshBackStateFooter--><rect fill="#FEFECE" filter="url(#f1jyr642b3jact)" height="48" id="MJRefreshBackStateFooter" style="stroke: #A80036; stroke-width: 1.5;" width="181" x="1704" y="515"/><ellipse cx="1719" cy="531" fill="#ADD1B2" rx="11" ry="11" style="stroke: #A80036; stroke-width: 1.0;"/><path d="M1721.4731,537.1431 Q1720.8921,537.4419 1720.2529,537.5913 Q1719.6138,537.7407 1718.9082,537.7407 Q1716.4014,537.7407 1715.0815,536.0889 Q1713.7617,534.437 1713.7617,531.3159 Q1713.7617,528.1865 1715.0815,526.5347 Q1716.4014,524.8828 1718.9082,524.8828 Q1719.6138,524.8828 1720.2612,525.0322 Q1720.9087,525.1816 1721.4731,525.4805 L1721.4731,528.2031 Q1720.8423,527.6221 1720.2488,527.3523 Q1719.6553,527.0825 1719.0244,527.0825 Q1717.6797,527.0825 1716.9949,528.1492 Q1716.3101,529.2158 1716.3101,531.3159 Q1716.3101,533.4077 1716.9949,534.4744 Q1717.6797,535.541 1719.0244,535.541 Q1719.6553,535.541 1720.2488,535.2712 Q1720.8423,535.0015 1721.4731,534.4204 Z "/><text fill="#000000" font-family="sans-serif" font-size="12" lengthAdjust="spacingAndGlyphs" textLength="149" x="1733" y="535.5352">MJRefreshBackStateFooter</text><line style="stroke: #A80036; stroke-width: 1.5;" x1="1705" x2="1884" y1="547" y2="547"/><line style="stroke: #A80036; stroke-width: 1.5;" x1="1705" x2="1884" y1="555" y2="555"/><!--class MJRefreshBackNormalFooter--><rect fill="#FEFECE" filter="url(#f1jyr642b3jact)" height="48" id="MJRefreshBackNormalFooter" style="stroke: #A80036; stroke-width: 1.5;" width="195" x="1873" y="684"/><ellipse cx="1888" cy="700" fill="#ADD1B2" rx="11" ry="11" style="stroke: #A80036; stroke-width: 1.0;"/><path d="M1890.4731,706.1431 Q1889.8921,706.4419 1889.2529,706.5913 Q1888.6138,706.7407 1887.9082,706.7407 Q1885.4014,706.7407 1884.0815,705.0889 Q1882.7617,703.437 1882.7617,700.3159 Q1882.7617,697.1865 1884.0815,695.5347 Q1885.4014,693.8828 1887.9082,693.8828 Q1888.6138,693.8828 1889.2612,694.0322 Q1889.9087,694.1816 1890.4731,694.4805 L1890.4731,697.2031 Q1889.8423,696.6221 1889.2488,696.3523 Q1888.6553,696.0825 1888.0244,696.0825 Q1886.6797,696.0825 1885.9949,697.1492 Q1885.3101,698.2158 1885.3101,700.3159 Q1885.3101,702.4077 1885.9949,703.4744 Q1886.6797,704.541 1888.0244,704.541 Q1888.6553,704.541 1889.2488,704.2712 Q1889.8423,704.0015 1890.4731,703.4204 Z "/><text fill="#000000" font-family="sans-serif" font-size="12" lengthAdjust="spacingAndGlyphs" textLength="163" x="1902" y="704.5352">MJRefreshBackNormalFooter</text><line style="stroke: #A80036; stroke-width: 1.5;" x1="1874" x2="2067" y1="716" y2="716"/><line style="stroke: #A80036; stroke-width: 1.5;" x1="1874" x2="2067" y1="724" y2="724"/><!--class MJRefreshGifHeader--><rect fill="#FEFECE" filter="url(#f1jyr642b3jact)" height="48" id="MJRefreshGifHeader" style="stroke: #A80036; stroke-width: 1.5;" width="149" x="463" y="515"/><ellipse cx="478" cy="531" fill="#ADD1B2" rx="11" ry="11" style="stroke: #A80036; stroke-width: 1.0;"/><path d="M480.4731,537.1431 Q479.8921,537.4419 479.2529,537.5913 Q478.6138,537.7407 477.9082,537.7407 Q475.4014,537.7407 474.0815,536.0889 Q472.7617,534.437 472.7617,531.3159 Q472.7617,528.1865 474.0815,526.5347 Q475.4014,524.8828 477.9082,524.8828 Q478.6138,524.8828 479.2612,525.0322 Q479.9087,525.1816 480.4731,525.4805 L480.4731,528.2031 Q479.8423,527.6221 479.2488,527.3523 Q478.6553,527.0825 478.0244,527.0825 Q476.6797,527.0825 475.9949,528.1492 Q475.3101,529.2158 475.3101,531.3159 Q475.3101,533.4077 475.9949,534.4744 Q476.6797,535.541 478.0244,535.541 Q478.6553,535.541 479.2488,535.2712 Q479.8423,535.0015 480.4731,534.4204 Z "/><text fill="#000000" font-family="sans-serif" font-size="12" lengthAdjust="spacingAndGlyphs" textLength="117" x="492" y="535.5352">MJRefreshGifHeader</text><line style="stroke: #A80036; stroke-width: 1.5;" x1="464" x2="611" y1="547" y2="547"/><line style="stroke: #A80036; stroke-width: 1.5;" x1="464" x2="611" y1="555" y2="555"/><!--class MJRefreshStateHeader--><rect fill="#FEFECE" filter="url(#f1jyr642b3jact)" height="48" id="MJRefreshStateHeader" style="stroke: #A80036; stroke-width: 1.5;" width="161" x="632" y="346"/><ellipse cx="647" cy="362" fill="#ADD1B2" rx="11" ry="11" style="stroke: #A80036; stroke-width: 1.0;"/><path d="M649.4731,368.1431 Q648.8921,368.4419 648.2529,368.5913 Q647.6138,368.7407 646.9082,368.7407 Q644.4014,368.7407 643.0815,367.0889 Q641.7617,365.437 641.7617,362.3159 Q641.7617,359.1865 643.0815,357.5347 Q644.4014,355.8828 646.9082,355.8828 Q647.6138,355.8828 648.2612,356.0322 Q648.9087,356.1816 649.4731,356.4805 L649.4731,359.2031 Q648.8423,358.6221 648.2488,358.3523 Q647.6553,358.0825 647.0244,358.0825 Q645.6797,358.0825 644.9949,359.1492 Q644.3101,360.2158 644.3101,362.3159 Q644.3101,364.4077 644.9949,365.4744 Q645.6797,366.541 647.0244,366.541 Q647.6553,366.541 648.2488,366.2712 Q648.8423,366.0015 649.4731,365.4204 Z "/><text fill="#000000" font-family="sans-serif" font-size="12" lengthAdjust="spacingAndGlyphs" textLength="129" x="661" y="366.5352">MJRefreshStateHeader</text><line style="stroke: #A80036; stroke-width: 1.5;" x1="633" x2="792" y1="378" y2="378"/><line style="stroke: #A80036; stroke-width: 1.5;" x1="633" x2="792" y1="386" y2="386"/><!--class MJRefreshNormalHeader--><rect fill="#FEFECE" filter="url(#f1jyr642b3jact)" height="48" id="MJRefreshNormalHeader" style="stroke: #A80036; stroke-width: 1.5;" width="175" x="647" y="515"/><ellipse cx="662" cy="531" fill="#ADD1B2" rx="11" ry="11" style="stroke: #A80036; stroke-width: 1.0;"/><path d="M664.4731,537.1431 Q663.8921,537.4419 663.2529,537.5913 Q662.6138,537.7407 661.9082,537.7407 Q659.4014,537.7407 658.0815,536.0889 Q656.7617,534.437 656.7617,531.3159 Q656.7617,528.1865 658.0815,526.5347 Q659.4014,524.8828 661.9082,524.8828 Q662.6138,524.8828 663.2612,525.0322 Q663.9087,525.1816 664.4731,525.4805 L664.4731,528.2031 Q663.8423,527.6221 663.2488,527.3523 Q662.6553,527.0825 662.0244,527.0825 Q660.6797,527.0825 659.9949,528.1492 Q659.3101,529.2158 659.3101,531.3159 Q659.3101,533.4077 659.9949,534.4744 Q660.6797,535.541 662.0244,535.541 Q662.6553,535.541 663.2488,535.2712 Q663.8423,535.0015 664.4731,534.4204 Z "/><text fill="#000000" font-family="sans-serif" font-size="12" lengthAdjust="spacingAndGlyphs" textLength="143" x="676" y="535.5352">MJRefreshNormalHeader</text><line style="stroke: #A80036; stroke-width: 1.5;" x1="648" x2="821" y1="547" y2="547"/><line style="stroke: #A80036; stroke-width: 1.5;" x1="648" x2="821" y1="555" y2="555"/><!--class CAIHRefreshAutoFooter--><rect fill="#FEFECE" filter="url(#f1jyr642b3jact)" height="48" id="CAIHRefreshAutoFooter" style="stroke: #A80036; stroke-width: 1.5;" width="166" x="1333.5" y="515"/><ellipse cx="1348.5" cy="531" fill="#ADD1B2" rx="11" ry="11" style="stroke: #A80036; stroke-width: 1.0;"/><path d="M1350.9731,537.1431 Q1350.3921,537.4419 1349.7529,537.5913 Q1349.1138,537.7407 1348.4082,537.7407 Q1345.9014,537.7407 1344.5815,536.0889 Q1343.2617,534.437 1343.2617,531.3159 Q1343.2617,528.1865 1344.5815,526.5347 Q1345.9014,524.8828 1348.4082,524.8828 Q1349.1138,524.8828 1349.7612,525.0322 Q1350.4087,525.1816 1350.9731,525.4805 L1350.9731,528.2031 Q1350.3423,527.6221 1349.7488,527.3523 Q1349.1553,527.0825 1348.5244,527.0825 Q1347.1797,527.0825 1346.4949,528.1492 Q1345.8101,529.2158 1345.8101,531.3159 Q1345.8101,533.4077 1346.4949,534.4744 Q1347.1797,535.541 1348.5244,535.541 Q1349.1553,535.541 1349.7488,535.2712 Q1350.3423,535.0015 1350.9731,534.4204 Z "/><text fill="#000000" font-family="sans-serif" font-size="12" lengthAdjust="spacingAndGlyphs" textLength="134" x="1362.5" y="535.5352">CAIHRefreshAutoFooter</text><line style="stroke: #A80036; stroke-width: 1.5;" x1="1334.5" x2="1498.5" y1="547" y2="547"/><line style="stroke: #A80036; stroke-width: 1.5;" x1="1334.5" x2="1498.5" y1="555" y2="555"/><!--class CAIHRefreshFooter--><rect fill="#FEFECE" filter="url(#f1jyr642b3jact)" height="48" id="CAIHRefreshFooter" style="stroke: #A80036; stroke-width: 1.5;" width="140" x="1154.5" y="346"/><ellipse cx="1169.5" cy="362" fill="#ADD1B2" rx="11" ry="11" style="stroke: #A80036; stroke-width: 1.0;"/><path d="M1171.9731,368.1431 Q1171.3921,368.4419 1170.7529,368.5913 Q1170.1138,368.7407 1169.4082,368.7407 Q1166.9014,368.7407 1165.5815,367.0889 Q1164.2617,365.437 1164.2617,362.3159 Q1164.2617,359.1865 1165.5815,357.5347 Q1166.9014,355.8828 1169.4082,355.8828 Q1170.1138,355.8828 1170.7612,356.0322 Q1171.4087,356.1816 1171.9731,356.4805 L1171.9731,359.2031 Q1171.3423,358.6221 1170.7488,358.3523 Q1170.1553,358.0825 1169.5244,358.0825 Q1168.1797,358.0825 1167.4949,359.1492 Q1166.8101,360.2158 1166.8101,362.3159 Q1166.8101,364.4077 1167.4949,365.4744 Q1168.1797,366.541 1169.5244,366.541 Q1170.1553,366.541 1170.7488,366.2712 Q1171.3423,366.0015 1171.9731,365.4204 Z "/><text fill="#000000" font-family="sans-serif" font-size="12" lengthAdjust="spacingAndGlyphs" textLength="108" x="1183.5" y="366.5352">CAIHRefreshFooter</text><line style="stroke: #A80036; stroke-width: 1.5;" x1="1155.5" x2="1293.5" y1="378" y2="378"/><line style="stroke: #A80036; stroke-width: 1.5;" x1="1155.5" x2="1293.5" y1="386" y2="386"/><!--class CAIHRefreshBackFooter--><rect fill="#FEFECE" filter="url(#f1jyr642b3jact)" height="48" id="CAIHRefreshBackFooter" style="stroke: #A80036; stroke-width: 1.5;" width="167" x="1117" y="515"/><ellipse cx="1132" cy="531" fill="#ADD1B2" rx="11" ry="11" style="stroke: #A80036; stroke-width: 1.0;"/><path d="M1134.4731,537.1431 Q1133.8921,537.4419 1133.2529,537.5913 Q1132.6138,537.7407 1131.9082,537.7407 Q1129.4014,537.7407 1128.0815,536.0889 Q1126.7617,534.437 1126.7617,531.3159 Q1126.7617,528.1865 1128.0815,526.5347 Q1129.4014,524.8828 1131.9082,524.8828 Q1132.6138,524.8828 1133.2612,525.0322 Q1133.9087,525.1816 1134.4731,525.4805 L1134.4731,528.2031 Q1133.8423,527.6221 1133.2488,527.3523 Q1132.6553,527.0825 1132.0244,527.0825 Q1130.6797,527.0825 1129.9949,528.1492 Q1129.3101,529.2158 1129.3101,531.3159 Q1129.3101,533.4077 1129.9949,534.4744 Q1130.6797,535.541 1132.0244,535.541 Q1132.6553,535.541 1133.2488,535.2712 Q1133.8423,535.0015 1134.4731,534.4204 Z "/><text fill="#000000" font-family="sans-serif" font-size="12" lengthAdjust="spacingAndGlyphs" textLength="135" x="1146" y="535.5352">CAIHRefreshBackFooter</text><line style="stroke: #A80036; stroke-width: 1.5;" x1="1118" x2="1283" y1="547" y2="547"/><line style="stroke: #A80036; stroke-width: 1.5;" x1="1118" x2="1283" y1="555" y2="555"/><!--class CAIHRefreshComponent--><rect fill="#FEFECE" filter="url(#f1jyr642b3jact)" height="48" id="CAIHRefreshComponent" style="stroke: #A80036; stroke-width: 1.5;" width="170" x="1023.5" y="177"/><ellipse cx="1038.5" cy="193" fill="#ADD1B2" rx="11" ry="11" style="stroke: #A80036; stroke-width: 1.0;"/><path d="M1040.9731,199.1431 Q1040.3921,199.4419 1039.7529,199.5913 Q1039.1138,199.7407 1038.4082,199.7407 Q1035.9014,199.7407 1034.5815,198.0889 Q1033.2617,196.437 1033.2617,193.3159 Q1033.2617,190.1865 1034.5815,188.5347 Q1035.9014,186.8828 1038.4082,186.8828 Q1039.1138,186.8828 1039.7612,187.0322 Q1040.4087,187.1816 1040.9731,187.4805 L1040.9731,190.2031 Q1040.3423,189.6221 1039.7488,189.3523 Q1039.1553,189.0825 1038.5244,189.0825 Q1037.1797,189.0825 1036.4949,190.1492 Q1035.8101,191.2158 1035.8101,193.3159 Q1035.8101,195.4077 1036.4949,196.4744 Q1037.1797,197.541 1038.5244,197.541 Q1039.1553,197.541 1039.7488,197.2712 Q1040.3423,197.0015 1040.9731,196.4204 Z "/><text fill="#000000" font-family="sans-serif" font-size="12" lengthAdjust="spacingAndGlyphs" textLength="138" x="1052.5" y="197.5352">CAIHRefreshComponent</text><line style="stroke: #A80036; stroke-width: 1.5;" x1="1024.5" x2="1192.5" y1="209" y2="209"/><line style="stroke: #A80036; stroke-width: 1.5;" x1="1024.5" x2="1192.5" y1="217" y2="217"/><!--class CAIHRefreshHeader--><rect fill="#FEFECE" filter="url(#f1jyr642b3jact)" height="48" id="CAIHRefreshHeader" style="stroke: #A80036; stroke-width: 1.5;" width="147" x="972" y="346"/><ellipse cx="987" cy="362" fill="#ADD1B2" rx="11" ry="11" style="stroke: #A80036; stroke-width: 1.0;"/><path d="M989.4731,368.1431 Q988.8921,368.4419 988.2529,368.5913 Q987.6138,368.7407 986.9082,368.7407 Q984.4014,368.7407 983.0815,367.0889 Q981.7617,365.437 981.7617,362.3159 Q981.7617,359.1865 983.0815,357.5347 Q984.4014,355.8828 986.9082,355.8828 Q987.6138,355.8828 988.2612,356.0322 Q988.9087,356.1816 989.4731,356.4805 L989.4731,359.2031 Q988.8423,358.6221 988.2488,358.3523 Q987.6553,358.0825 987.0244,358.0825 Q985.6797,358.0825 984.9949,359.1492 Q984.3101,360.2158 984.3101,362.3159 Q984.3101,364.4077 984.9949,365.4744 Q985.6797,366.541 987.0244,366.541 Q987.6553,366.541 988.2488,366.2712 Q988.8423,366.0015 989.4731,365.4204 Z "/><text fill="#000000" font-family="sans-serif" font-size="12" lengthAdjust="spacingAndGlyphs" textLength="115" x="1001" y="366.5352">CAIHRefreshHeader</text><line style="stroke: #A80036; stroke-width: 1.5;" x1="973" x2="1118" y1="378" y2="378"/><line style="stroke: #A80036; stroke-width: 1.5;" x1="973" x2="1118" y1="386" y2="386"/><!--class CAIHRefreshAutoGifFooter--><rect fill="#FEFECE" filter="url(#f1jyr642b3jact)" height="48" id="CAIHRefreshAutoGifFooter" style="stroke: #A80036; stroke-width: 1.5;" width="182" x="1334.5" y="853"/><ellipse cx="1349.5" cy="869" fill="#ADD1B2" rx="11" ry="11" style="stroke: #A80036; stroke-width: 1.0;"/><path d="M1351.9731,875.1431 Q1351.3921,875.4419 1350.7529,875.5913 Q1350.1138,875.7407 1349.4082,875.7407 Q1346.9014,875.7407 1345.5815,874.0889 Q1344.2617,872.437 1344.2617,869.3159 Q1344.2617,866.1865 1345.5815,864.5347 Q1346.9014,862.8828 1349.4082,862.8828 Q1350.1138,862.8828 1350.7612,863.0322 Q1351.4087,863.1816 1351.9731,863.4805 L1351.9731,866.2031 Q1351.3423,865.6221 1350.7488,865.3523 Q1350.1553,865.0825 1349.5244,865.0825 Q1348.1797,865.0825 1347.4949,866.1492 Q1346.8101,867.2158 1346.8101,869.3159 Q1346.8101,871.4077 1347.4949,872.4744 Q1348.1797,873.541 1349.5244,873.541 Q1350.1553,873.541 1350.7488,873.2712 Q1351.3423,873.0015 1351.9731,872.4204 Z "/><text fill="#000000" font-family="sans-serif" font-size="12" lengthAdjust="spacingAndGlyphs" textLength="150" x="1363.5" y="873.5352">CAIHRefreshAutoGifFooter</text><line style="stroke: #A80036; stroke-width: 1.5;" x1="1335.5" x2="1515.5" y1="885" y2="885"/><line style="stroke: #A80036; stroke-width: 1.5;" x1="1335.5" x2="1515.5" y1="893" y2="893"/><!--class CAIHRefreshAutoStateFooter--><rect fill="#FEFECE" filter="url(#f1jyr642b3jact)" height="48" id="CAIHRefreshAutoStateFooter" style="stroke: #A80036; stroke-width: 1.5;" width="194" x="1328.5" y="684"/><ellipse cx="1343.5" cy="700" fill="#ADD1B2" rx="11" ry="11" style="stroke: #A80036; stroke-width: 1.0;"/><path d="M1345.9731,706.1431 Q1345.3921,706.4419 1344.7529,706.5913 Q1344.1138,706.7407 1343.4082,706.7407 Q1340.9014,706.7407 1339.5815,705.0889 Q1338.2617,703.437 1338.2617,700.3159 Q1338.2617,697.1865 1339.5815,695.5347 Q1340.9014,693.8828 1343.4082,693.8828 Q1344.1138,693.8828 1344.7612,694.0322 Q1345.4087,694.1816 1345.9731,694.4805 L1345.9731,697.2031 Q1345.3423,696.6221 1344.7488,696.3523 Q1344.1553,696.0825 1343.5244,696.0825 Q1342.1797,696.0825 1341.4949,697.1492 Q1340.8101,698.2158 1340.8101,700.3159 Q1340.8101,702.4077 1341.4949,703.4744 Q1342.1797,704.541 1343.5244,704.541 Q1344.1553,704.541 1344.7488,704.2712 Q1345.3423,704.0015 1345.9731,703.4204 Z "/><text fill="#000000" font-family="sans-serif" font-size="12" lengthAdjust="spacingAndGlyphs" textLength="162" x="1357.5" y="704.5352">CAIHRefreshAutoStateFooter</text><line style="stroke: #A80036; stroke-width: 1.5;" x1="1329.5" x2="1521.5" y1="716" y2="716"/><line style="stroke: #A80036; stroke-width: 1.5;" x1="1329.5" x2="1521.5" y1="724" y2="724"/><!--class CAIHRefreshAutoNormalFooter--><rect fill="#FEFECE" filter="url(#f1jyr642b3jact)" height="48" id="CAIHRefreshAutoNormalFooter" style="stroke: #A80036; stroke-width: 1.5;" width="208" x="1551.5" y="853"/><ellipse cx="1566.5" cy="869" fill="#ADD1B2" rx="11" ry="11" style="stroke: #A80036; stroke-width: 1.0;"/><path d="M1568.9731,875.1431 Q1568.3921,875.4419 1567.7529,875.5913 Q1567.1138,875.7407 1566.4082,875.7407 Q1563.9014,875.7407 1562.5815,874.0889 Q1561.2617,872.437 1561.2617,869.3159 Q1561.2617,866.1865 1562.5815,864.5347 Q1563.9014,862.8828 1566.4082,862.8828 Q1567.1138,862.8828 1567.7612,863.0322 Q1568.4087,863.1816 1568.9731,863.4805 L1568.9731,866.2031 Q1568.3423,865.6221 1567.7488,865.3523 Q1567.1553,865.0825 1566.5244,865.0825 Q1565.1797,865.0825 1564.4949,866.1492 Q1563.8101,867.2158 1563.8101,869.3159 Q1563.8101,871.4077 1564.4949,872.4744 Q1565.1797,873.541 1566.5244,873.541 Q1567.1553,873.541 1567.7488,873.2712 Q1568.3423,873.0015 1568.9731,872.4204 Z "/><text fill="#000000" font-family="sans-serif" font-size="12" lengthAdjust="spacingAndGlyphs" textLength="176" x="1580.5" y="873.5352">CAIHRefreshAutoNormalFooter</text><line style="stroke: #A80036; stroke-width: 1.5;" x1="1552.5" x2="1758.5" y1="885" y2="885"/><line style="stroke: #A80036; stroke-width: 1.5;" x1="1552.5" x2="1758.5" y1="893" y2="893"/><!--class CAIHRefreshBackGifFooter--><rect fill="#FEFECE" filter="url(#f1jyr642b3jact)" height="48" id="CAIHRefreshBackGifFooter" style="stroke: #A80036; stroke-width: 1.5;" width="183" x="872" y="853"/><ellipse cx="887" cy="869" fill="#ADD1B2" rx="11" ry="11" style="stroke: #A80036; stroke-width: 1.0;"/><path d="M889.4731,875.1431 Q888.8921,875.4419 888.2529,875.5913 Q887.6138,875.7407 886.9082,875.7407 Q884.4014,875.7407 883.0815,874.0889 Q881.7617,872.437 881.7617,869.3159 Q881.7617,866.1865 883.0815,864.5347 Q884.4014,862.8828 886.9082,862.8828 Q887.6138,862.8828 888.2612,863.0322 Q888.9087,863.1816 889.4731,863.4805 L889.4731,866.2031 Q888.8423,865.6221 888.2488,865.3523 Q887.6553,865.0825 887.0244,865.0825 Q885.6797,865.0825 884.9949,866.1492 Q884.3101,867.2158 884.3101,869.3159 Q884.3101,871.4077 884.9949,872.4744 Q885.6797,873.541 887.0244,873.541 Q887.6553,873.541 888.2488,873.2712 Q888.8423,873.0015 889.4731,872.4204 Z "/><text fill="#000000" font-family="sans-serif" font-size="12" lengthAdjust="spacingAndGlyphs" textLength="151" x="901" y="873.5352">CAIHRefreshBackGifFooter</text><line style="stroke: #A80036; stroke-width: 1.5;" x1="873" x2="1054" y1="885" y2="885"/><line style="stroke: #A80036; stroke-width: 1.5;" x1="873" x2="1054" y1="893" y2="893"/><!--class CAIHRefreshBackStateFooter--><rect fill="#FEFECE" filter="url(#f1jyr642b3jact)" height="48" id="CAIHRefreshBackStateFooter" style="stroke: #A80036; stroke-width: 1.5;" width="195" x="1097" y="684"/><ellipse cx="1112" cy="700" fill="#ADD1B2" rx="11" ry="11" style="stroke: #A80036; stroke-width: 1.0;"/><path d="M1114.4731,706.1431 Q1113.8921,706.4419 1113.2529,706.5913 Q1112.6138,706.7407 1111.9082,706.7407 Q1109.4014,706.7407 1108.0815,705.0889 Q1106.7617,703.437 1106.7617,700.3159 Q1106.7617,697.1865 1108.0815,695.5347 Q1109.4014,693.8828 1111.9082,693.8828 Q1112.6138,693.8828 1113.2612,694.0322 Q1113.9087,694.1816 1114.4731,694.4805 L1114.4731,697.2031 Q1113.8423,696.6221 1113.2488,696.3523 Q1112.6553,696.0825 1112.0244,696.0825 Q1110.6797,696.0825 1109.9949,697.1492 Q1109.3101,698.2158 1109.3101,700.3159 Q1109.3101,702.4077 1109.9949,703.4744 Q1110.6797,704.541 1112.0244,704.541 Q1112.6553,704.541 1113.2488,704.2712 Q1113.8423,704.0015 1114.4731,703.4204 Z "/><text fill="#000000" font-family="sans-serif" font-size="12" lengthAdjust="spacingAndGlyphs" textLength="163" x="1126" y="704.5352">CAIHRefreshBackStateFooter</text><line style="stroke: #A80036; stroke-width: 1.5;" x1="1098" x2="1291" y1="716" y2="716"/><line style="stroke: #A80036; stroke-width: 1.5;" x1="1098" x2="1291" y1="724" y2="724"/><!--class CAIHRefreshBackNormalFooter--><rect fill="#FEFECE" filter="url(#f1jyr642b3jact)" height="48" id="CAIHRefreshBackNormalFooter" style="stroke: #A80036; stroke-width: 1.5;" width="209" x="1090" y="853"/><ellipse cx="1105" cy="869" fill="#ADD1B2" rx="11" ry="11" style="stroke: #A80036; stroke-width: 1.0;"/><path d="M1107.4731,875.1431 Q1106.8921,875.4419 1106.2529,875.5913 Q1105.6138,875.7407 1104.9082,875.7407 Q1102.4014,875.7407 1101.0815,874.0889 Q1099.7617,872.437 1099.7617,869.3159 Q1099.7617,866.1865 1101.0815,864.5347 Q1102.4014,862.8828 1104.9082,862.8828 Q1105.6138,862.8828 1106.2612,863.0322 Q1106.9087,863.1816 1107.4731,863.4805 L1107.4731,866.2031 Q1106.8423,865.6221 1106.2488,865.3523 Q1105.6553,865.0825 1105.0244,865.0825 Q1103.6797,865.0825 1102.9949,866.1492 Q1102.3101,867.2158 1102.3101,869.3159 Q1102.3101,871.4077 1102.9949,872.4744 Q1103.6797,873.541 1105.0244,873.541 Q1105.6553,873.541 1106.2488,873.2712 Q1106.8423,873.0015 1107.4731,872.4204 Z "/><text fill="#000000" font-family="sans-serif" font-size="12" lengthAdjust="spacingAndGlyphs" textLength="177" x="1119" y="873.5352">CAIHRefreshBackNormalFooter</text><line style="stroke: #A80036; stroke-width: 1.5;" x1="1091" x2="1298" y1="885" y2="885"/><line style="stroke: #A80036; stroke-width: 1.5;" x1="1091" x2="1298" y1="893" y2="893"/><!--class CAIHRefreshGifHeader--><rect fill="#FEFECE" filter="url(#f1jyr642b3jact)" height="48" id="CAIHRefreshGifHeader" style="stroke: #A80036; stroke-width: 1.5;" width="163" x="675" y="684"/><ellipse cx="690" cy="700" fill="#ADD1B2" rx="11" ry="11" style="stroke: #A80036; stroke-width: 1.0;"/><path d="M692.4731,706.1431 Q691.8921,706.4419 691.2529,706.5913 Q690.6138,706.7407 689.9082,706.7407 Q687.4014,706.7407 686.0815,705.0889 Q684.7617,703.437 684.7617,700.3159 Q684.7617,697.1865 686.0815,695.5347 Q687.4014,693.8828 689.9082,693.8828 Q690.6138,693.8828 691.2612,694.0322 Q691.9087,694.1816 692.4731,694.4805 L692.4731,697.2031 Q691.8423,696.6221 691.2488,696.3523 Q690.6553,696.0825 690.0244,696.0825 Q688.6797,696.0825 687.9949,697.1492 Q687.3101,698.2158 687.3101,700.3159 Q687.3101,702.4077 687.9949,703.4744 Q688.6797,704.541 690.0244,704.541 Q690.6553,704.541 691.2488,704.2712 Q691.8423,704.0015 692.4731,703.4204 Z "/><text fill="#000000" font-family="sans-serif" font-size="12" lengthAdjust="spacingAndGlyphs" textLength="131" x="704" y="704.5352">CAIHRefreshGifHeader</text><line style="stroke: #A80036; stroke-width: 1.5;" x1="676" x2="837" y1="716" y2="716"/><line style="stroke: #A80036; stroke-width: 1.5;" x1="676" x2="837" y1="724" y2="724"/><!--class CAIHRefreshStateHeader--><rect fill="#FEFECE" filter="url(#f1jyr642b3jact)" height="48" id="CAIHRefreshStateHeader" style="stroke: #A80036; stroke-width: 1.5;" width="175" x="880" y="515"/><ellipse cx="895" cy="531" fill="#ADD1B2" rx="11" ry="11" style="stroke: #A80036; stroke-width: 1.0;"/><path d="M897.4731,537.1431 Q896.8921,537.4419 896.2529,537.5913 Q895.6138,537.7407 894.9082,537.7407 Q892.4014,537.7407 891.0815,536.0889 Q889.7617,534.437 889.7617,531.3159 Q889.7617,528.1865 891.0815,526.5347 Q892.4014,524.8828 894.9082,524.8828 Q895.6138,524.8828 896.2612,525.0322 Q896.9087,525.1816 897.4731,525.4805 L897.4731,528.2031 Q896.8423,527.6221 896.2488,527.3523 Q895.6553,527.0825 895.0244,527.0825 Q893.6797,527.0825 892.9949,528.1492 Q892.3101,529.2158 892.3101,531.3159 Q892.3101,533.4077 892.9949,534.4744 Q893.6797,535.541 895.0244,535.541 Q895.6553,535.541 896.2488,535.2712 Q896.8423,535.0015 897.4731,534.4204 Z "/><text fill="#000000" font-family="sans-serif" font-size="12" lengthAdjust="spacingAndGlyphs" textLength="143" x="909" y="535.5352">CAIHRefreshStateHeader</text><line style="stroke: #A80036; stroke-width: 1.5;" x1="881" x2="1054" y1="547" y2="547"/><line style="stroke: #A80036; stroke-width: 1.5;" x1="881" x2="1054" y1="555" y2="555"/><!--class CAIHRefreshNormalHeader--><rect fill="#FEFECE" filter="url(#f1jyr642b3jact)" height="48" id="CAIHRefreshNormalHeader" style="stroke: #A80036; stroke-width: 1.5;" width="189" x="873" y="684"/><ellipse cx="888" cy="700" fill="#ADD1B2" rx="11" ry="11" style="stroke: #A80036; stroke-width: 1.0;"/><path d="M890.4731,706.1431 Q889.8921,706.4419 889.2529,706.5913 Q888.6138,706.7407 887.9082,706.7407 Q885.4014,706.7407 884.0815,705.0889 Q882.7617,703.437 882.7617,700.3159 Q882.7617,697.1865 884.0815,695.5347 Q885.4014,693.8828 887.9082,693.8828 Q888.6138,693.8828 889.2612,694.0322 Q889.9087,694.1816 890.4731,694.4805 L890.4731,697.2031 Q889.8423,696.6221 889.2488,696.3523 Q888.6553,696.0825 888.0244,696.0825 Q886.6797,696.0825 885.9949,697.1492 Q885.3101,698.2158 885.3101,700.3159 Q885.3101,702.4077 885.9949,703.4744 Q886.6797,704.541 888.0244,704.541 Q888.6553,704.541 889.2488,704.2712 Q889.8423,704.0015 890.4731,703.4204 Z "/><text fill="#000000" font-family="sans-serif" font-size="12" lengthAdjust="spacingAndGlyphs" textLength="157" x="902" y="704.5352">CAIHRefreshNormalHeader</text><line style="stroke: #A80036; stroke-width: 1.5;" x1="874" x2="1061" y1="716" y2="716"/><line style="stroke: #A80036; stroke-width: 1.5;" x1="874" x2="1061" y1="724" y2="724"/><!--class MJChiBaoZiFooter--><rect fill="#FEFECE" filter="url(#f1jyr642b3jact)" height="48" id="MJChiBaoZiFooter" style="stroke: #A80036; stroke-width: 1.5;" width="131" x="2122" y="853"/><ellipse cx="2137" cy="869" fill="#ADD1B2" rx="11" ry="11" style="stroke: #A80036; stroke-width: 1.0;"/><path d="M2139.4731,875.1431 Q2138.8921,875.4419 2138.2529,875.5913 Q2137.6138,875.7407 2136.9082,875.7407 Q2134.4014,875.7407 2133.0815,874.0889 Q2131.7617,872.437 2131.7617,869.3159 Q2131.7617,866.1865 2133.0815,864.5347 Q2134.4014,862.8828 2136.9082,862.8828 Q2137.6138,862.8828 2138.2612,863.0322 Q2138.9087,863.1816 2139.4731,863.4805 L2139.4731,866.2031 Q2138.8423,865.6221 2138.2488,865.3523 Q2137.6553,865.0825 2137.0244,865.0825 Q2135.6797,865.0825 2134.9949,866.1492 Q2134.3101,867.2158 2134.3101,869.3159 Q2134.3101,871.4077 2134.9949,872.4744 Q2135.6797,873.541 2137.0244,873.541 Q2137.6553,873.541 2138.2488,873.2712 Q2138.8423,873.0015 2139.4731,872.4204 Z "/><text fill="#000000" font-family="sans-serif" font-size="12" lengthAdjust="spacingAndGlyphs" textLength="99" x="2151" y="873.5352">MJChiBaoZiFooter</text><line style="stroke: #A80036; stroke-width: 1.5;" x1="2123" x2="2252" y1="885" y2="885"/><line style="stroke: #A80036; stroke-width: 1.5;" x1="2123" x2="2252" y1="893" y2="893"/><!--class MJChiBaoZiHeader--><rect fill="#FEFECE" filter="url(#f1jyr642b3jact)" height="48" id="MJChiBaoZiHeader" style="stroke: #A80036; stroke-width: 1.5;" width="138" x="468.5" y="684"/><ellipse cx="483.5" cy="700" fill="#ADD1B2" rx="11" ry="11" style="stroke: #A80036; stroke-width: 1.0;"/><path d="M485.9731,706.1431 Q485.3921,706.4419 484.7529,706.5913 Q484.1138,706.7407 483.4082,706.7407 Q480.9014,706.7407 479.5815,705.0889 Q478.2617,703.437 478.2617,700.3159 Q478.2617,697.1865 479.5815,695.5347 Q480.9014,693.8828 483.4082,693.8828 Q484.1138,693.8828 484.7612,694.0322 Q485.4087,694.1816 485.9731,694.4805 L485.9731,697.2031 Q485.3423,696.6221 484.7488,696.3523 Q484.1553,696.0825 483.5244,696.0825 Q482.1797,696.0825 481.4949,697.1492 Q480.8101,698.2158 480.8101,700.3159 Q480.8101,702.4077 481.4949,703.4744 Q482.1797,704.541 483.5244,704.541 Q484.1553,704.541 484.7488,704.2712 Q485.3423,704.0015 485.9731,703.4204 Z "/><text fill="#000000" font-family="sans-serif" font-size="12" lengthAdjust="spacingAndGlyphs" textLength="106" x="497.5" y="704.5352">MJChiBaoZiHeader</text><line style="stroke: #A80036; stroke-width: 1.5;" x1="469.5" x2="605.5" y1="716" y2="716"/><line style="stroke: #A80036; stroke-width: 1.5;" x1="469.5" x2="605.5" y1="724" y2="724"/><!--class MJDIYAutoFooter--><rect fill="#FEFECE" filter="url(#f1jyr642b3jact)" height="48" id="MJDIYAutoFooter" style="stroke: #A80036; stroke-width: 1.5;" width="127" x="2313" y="515"/><ellipse cx="2328" cy="531" fill="#ADD1B2" rx="11" ry="11" style="stroke: #A80036; stroke-width: 1.0;"/><path d="M2330.4731,537.1431 Q2329.8921,537.4419 2329.2529,537.5913 Q2328.6138,537.7407 2327.9082,537.7407 Q2325.4014,537.7407 2324.0815,536.0889 Q2322.7617,534.437 2322.7617,531.3159 Q2322.7617,528.1865 2324.0815,526.5347 Q2325.4014,524.8828 2327.9082,524.8828 Q2328.6138,524.8828 2329.2612,525.0322 Q2329.9087,525.1816 2330.4731,525.4805 L2330.4731,528.2031 Q2329.8423,527.6221 2329.2488,527.3523 Q2328.6553,527.0825 2328.0244,527.0825 Q2326.6797,527.0825 2325.9949,528.1492 Q2325.3101,529.2158 2325.3101,531.3159 Q2325.3101,533.4077 2325.9949,534.4744 Q2326.6797,535.541 2328.0244,535.541 Q2328.6553,535.541 2329.2488,535.2712 Q2329.8423,535.0015 2330.4731,534.4204 Z "/><text fill="#000000" font-family="sans-serif" font-size="12" lengthAdjust="spacingAndGlyphs" textLength="95" x="2342" y="535.5352">MJDIYAutoFooter</text><line style="stroke: #A80036; stroke-width: 1.5;" x1="2314" x2="2439" y1="547" y2="547"/><line style="stroke: #A80036; stroke-width: 1.5;" x1="2314" x2="2439" y1="555" y2="555"/><!--class MJDIYBackFooter--><rect fill="#FEFECE" filter="url(#f1jyr642b3jact)" height="48" id="MJDIYBackFooter" style="stroke: #A80036; stroke-width: 1.5;" width="128" x="1920.5" y="515"/><ellipse cx="1935.5" cy="531" fill="#ADD1B2" rx="11" ry="11" style="stroke: #A80036; stroke-width: 1.0;"/><path d="M1937.9731,537.1431 Q1937.3921,537.4419 1936.7529,537.5913 Q1936.1138,537.7407 1935.4082,537.7407 Q1932.9014,537.7407 1931.5815,536.0889 Q1930.2617,534.437 1930.2617,531.3159 Q1930.2617,528.1865 1931.5815,526.5347 Q1932.9014,524.8828 1935.4082,524.8828 Q1936.1138,524.8828 1936.7612,525.0322 Q1937.4087,525.1816 1937.9731,525.4805 L1937.9731,528.2031 Q1937.3423,527.6221 1936.7488,527.3523 Q1936.1553,527.0825 1935.5244,527.0825 Q1934.1797,527.0825 1933.4949,528.1492 Q1932.8101,529.2158 1932.8101,531.3159 Q1932.8101,533.4077 1933.4949,534.4744 Q1934.1797,535.541 1935.5244,535.541 Q1936.1553,535.541 1936.7488,535.2712 Q1937.3423,535.0015 1937.9731,534.4204 Z "/><text fill="#000000" font-family="sans-serif" font-size="12" lengthAdjust="spacingAndGlyphs" textLength="96" x="1949.5" y="535.5352">MJDIYBackFooter</text><line style="stroke: #A80036; stroke-width: 1.5;" x1="1921.5" x2="2047.5" y1="547" y2="547"/><line style="stroke: #A80036; stroke-width: 1.5;" x1="1921.5" x2="2047.5" y1="555" y2="555"/><!--class MJDIYHeader--><rect fill="#FEFECE" filter="url(#f1jyr642b3jact)" height="48" id="MJDIYHeader" style="stroke: #A80036; stroke-width: 1.5;" width="108" x="828.5" y="346"/><ellipse cx="843.5" cy="362" fill="#ADD1B2" rx="11" ry="11" style="stroke: #A80036; stroke-width: 1.0;"/><path d="M845.9731,368.1431 Q845.3921,368.4419 844.7529,368.5913 Q844.1138,368.7407 843.4082,368.7407 Q840.9014,368.7407 839.5815,367.0889 Q838.2617,365.437 838.2617,362.3159 Q838.2617,359.1865 839.5815,357.5347 Q840.9014,355.8828 843.4082,355.8828 Q844.1138,355.8828 844.7612,356.0322 Q845.4087,356.1816 845.9731,356.4805 L845.9731,359.2031 Q845.3423,358.6221 844.7488,358.3523 Q844.1553,358.0825 843.5244,358.0825 Q842.1797,358.0825 841.4949,359.1492 Q840.8101,360.2158 840.8101,362.3159 Q840.8101,364.4077 841.4949,365.4744 Q842.1797,366.541 843.5244,366.541 Q844.1553,366.541 844.7488,366.2712 Q845.3423,366.0015 845.9731,365.4204 Z "/><text fill="#000000" font-family="sans-serif" font-size="12" lengthAdjust="spacingAndGlyphs" textLength="76" x="857.5" y="366.5352">MJDIYHeader</text><line style="stroke: #A80036; stroke-width: 1.5;" x1="829.5" x2="935.5" y1="378" y2="378"/><line style="stroke: #A80036; stroke-width: 1.5;" x1="829.5" x2="935.5" y1="386" y2="386"/><!--class MJExampleViewController--><rect fill="#FEFECE" filter="url(#f1jyr642b3jact)" height="48" id="MJExampleViewController" style="stroke: #A80036; stroke-width: 1.5;" width="179" x="1993" y="177"/><ellipse cx="2008" cy="193" fill="#ADD1B2" rx="11" ry="11" style="stroke: #A80036; stroke-width: 1.0;"/><path d="M2010.4731,199.1431 Q2009.8921,199.4419 2009.2529,199.5913 Q2008.6138,199.7407 2007.9082,199.7407 Q2005.4014,199.7407 2004.0815,198.0889 Q2002.7617,196.437 2002.7617,193.3159 Q2002.7617,190.1865 2004.0815,188.5347 Q2005.4014,186.8828 2007.9082,186.8828 Q2008.6138,186.8828 2009.2612,187.0322 Q2009.9087,187.1816 2010.4731,187.4805 L2010.4731,190.2031 Q2009.8423,189.6221 2009.2488,189.3523 Q2008.6553,189.0825 2008.0244,189.0825 Q2006.6797,189.0825 2005.9949,190.1492 Q2005.3101,191.2158 2005.3101,193.3159 Q2005.3101,195.4077 2005.9949,196.4744 Q2006.6797,197.541 2008.0244,197.541 Q2008.6553,197.541 2009.2488,197.2712 Q2009.8423,197.0015 2010.4731,196.4204 Z "/><text fill="#000000" font-family="sans-serif" font-size="12" lengthAdjust="spacingAndGlyphs" textLength="147" x="2022" y="197.5352">MJExampleViewController</text><line style="stroke: #A80036; stroke-width: 1.5;" x1="1994" x2="2171" y1="209" y2="209"/><line style="stroke: #A80036; stroke-width: 1.5;" x1="1994" x2="2171" y1="217" y2="217"/><!--class UITableViewController--><rect fill="#FEFECE" filter="url(#f1jyr642b3jact)" height="48" id="UITableViewController" style="stroke: #A80036; stroke-width: 1.5;" width="159" x="2209" y="8"/><ellipse cx="2224" cy="24" fill="#ADD1B2" rx="11" ry="11" style="stroke: #A80036; stroke-width: 1.0;"/><path d="M2226.4731,30.1431 Q2225.8921,30.4419 2225.2529,30.5913 Q2224.6138,30.7407 2223.9082,30.7407 Q2221.4014,30.7407 2220.0815,29.0889 Q2218.7617,27.437 2218.7617,24.3159 Q2218.7617,21.1865 2220.0815,19.5347 Q2221.4014,17.8828 2223.9082,17.8828 Q2224.6138,17.8828 2225.2612,18.0322 Q2225.9087,18.1816 2226.4731,18.4805 L2226.4731,21.2031 Q2225.8423,20.6221 2225.2488,20.3523 Q2224.6553,20.0825 2224.0244,20.0825 Q2222.6797,20.0825 2221.9949,21.1492 Q2221.3101,22.2158 2221.3101,24.3159 Q2221.3101,26.4077 2221.9949,27.4744 Q2222.6797,28.541 2224.0244,28.541 Q2224.6553,28.541 2225.2488,28.2712 Q2225.8423,28.0015 2226.4731,27.4204 Z "/><text fill="#000000" font-family="sans-serif" font-size="12" lengthAdjust="spacingAndGlyphs" textLength="127" x="2238" y="28.5352">UITableViewController</text><line style="stroke: #A80036; stroke-width: 1.5;" x1="2210" x2="2367" y1="40" y2="40"/><line style="stroke: #A80036; stroke-width: 1.5;" x1="2210" x2="2367" y1="48" y2="48"/><!--class MJExampleWindow--><rect fill="#FEFECE" filter="url(#f1jyr642b3jact)" height="48" id="MJExampleWindow" style="stroke: #A80036; stroke-width: 1.5;" width="140" x="3393.5" y="177"/><ellipse cx="3408.5" cy="193" fill="#ADD1B2" rx="11" ry="11" style="stroke: #A80036; stroke-width: 1.0;"/><path d="M3410.9731,199.1431 Q3410.3921,199.4419 3409.7529,199.5913 Q3409.1138,199.7407 3408.4082,199.7407 Q3405.9014,199.7407 3404.5815,198.0889 Q3403.2617,196.437 3403.2617,193.3159 Q3403.2617,190.1865 3404.5815,188.5347 Q3405.9014,186.8828 3408.4082,186.8828 Q3409.1138,186.8828 3409.7612,187.0322 Q3410.4087,187.1816 3410.9731,187.4805 L3410.9731,190.2031 Q3410.3423,189.6221 3409.7488,189.3523 Q3409.1553,189.0825 3408.5244,189.0825 Q3407.1797,189.0825 3406.4949,190.1492 Q3405.8101,191.2158 3405.8101,193.3159 Q3405.8101,195.4077 3406.4949,196.4744 Q3407.1797,197.541 3408.5244,197.541 Q3409.1553,197.541 3409.7488,197.2712 Q3410.3423,197.0015 3410.9731,196.4204 Z "/><text fill="#000000" font-family="sans-serif" font-size="12" lengthAdjust="spacingAndGlyphs" textLength="108" x="3422.5" y="197.5352">MJExampleWindow</text><line style="stroke: #A80036; stroke-width: 1.5;" x1="3394.5" x2="3532.5" y1="209" y2="209"/><line style="stroke: #A80036; stroke-width: 1.5;" x1="3394.5" x2="3532.5" y1="217" y2="217"/><!--class UIWindow--><rect fill="#FEFECE" filter="url(#f1jyr642b3jact)" height="48" id="UIWindow" style="stroke: #A80036; stroke-width: 1.5;" width="87" x="3420" y="8"/><ellipse cx="3435" cy="24" fill="#ADD1B2" rx="11" ry="11" style="stroke: #A80036; stroke-width: 1.0;"/><path d="M3437.4731,30.1431 Q3436.8921,30.4419 3436.2529,30.5913 Q3435.6138,30.7407 3434.9082,30.7407 Q3432.4014,30.7407 3431.0815,29.0889 Q3429.7617,27.437 3429.7617,24.3159 Q3429.7617,21.1865 3431.0815,19.5347 Q3432.4014,17.8828 3434.9082,17.8828 Q3435.6138,17.8828 3436.2612,18.0322 Q3436.9087,18.1816 3437.4731,18.4805 L3437.4731,21.2031 Q3436.8423,20.6221 3436.2488,20.3523 Q3435.6553,20.0825 3435.0244,20.0825 Q3433.6797,20.0825 3432.9949,21.1492 Q3432.3101,22.2158 3432.3101,24.3159 Q3432.3101,26.4077 3432.9949,27.4744 Q3433.6797,28.541 3435.0244,28.541 Q3435.6553,28.541 3436.2488,28.2712 Q3436.8423,28.0015 3437.4731,27.4204 Z "/><text fill="#000000" font-family="sans-serif" font-size="12" lengthAdjust="spacingAndGlyphs" textLength="55" x="3449" y="28.5352">UIWindow</text><line style="stroke: #A80036; stroke-width: 1.5;" x1="3421" x2="3506" y1="40" y2="40"/><line style="stroke: #A80036; stroke-width: 1.5;" x1="3421" x2="3506" y1="48" y2="48"/><!--class MJNavigationController--><rect fill="#FEFECE" filter="url(#f1jyr642b3jact)" height="48" id="MJNavigationController" style="stroke: #A80036; stroke-width: 1.5;" width="162" x="3196.5" y="177"/><ellipse cx="3211.5" cy="193" fill="#ADD1B2" rx="11" ry="11" style="stroke: #A80036; stroke-width: 1.0;"/><path d="M3213.9731,199.1431 Q3213.3921,199.4419 3212.7529,199.5913 Q3212.1138,199.7407 3211.4082,199.7407 Q3208.9014,199.7407 3207.5815,198.0889 Q3206.2617,196.437 3206.2617,193.3159 Q3206.2617,190.1865 3207.5815,188.5347 Q3208.9014,186.8828 3211.4082,186.8828 Q3212.1138,186.8828 3212.7612,187.0322 Q3213.4087,187.1816 3213.9731,187.4805 L3213.9731,190.2031 Q3213.3423,189.6221 3212.7488,189.3523 Q3212.1553,189.0825 3211.5244,189.0825 Q3210.1797,189.0825 3209.4949,190.1492 Q3208.8101,191.2158 3208.8101,193.3159 Q3208.8101,195.4077 3209.4949,196.4744 Q3210.1797,197.541 3211.5244,197.541 Q3212.1553,197.541 3212.7488,197.2712 Q3213.3423,197.0015 3213.9731,196.4204 Z "/><text fill="#000000" font-family="sans-serif" font-size="12" lengthAdjust="spacingAndGlyphs" textLength="130" x="3225.5" y="197.5352">MJNavigationController</text><line style="stroke: #A80036; stroke-width: 1.5;" x1="3197.5" x2="3357.5" y1="209" y2="209"/><line style="stroke: #A80036; stroke-width: 1.5;" x1="3197.5" x2="3357.5" y1="217" y2="217"/><!--class UINavigationController--><rect fill="#FEFECE" filter="url(#f1jyr642b3jact)" height="48" id="UINavigationController" style="stroke: #A80036; stroke-width: 1.5;" width="159" x="3198" y="8"/><ellipse cx="3213" cy="24" fill="#ADD1B2" rx="11" ry="11" style="stroke: #A80036; stroke-width: 1.0;"/><path d="M3215.4731,30.1431 Q3214.8921,30.4419 3214.2529,30.5913 Q3213.6138,30.7407 3212.9082,30.7407 Q3210.4014,30.7407 3209.0815,29.0889 Q3207.7617,27.437 3207.7617,24.3159 Q3207.7617,21.1865 3209.0815,19.5347 Q3210.4014,17.8828 3212.9082,17.8828 Q3213.6138,17.8828 3214.2612,18.0322 Q3214.9087,18.1816 3215.4731,18.4805 L3215.4731,21.2031 Q3214.8423,20.6221 3214.2488,20.3523 Q3213.6553,20.0825 3213.0244,20.0825 Q3211.6797,20.0825 3210.9949,21.1492 Q3210.3101,22.2158 3210.3101,24.3159 Q3210.3101,26.4077 3210.9949,27.4744 Q3211.6797,28.541 3213.0244,28.541 Q3213.6553,28.541 3214.2488,28.2712 Q3214.8423,28.0015 3215.4731,27.4204 Z "/><text fill="#000000" font-family="sans-serif" font-size="12" lengthAdjust="spacingAndGlyphs" textLength="127" x="3227" y="28.5352">UINavigationController</text><line style="stroke: #A80036; stroke-width: 1.5;" x1="3199" x2="3356" y1="40" y2="40"/><line style="stroke: #A80036; stroke-width: 1.5;" x1="3199" x2="3356" y1="48" y2="48"/><!--class MJSingleViewController--><rect fill="#FEFECE" filter="url(#f1jyr642b3jact)" height="48" id="MJSingleViewController" style="stroke: #A80036; stroke-width: 1.5;" width="162" x="2207.5" y="177"/><ellipse cx="2222.5" cy="193" fill="#ADD1B2" rx="11" ry="11" style="stroke: #A80036; stroke-width: 1.0;"/><path d="M2224.9731,199.1431 Q2224.3921,199.4419 2223.7529,199.5913 Q2223.1138,199.7407 2222.4082,199.7407 Q2219.9014,199.7407 2218.5815,198.0889 Q2217.2617,196.437 2217.2617,193.3159 Q2217.2617,190.1865 2218.5815,188.5347 Q2219.9014,186.8828 2222.4082,186.8828 Q2223.1138,186.8828 2223.7612,187.0322 Q2224.4087,187.1816 2224.9731,187.4805 L2224.9731,190.2031 Q2224.3423,189.6221 2223.7488,189.3523 Q2223.1553,189.0825 2222.5244,189.0825 Q2221.1797,189.0825 2220.4949,190.1492 Q2219.8101,191.2158 2219.8101,193.3159 Q2219.8101,195.4077 2220.4949,196.4744 Q2221.1797,197.541 2222.5244,197.541 Q2223.1553,197.541 2223.7488,197.2712 Q2224.3423,197.0015 2224.9731,196.4204 Z "/><text fill="#000000" font-family="sans-serif" font-size="12" lengthAdjust="spacingAndGlyphs" textLength="130" x="2236.5" y="197.5352">MJSingleViewController</text><line style="stroke: #A80036; stroke-width: 1.5;" x1="2208.5" x2="2368.5" y1="209" y2="209"/><line style="stroke: #A80036; stroke-width: 1.5;" x1="2208.5" x2="2368.5" y1="217" y2="217"/><!--class MJTempViewController--><rect fill="#FEFECE" filter="url(#f1jyr642b3jact)" height="48" id="MJTempViewController" style="stroke: #A80036; stroke-width: 1.5;" width="163" x="212" y="177"/><ellipse cx="227" cy="193" fill="#ADD1B2" rx="11" ry="11" style="stroke: #A80036; stroke-width: 1.0;"/><path d="M229.4731,199.1431 Q228.8921,199.4419 228.2529,199.5913 Q227.6138,199.7407 226.9082,199.7407 Q224.4014,199.7407 223.0815,198.0889 Q221.7617,196.437 221.7617,193.3159 Q221.7617,190.1865 223.0815,188.5347 Q224.4014,186.8828 226.9082,186.8828 Q227.6138,186.8828 228.2612,187.0322 Q228.9087,187.1816 229.4731,187.4805 L229.4731,190.2031 Q228.8423,189.6221 228.2488,189.3523 Q227.6553,189.0825 227.0244,189.0825 Q225.6797,189.0825 224.9949,190.1492 Q224.3101,191.2158 224.3101,193.3159 Q224.3101,195.4077 224.9949,196.4744 Q225.6797,197.541 227.0244,197.541 Q227.6553,197.541 228.2488,197.2712 Q228.8423,197.0015 229.4731,196.4204 Z "/><text fill="#000000" font-family="sans-serif" font-size="12" lengthAdjust="spacingAndGlyphs" textLength="131" x="241" y="197.5352">MJTempViewController</text><line style="stroke: #A80036; stroke-width: 1.5;" x1="213" x2="374" y1="209" y2="209"/><line style="stroke: #A80036; stroke-width: 1.5;" x1="213" x2="374" y1="217" y2="217"/><!--class UIViewController--><rect fill="#FEFECE" filter="url(#f1jyr642b3jact)" height="48" id="UIViewController" style="stroke: #A80036; stroke-width: 1.5;" width="126" x="424.5" y="8"/><ellipse cx="439.5" cy="24" fill="#ADD1B2" rx="11" ry="11" style="stroke: #A80036; stroke-width: 1.0;"/><path d="M441.9731,30.1431 Q441.3921,30.4419 440.7529,30.5913 Q440.1138,30.7407 439.4082,30.7407 Q436.9014,30.7407 435.5815,29.0889 Q434.2617,27.437 434.2617,24.3159 Q434.2617,21.1865 435.5815,19.5347 Q436.9014,17.8828 439.4082,17.8828 Q440.1138,17.8828 440.7612,18.0322 Q441.4087,18.1816 441.9731,18.4805 L441.9731,21.2031 Q441.3423,20.6221 440.7488,20.3523 Q440.1553,20.0825 439.5244,20.0825 Q438.1797,20.0825 437.4949,21.1492 Q436.8101,22.2158 436.8101,24.3159 Q436.8101,26.4077 437.4949,27.4744 Q438.1797,28.541 439.5244,28.541 Q440.1553,28.541 440.7488,28.2712 Q441.3423,28.0015 441.9731,27.4204 Z "/><text fill="#000000" font-family="sans-serif" font-size="12" lengthAdjust="spacingAndGlyphs" textLength="94" x="453.5" y="28.5352">UIViewController</text><line style="stroke: #A80036; stroke-width: 1.5;" x1="425.5" x2="549.5" y1="40" y2="40"/><line style="stroke: #A80036; stroke-width: 1.5;" x1="425.5" x2="549.5" y1="48" y2="48"/><!--class AppDelegate--><rect fill="#FEFECE" filter="url(#f1jyr642b3jact)" height="48" id="AppDelegate" style="stroke: #A80036; stroke-width: 1.5;" width="107" x="3054" y="177"/><ellipse cx="3069" cy="193" fill="#ADD1B2" rx="11" ry="11" style="stroke: #A80036; stroke-width: 1.0;"/><path d="M3071.4731,199.1431 Q3070.8921,199.4419 3070.2529,199.5913 Q3069.6138,199.7407 3068.9082,199.7407 Q3066.4014,199.7407 3065.0815,198.0889 Q3063.7617,196.437 3063.7617,193.3159 Q3063.7617,190.1865 3065.0815,188.5347 Q3066.4014,186.8828 3068.9082,186.8828 Q3069.6138,186.8828 3070.2612,187.0322 Q3070.9087,187.1816 3071.4731,187.4805 L3071.4731,190.2031 Q3070.8423,189.6221 3070.2488,189.3523 Q3069.6553,189.0825 3069.0244,189.0825 Q3067.6797,189.0825 3066.9949,190.1492 Q3066.3101,191.2158 3066.3101,193.3159 Q3066.3101,195.4077 3066.9949,196.4744 Q3067.6797,197.541 3069.0244,197.541 Q3069.6553,197.541 3070.2488,197.2712 Q3070.8423,197.0015 3071.4731,196.4204 Z "/><text fill="#000000" font-family="sans-serif" font-size="12" lengthAdjust="spacingAndGlyphs" textLength="75" x="3083" y="197.5352">AppDelegate</text><line style="stroke: #A80036; stroke-width: 1.5;" x1="3055" x2="3160" y1="209" y2="209"/><line style="stroke: #A80036; stroke-width: 1.5;" x1="3055" x2="3160" y1="217" y2="217"/><!--class UIResponder--><rect fill="#FEFECE" filter="url(#f1jyr642b3jact)" height="48" id="UIResponder" style="stroke: #A80036; stroke-width: 1.5;" width="106" x="3054.5" y="8"/><ellipse cx="3069.5" cy="24" fill="#ADD1B2" rx="11" ry="11" style="stroke: #A80036; stroke-width: 1.0;"/><path d="M3071.9731,30.1431 Q3071.3921,30.4419 3070.7529,30.5913 Q3070.1138,30.7407 3069.4082,30.7407 Q3066.9014,30.7407 3065.5815,29.0889 Q3064.2617,27.437 3064.2617,24.3159 Q3064.2617,21.1865 3065.5815,19.5347 Q3066.9014,17.8828 3069.4082,17.8828 Q3070.1138,17.8828 3070.7612,18.0322 Q3071.4087,18.1816 3071.9731,18.4805 L3071.9731,21.2031 Q3071.3423,20.6221 3070.7488,20.3523 Q3070.1553,20.0825 3069.5244,20.0825 Q3068.1797,20.0825 3067.4949,21.1492 Q3066.8101,22.2158 3066.8101,24.3159 Q3066.8101,26.4077 3067.4949,27.4744 Q3068.1797,28.541 3069.5244,28.541 Q3070.1553,28.541 3070.7488,28.2712 Q3071.3423,28.0015 3071.9731,27.4204 Z "/><text fill="#000000" font-family="sans-serif" font-size="12" lengthAdjust="spacingAndGlyphs" textLength="74" x="3083.5" y="28.5352">UIResponder</text><line style="stroke: #A80036; stroke-width: 1.5;" x1="3055.5" x2="3159.5" y1="40" y2="40"/><line style="stroke: #A80036; stroke-width: 1.5;" x1="3055.5" x2="3159.5" y1="48" y2="48"/><!--class CAIHCollectionViewController--><rect fill="#FEFECE" filter="url(#f1jyr642b3jact)" height="48" id="CAIHCollectionViewController" style="stroke: #A80036; stroke-width: 1.5;" width="198" x="2601.5" y="177"/><ellipse cx="2616.5" cy="193" fill="#ADD1B2" rx="11" ry="11" style="stroke: #A80036; stroke-width: 1.0;"/><path d="M2618.9731,199.1431 Q2618.3921,199.4419 2617.7529,199.5913 Q2617.1138,199.7407 2616.4082,199.7407 Q2613.9014,199.7407 2612.5815,198.0889 Q2611.2617,196.437 2611.2617,193.3159 Q2611.2617,190.1865 2612.5815,188.5347 Q2613.9014,186.8828 2616.4082,186.8828 Q2617.1138,186.8828 2617.7612,187.0322 Q2618.4087,187.1816 2618.9731,187.4805 L2618.9731,190.2031 Q2618.3423,189.6221 2617.7488,189.3523 Q2617.1553,189.0825 2616.5244,189.0825 Q2615.1797,189.0825 2614.4949,190.1492 Q2613.8101,191.2158 2613.8101,193.3159 Q2613.8101,195.4077 2614.4949,196.4744 Q2615.1797,197.541 2616.5244,197.541 Q2617.1553,197.541 2617.7488,197.2712 Q2618.3423,197.0015 2618.9731,196.4204 Z "/><text fill="#000000" font-family="sans-serif" font-size="12" lengthAdjust="spacingAndGlyphs" textLength="166" x="2630.5" y="197.5352">CAIHCollectionViewController</text><line style="stroke: #A80036; stroke-width: 1.5;" x1="2602.5" x2="2798.5" y1="209" y2="209"/><line style="stroke: #A80036; stroke-width: 1.5;" x1="2602.5" x2="2798.5" y1="217" y2="217"/><!--class UICollectionViewController--><rect fill="#FEFECE" filter="url(#f1jyr642b3jact)" height="48" id="UICollectionViewController" style="stroke: #A80036; stroke-width: 1.5;" width="181" x="2723" y="8"/><ellipse cx="2738" cy="24" fill="#ADD1B2" rx="11" ry="11" style="stroke: #A80036; stroke-width: 1.0;"/><path d="M2740.4731,30.1431 Q2739.8921,30.4419 2739.2529,30.5913 Q2738.6138,30.7407 2737.9082,30.7407 Q2735.4014,30.7407 2734.0815,29.0889 Q2732.7617,27.437 2732.7617,24.3159 Q2732.7617,21.1865 2734.0815,19.5347 Q2735.4014,17.8828 2737.9082,17.8828 Q2738.6138,17.8828 2739.2612,18.0322 Q2739.9087,18.1816 2740.4731,18.4805 L2740.4731,21.2031 Q2739.8423,20.6221 2739.2488,20.3523 Q2738.6553,20.0825 2738.0244,20.0825 Q2736.6797,20.0825 2735.9949,21.1492 Q2735.3101,22.2158 2735.3101,24.3159 Q2735.3101,26.4077 2735.9949,27.4744 Q2736.6797,28.541 2738.0244,28.541 Q2738.6553,28.541 2739.2488,28.2712 Q2739.8423,28.0015 2740.4731,27.4204 Z "/><text fill="#000000" font-family="sans-serif" font-size="12" lengthAdjust="spacingAndGlyphs" textLength="149" x="2752" y="28.5352">UICollectionViewController</text><line style="stroke: #A80036; stroke-width: 1.5;" x1="2724" x2="2903" y1="40" y2="40"/><line style="stroke: #A80036; stroke-width: 1.5;" x1="2724" x2="2903" y1="48" y2="48"/><!--class MJCollectionViewController--><rect fill="#FEFECE" filter="url(#f1jyr642b3jact)" height="48" id="MJCollectionViewController" style="stroke: #A80036; stroke-width: 1.5;" width="184" x="2834.5" y="177"/><ellipse cx="2849.5" cy="193" fill="#ADD1B2" rx="11" ry="11" style="stroke: #A80036; stroke-width: 1.0;"/><path d="M2851.9731,199.1431 Q2851.3921,199.4419 2850.7529,199.5913 Q2850.1138,199.7407 2849.4082,199.7407 Q2846.9014,199.7407 2845.5815,198.0889 Q2844.2617,196.437 2844.2617,193.3159 Q2844.2617,190.1865 2845.5815,188.5347 Q2846.9014,186.8828 2849.4082,186.8828 Q2850.1138,186.8828 2850.7612,187.0322 Q2851.4087,187.1816 2851.9731,187.4805 L2851.9731,190.2031 Q2851.3423,189.6221 2850.7488,189.3523 Q2850.1553,189.0825 2849.5244,189.0825 Q2848.1797,189.0825 2847.4949,190.1492 Q2846.8101,191.2158 2846.8101,193.3159 Q2846.8101,195.4077 2847.4949,196.4744 Q2848.1797,197.541 2849.5244,197.541 Q2850.1553,197.541 2850.7488,197.2712 Q2851.3423,197.0015 2851.9731,196.4204 Z "/><text fill="#000000" font-family="sans-serif" font-size="12" lengthAdjust="spacingAndGlyphs" textLength="152" x="2863.5" y="197.5352">MJCollectionViewController</text><line style="stroke: #A80036; stroke-width: 1.5;" x1="2835.5" x2="3017.5" y1="209" y2="209"/><line style="stroke: #A80036; stroke-width: 1.5;" x1="2835.5" x2="3017.5" y1="217" y2="217"/><!--class MJTableViewController--><rect fill="#FEFECE" filter="url(#f1jyr642b3jact)" height="48" id="MJTableViewController" style="stroke: #A80036; stroke-width: 1.5;" width="162" x="2404.5" y="177"/><ellipse cx="2419.5" cy="193" fill="#ADD1B2" rx="11" ry="11" style="stroke: #A80036; stroke-width: 1.0;"/><path d="M2421.9731,199.1431 Q2421.3921,199.4419 2420.7529,199.5913 Q2420.1138,199.7407 2419.4082,199.7407 Q2416.9014,199.7407 2415.5815,198.0889 Q2414.2617,196.437 2414.2617,193.3159 Q2414.2617,190.1865 2415.5815,188.5347 Q2416.9014,186.8828 2419.4082,186.8828 Q2420.1138,186.8828 2420.7612,187.0322 Q2421.4087,187.1816 2421.9731,187.4805 L2421.9731,190.2031 Q2421.3423,189.6221 2420.7488,189.3523 Q2420.1553,189.0825 2419.5244,189.0825 Q2418.1797,189.0825 2417.4949,190.1492 Q2416.8101,191.2158 2416.8101,193.3159 Q2416.8101,195.4077 2417.4949,196.4744 Q2418.1797,197.541 2419.5244,197.541 Q2420.1553,197.541 2420.7488,197.2712 Q2421.3423,197.0015 2421.9731,196.4204 Z "/><text fill="#000000" font-family="sans-serif" font-size="12" lengthAdjust="spacingAndGlyphs" textLength="130" x="2433.5" y="197.5352">MJTableViewController</text><line style="stroke: #A80036; stroke-width: 1.5;" x1="2405.5" x2="2565.5" y1="209" y2="209"/><line style="stroke: #A80036; stroke-width: 1.5;" x1="2405.5" x2="2565.5" y1="217" y2="217"/><!--class MJChiBaoZiFooter2--><rect fill="#FEFECE" filter="url(#f1jyr642b3jact)" height="48" id="MJChiBaoZiFooter2" style="stroke: #A80036; stroke-width: 1.5;" width="139" x="1795" y="853"/><ellipse cx="1810" cy="869" fill="#ADD1B2" rx="11" ry="11" style="stroke: #A80036; stroke-width: 1.0;"/><path d="M1812.4731,875.1431 Q1811.8921,875.4419 1811.2529,875.5913 Q1810.6138,875.7407 1809.9082,875.7407 Q1807.4014,875.7407 1806.0815,874.0889 Q1804.7617,872.437 1804.7617,869.3159 Q1804.7617,866.1865 1806.0815,864.5347 Q1807.4014,862.8828 1809.9082,862.8828 Q1810.6138,862.8828 1811.2612,863.0322 Q1811.9087,863.1816 1812.4731,863.4805 L1812.4731,866.2031 Q1811.8423,865.6221 1811.2488,865.3523 Q1810.6553,865.0825 1810.0244,865.0825 Q1808.6797,865.0825 1807.9949,866.1492 Q1807.3101,867.2158 1807.3101,869.3159 Q1807.3101,871.4077 1807.9949,872.4744 Q1808.6797,873.541 1810.0244,873.541 Q1810.6553,873.541 1811.2488,873.2712 Q1811.8423,873.0015 1812.4731,872.4204 Z "/><text fill="#000000" font-family="sans-serif" font-size="12" lengthAdjust="spacingAndGlyphs" textLength="107" x="1824" y="873.5352">MJChiBaoZiFooter2</text><line style="stroke: #A80036; stroke-width: 1.5;" x1="1796" x2="1933" y1="885" y2="885"/><line style="stroke: #A80036; stroke-width: 1.5;" x1="1796" x2="1933" y1="893" y2="893"/><!--class MJTestViewController--><rect fill="#FEFECE" filter="url(#f1jyr642b3jact)" height="48" id="MJTestViewController" style="stroke: #A80036; stroke-width: 1.5;" width="154" x="410.5" y="177"/><ellipse cx="425.5" cy="193" fill="#ADD1B2" rx="11" ry="11" style="stroke: #A80036; stroke-width: 1.0;"/><path d="M427.9731,199.1431 Q427.3921,199.4419 426.7529,199.5913 Q426.1138,199.7407 425.4082,199.7407 Q422.9014,199.7407 421.5815,198.0889 Q420.2617,196.437 420.2617,193.3159 Q420.2617,190.1865 421.5815,188.5347 Q422.9014,186.8828 425.4082,186.8828 Q426.1138,186.8828 426.7612,187.0322 Q427.4087,187.1816 427.9731,187.4805 L427.9731,190.2031 Q427.3423,189.6221 426.7488,189.3523 Q426.1553,189.0825 425.5244,189.0825 Q424.1797,189.0825 423.4949,190.1492 Q422.8101,191.2158 422.8101,193.3159 Q422.8101,195.4077 423.4949,196.4744 Q424.1797,197.541 425.5244,197.541 Q426.1553,197.541 426.7488,197.2712 Q427.3423,197.0015 427.9731,196.4204 Z "/><text fill="#000000" font-family="sans-serif" font-size="12" lengthAdjust="spacingAndGlyphs" textLength="122" x="439.5" y="197.5352">MJTestViewController</text><line style="stroke: #A80036; stroke-width: 1.5;" x1="411.5" x2="563.5" y1="209" y2="209"/><line style="stroke: #A80036; stroke-width: 1.5;" x1="411.5" x2="563.5" y1="217" y2="217"/><!--class MJWebViewViewController--><rect fill="#FEFECE" filter="url(#f1jyr642b3jact)" height="48" id="MJWebViewViewController" style="stroke: #A80036; stroke-width: 1.5;" width="181" x="600" y="177"/><ellipse cx="615" cy="193" fill="#ADD1B2" rx="11" ry="11" style="stroke: #A80036; stroke-width: 1.0;"/><path d="M617.4731,199.1431 Q616.8921,199.4419 616.2529,199.5913 Q615.6138,199.7407 614.9082,199.7407 Q612.4014,199.7407 611.0815,198.0889 Q609.7617,196.437 609.7617,193.3159 Q609.7617,190.1865 611.0815,188.5347 Q612.4014,186.8828 614.9082,186.8828 Q615.6138,186.8828 616.2612,187.0322 Q616.9087,187.1816 617.4731,187.4805 L617.4731,190.2031 Q616.8423,189.6221 616.2488,189.3523 Q615.6553,189.0825 615.0244,189.0825 Q613.6797,189.0825 612.9949,190.1492 Q612.3101,191.2158 612.3101,193.3159 Q612.3101,195.4077 612.9949,196.4744 Q613.6797,197.541 615.0244,197.541 Q615.6553,197.541 616.2488,197.2712 Q616.8423,197.0015 617.4731,196.4204 Z "/><text fill="#000000" font-family="sans-serif" font-size="12" lengthAdjust="spacingAndGlyphs" textLength="149" x="629" y="197.5352">MJWebViewViewController</text><line style="stroke: #A80036; stroke-width: 1.5;" x1="601" x2="780" y1="209" y2="209"/><line style="stroke: #A80036; stroke-width: 1.5;" x1="601" x2="780" y1="217" y2="217"/><!--class MJRefreshExampleTests--><rect fill="#FEFECE" filter="url(#f1jyr642b3jact)" height="48" id="MJRefreshExampleTests" style="stroke: #A80036; stroke-width: 1.5;" width="171" x="6" y="177"/><ellipse cx="21" cy="193" fill="#ADD1B2" rx="11" ry="11" style="stroke: #A80036; stroke-width: 1.0;"/><path d="M23.4731,199.1431 Q22.8921,199.4419 22.2529,199.5913 Q21.6138,199.7407 20.9082,199.7407 Q18.4014,199.7407 17.0815,198.0889 Q15.7617,196.437 15.7617,193.3159 Q15.7617,190.1865 17.0815,188.5347 Q18.4014,186.8828 20.9082,186.8828 Q21.6138,186.8828 22.2612,187.0322 Q22.9087,187.1816 23.4731,187.4805 L23.4731,190.2031 Q22.8423,189.6221 22.2488,189.3523 Q21.6553,189.0825 21.0244,189.0825 Q19.6797,189.0825 18.9949,190.1492 Q18.3101,191.2158 18.3101,193.3159 Q18.3101,195.4077 18.9949,196.4744 Q19.6797,197.541 21.0244,197.541 Q21.6553,197.541 22.2488,197.2712 Q22.8423,197.0015 23.4731,196.4204 Z "/><text fill="#000000" font-family="sans-serif" font-size="12" lengthAdjust="spacingAndGlyphs" textLength="139" x="35" y="197.5352">MJRefreshExampleTests</text><line style="stroke: #A80036; stroke-width: 1.5;" x1="7" x2="176" y1="209" y2="209"/><line style="stroke: #A80036; stroke-width: 1.5;" x1="7" x2="176" y1="217" y2="217"/><!--class XCTestCase--><rect fill="#FEFECE" filter="url(#f1jyr642b3jact)" height="48" id="XCTestCase" style="stroke: #A80036; stroke-width: 1.5;" width="101" x="41" y="8"/><ellipse cx="56" cy="24" fill="#ADD1B2" rx="11" ry="11" style="stroke: #A80036; stroke-width: 1.0;"/><path d="M58.4731,30.1431 Q57.8921,30.4419 57.2529,30.5913 Q56.6138,30.7407 55.9082,30.7407 Q53.4014,30.7407 52.0815,29.0889 Q50.7617,27.437 50.7617,24.3159 Q50.7617,21.1865 52.0815,19.5347 Q53.4014,17.8828 55.9082,17.8828 Q56.6138,17.8828 57.2612,18.0322 Q57.9087,18.1816 58.4731,18.4805 L58.4731,21.2031 Q57.8423,20.6221 57.2488,20.3523 Q56.6553,20.0825 56.0244,20.0825 Q54.6797,20.0825 53.9949,21.1492 Q53.3101,22.2158 53.3101,24.3159 Q53.3101,26.4077 53.9949,27.4744 Q54.6797,28.541 56.0244,28.541 Q56.6553,28.541 57.2488,28.2712 Q57.8423,28.0015 58.4731,27.4204 Z "/><text fill="#000000" font-family="sans-serif" font-size="12" lengthAdjust="spacingAndGlyphs" textLength="69" x="70" y="28.5352">XCTestCase</text><line style="stroke: #A80036; stroke-width: 1.5;" x1="42" x2="141" y1="40" y2="40"/><line style="stroke: #A80036; stroke-width: 1.5;" x1="42" x2="141" y1="48" y2="48"/><!--link MJRefreshFooter to MJRefreshAutoFooter--><path d="M1953.5938,235.0848 C2010.5084,267.9127 2095.1676,316.7434 2145.5008,345.7752 " fill="none" id="MJRefreshFooter-MJRefreshAutoFooter" style="stroke: #A80036; stroke-width: 1.0;"/><polygon fill="none" points="1949.9958,241.0905,1936.1686,225.0341,1956.9908,228.9632,1949.9958,241.0905" style="stroke: #A80036; stroke-width: 1.0;"/><!--link MJRefreshFooter to MJRefreshBackFooter--><path d="M1894.5,245.5236 C1894.5,277.6318 1894.5,319.7466 1894.5,345.8313 " fill="none" id="MJRefreshFooter-MJRefreshBackFooter" style="stroke: #A80036; stroke-width: 1.0;"/><polygon fill="none" points="1887.5001,245.2136,1894.5,225.2136,1901.5001,245.2135,1887.5001,245.2136" style="stroke: #A80036; stroke-width: 1.0;"/><!--link MJRefreshComponent to MJRefreshFooter--><path d="M1206.3439,53.0377 C1369.9468,88.2144 1694.5362,158.0052 1831.3493,187.4218 " fill="none" id="MJRefreshComponent-MJRefreshFooter" style="stroke: #A80036; stroke-width: 1.0;"/><polygon fill="none" points="1204.8199,59.8701,1186.7382,48.8222,1207.7629,46.1829,1204.8199,59.8701" style="stroke: #A80036; stroke-width: 1.0;"/><!--link MJRefreshComponent to MJRefreshHeader--><path d="M1060.0744,68.2121 C1016.2099,101.0134 952.8053,148.4266 914.8202,176.8313 " fill="none" id="MJRefreshComponent-MJRefreshHeader" style="stroke: #A80036; stroke-width: 1.0;"/><polygon fill="none" points="1055.9106,62.585,1076.1197,56.2136,1064.2948,73.7969,1055.9106,62.585" style="stroke: #A80036; stroke-width: 1.0;"/><!--link MJRefreshAutoStateFooter to MJRefreshAutoGifFooter--><path d="M2187.5,583.5236 C2187.5,615.6318 2187.5,657.7466 2187.5,683.8313 " fill="none" id="MJRefreshAutoStateFooter-MJRefreshAutoGifFooter" style="stroke: #A80036; stroke-width: 1.0;"/><polygon fill="none" points="2180.5001,583.2136,2187.5,563.2136,2194.5001,583.2135,2180.5001,583.2136" style="stroke: #A80036; stroke-width: 1.0;"/><!--link MJRefreshAutoStateFooter to MJRefreshAutoNormalFooter--><path d="M2234.3393,575.6474 C2276.2411,608.4317 2336.4659,655.552 2372.6099,683.8313 " fill="none" id="MJRefreshAutoStateFooter-MJRefreshAutoNormalFooter" style="stroke: #A80036; stroke-width: 1.0;"/><polygon fill="none" points="2229.8857,581.0509,2218.4475,563.2136,2238.5127,570.0247,2229.8857,581.0509" style="stroke: #A80036; stroke-width: 1.0;"/><!--link MJRefreshAutoFooter to MJRefreshAutoStateFooter--><path d="M2187.5,414.5236 C2187.5,446.6318 2187.5,488.7466 2187.5,514.8313 " fill="none" id="MJRefreshAutoFooter-MJRefreshAutoStateFooter" style="stroke: #A80036; stroke-width: 1.0;"/><polygon fill="none" points="2180.5001,414.2136,2187.5,394.2136,2194.5001,414.2135,2180.5001,414.2136" style="stroke: #A80036; stroke-width: 1.0;"/><!--link MJRefreshBackStateFooter to MJRefreshBackGifFooter--><path d="M1783.8106,583.0612 C1776.0072,615.2264 1765.7221,657.6212 1759.3634,683.8313 " fill="none" id="MJRefreshBackStateFooter-MJRefreshBackGifFooter" style="stroke: #A80036; stroke-width: 1.0;"/><polygon fill="none" points="1777.1077,580.9994,1788.6257,563.2136,1790.713,584.3002,1777.1077,580.9994" style="stroke: #A80036; stroke-width: 1.0;"/><!--link MJRefreshBackStateFooter to MJRefreshBackNormalFooter--><path d="M1834.2658,577.1842 C1868.3261,609.8898 1916.3367,655.9909 1945.3303,683.8313 " fill="none" id="MJRefreshBackStateFooter-MJRefreshBackNormalFooter" style="stroke: #A80036; stroke-width: 1.0;"/><polygon fill="none" points="1829.2943,582.1151,1819.7165,563.2136,1838.991,572.0168,1829.2943,582.1151" style="stroke: #A80036; stroke-width: 1.0;"/><!--link MJRefreshBackFooter to MJRefreshBackStateFooter--><path d="M1869.7837,411.7706 C1850.6013,444.1887 1824.681,487.9942 1808.801,514.8313 " fill="none" id="MJRefreshBackFooter-MJRefreshBackStateFooter" style="stroke: #A80036; stroke-width: 1.0;"/><polygon fill="none" points="1863.9632,407.8613,1880.1724,394.2136,1876.0119,414.9908,1863.9632,407.8613" style="stroke: #A80036; stroke-width: 1.0;"/><!--link MJRefreshStateHeader to MJRefreshGifHeader--><path d="M672.9602,408.1842 C639.0934,440.8898 591.3555,486.9909 562.5267,514.8313 " fill="none" id="MJRefreshStateHeader-MJRefreshGifHeader" style="stroke: #A80036; stroke-width: 1.0;"/><polygon fill="none" points="668.1774,403.0716,687.4268,394.2136,677.9028,413.1423,668.1774,403.0716" style="stroke: #A80036; stroke-width: 1.0;"/><!--link MJRefreshStateHeader to MJRefreshNormalHeader--><path d="M718.2358,414.0612 C722.423,446.2264 727.9418,488.6212 731.3538,514.8313 " fill="none" id="MJRefreshStateHeader-MJRefreshNormalHeader" style="stroke: #A80036; stroke-width: 1.0;"/><polygon fill="none" points="711.2925,414.9499,715.6521,394.2136,725.1753,413.1426,711.2925,414.9499" style="stroke: #A80036; stroke-width: 1.0;"/><!--link MJRefreshHeader to MJRefreshStateHeader--><path d="M843.6445,239.627 C810.7733,272.3048 764.6907,318.1163 736.8117,345.8313 " fill="none" id="MJRefreshHeader-MJRefreshStateHeader" style="stroke: #A80036; stroke-width: 1.0;"/><polygon fill="none" points="839.0242,234.3496,858.1431,225.2136,848.8945,244.2783,839.0242,234.3496" style="stroke: #A80036; stroke-width: 1.0;"/><!--link CAIHRefreshFooter to CAIHRefreshAutoFooter--><path d="M1267.1298,407.5231 C1304.3288,440.266 1357.1991,486.8028 1389.0421,514.8313 " fill="none" id="CAIHRefreshFooter-CAIHRefreshAutoFooter" style="stroke: #A80036; stroke-width: 1.0;"/><polygon fill="none" points="1262.3966,412.6824,1252.0089,394.2136,1271.6467,402.1735,1262.3966,412.6824" style="stroke: #A80036; stroke-width: 1.0;"/><!--link CAIHRefreshFooter to CAIHRefreshBackFooter--><path d="M1218.2428,414.0612 C1213.6749,446.2264 1207.6544,488.6212 1203.9322,514.8313 " fill="none" id="CAIHRefreshFooter-CAIHRefreshBackFooter" style="stroke: #A80036; stroke-width: 1.0;"/><polygon fill="none" points="1211.3188,413.0307,1221.0614,394.2136,1225.1797,414.9991,1211.3188,413.0307" style="stroke: #A80036; stroke-width: 1.0;"/><!--link MJRefreshComponent to CAIHRefreshComponent--><path d="M1108.5,76.5236 C1108.5,108.6318 1108.5,150.7466 1108.5,176.8313 " fill="none" id="MJRefreshComponent-CAIHRefreshComponent" style="stroke: #A80036; stroke-width: 1.0;"/><polygon fill="none" points="1101.5001,76.2136,1108.5,56.2136,1115.5001,76.2135,1101.5001,76.2136" style="stroke: #A80036; stroke-width: 1.0;"/><!--link CAIHRefreshComponent to CAIHRefreshFooter--><path d="M1136.5492,241.8647 C1158.8594,274.3684 1189.3179,318.7434 1207.9109,345.8313 " fill="none" id="CAIHRefreshComponent-CAIHRefreshFooter" style="stroke: #A80036; stroke-width: 1.0;"/><polygon fill="none" points="1130.6669,245.6643,1125.12,225.2136,1142.2095,237.7416,1130.6669,245.6643" style="stroke: #A80036; stroke-width: 1.0;"/><!--link CAIHRefreshComponent to CAIHRefreshHeader--><path d="M1092.418,244.1406 C1080.3872,276.4136 1064.3738,319.3704 1054.5096,345.8313 " fill="none" id="CAIHRefreshComponent-CAIHRefreshHeader" style="stroke: #A80036; stroke-width: 1.0;"/><polygon fill="none" points="1085.9285,241.5087,1099.4736,225.2136,1099.0467,246.3989,1085.9285,241.5087" style="stroke: #A80036; stroke-width: 1.0;"/><!--link CAIHRefreshAutoStateFooter to CAIHRefreshAutoGifFooter--><path d="M1425.5,752.5236 C1425.5,784.6318 1425.5,826.7466 1425.5,852.8313 " fill="none" id="CAIHRefreshAutoStateFooter-CAIHRefreshAutoGifFooter" style="stroke: #A80036; stroke-width: 1.0;"/><polygon fill="none" points="1418.5001,752.2136,1425.5,732.2136,1432.5001,752.2135,1418.5001,752.2136" style="stroke: #A80036; stroke-width: 1.0;"/><!--link CAIHRefreshAutoStateFooter to CAIHRefreshAutoNormalFooter--><path d="M1474.7827,744.2121 C1519.4235,777.0134 1583.9504,824.4266 1622.6077,852.8313 " fill="none" id="CAIHRefreshAutoStateFooter-CAIHRefreshAutoNormalFooter" style="stroke: #A80036; stroke-width: 1.0;"/><polygon fill="none" points="1470.4255,749.697,1458.4534,732.2136,1478.7152,738.4151,1470.4255,749.697" style="stroke: #A80036; stroke-width: 1.0;"/><!--link CAIHRefreshAutoFooter to CAIHRefreshAutoStateFooter--><path d="M1418.8711,583.5236 C1420.581,615.6318 1422.8238,657.7466 1424.2129,683.8313 " fill="none" id="CAIHRefreshAutoFooter-CAIHRefreshAutoStateFooter" style="stroke: #A80036; stroke-width: 1.0;"/><polygon fill="none" points="1411.8631,583.5576,1417.7895,563.2136,1425.8433,582.813,1411.8631,583.5576" style="stroke: #A80036; stroke-width: 1.0;"/><!--link CAIHRefreshBackStateFooter to CAIHRefreshBackGifFooter--><path d="M1145.003,744.2121 C1100.1681,777.0134 1035.3607,824.4266 996.5353,852.8313 " fill="none" id="CAIHRefreshBackStateFooter-CAIHRefreshBackGifFooter" style="stroke: #A80036; stroke-width: 1.0;"/><polygon fill="none" points="1141.1287,738.3732,1161.4033,732.2136,1149.3951,749.6722,1141.1287,738.3732" style="stroke: #A80036; stroke-width: 1.0;"/><!--link CAIHRefreshBackStateFooter to CAIHRefreshBackNormalFooter--><path d="M1194.5,752.5236 C1194.5,784.6318 1194.5,826.7466 1194.5,852.8313 " fill="none" id="CAIHRefreshBackStateFooter-CAIHRefreshBackNormalFooter" style="stroke: #A80036; stroke-width: 1.0;"/><polygon fill="none" points="1187.5001,752.2136,1194.5,732.2136,1201.5001,752.2135,1187.5001,752.2136" style="stroke: #A80036; stroke-width: 1.0;"/><!--link CAIHRefreshBackFooter to CAIHRefreshBackStateFooter--><path d="M1198.9193,583.5236 C1197.7793,615.6318 1196.2841,657.7466 1195.3581,683.8313 " fill="none" id="CAIHRefreshBackFooter-CAIHRefreshBackStateFooter" style="stroke: #A80036; stroke-width: 1.0;"/><polygon fill="none" points="1191.935,582.9526,1199.6403,563.2136,1205.9262,583.4494,1191.935,582.9526" style="stroke: #A80036; stroke-width: 1.0;"/><!--link CAIHRefreshStateHeader to CAIHRefreshGifHeader--><path d="M921.4724,575.8657 C880.5524,608.6405 821.9041,655.6147 786.6751,683.8313 " fill="none" id="CAIHRefreshStateHeader-CAIHRefreshGifHeader" style="stroke: #A80036; stroke-width: 1.0;"/><polygon fill="none" points="917.2826,570.253,937.2688,563.2136,926.0347,581.1801,917.2826,570.253" style="stroke: #A80036; stroke-width: 1.0;"/><!--link CAIHRefreshStateHeader to CAIHRefreshNormalHeader--><path d="M967.5,583.5236 C967.5,615.6318 967.5,657.7466 967.5,683.8313 " fill="none" id="CAIHRefreshStateHeader-CAIHRefreshNormalHeader" style="stroke: #A80036; stroke-width: 1.0;"/><polygon fill="none" points="960.5001,583.2136,967.5,563.2136,974.5001,583.2135,960.5001,583.2136" style="stroke: #A80036; stroke-width: 1.0;"/><!--link CAIHRefreshHeader to CAIHRefreshStateHeader--><path d="M1025.8004,412.6825 C1010.8818,445.006 990.9254,488.245 978.6548,514.8313 " fill="none" id="CAIHRefreshHeader-CAIHRefreshStateHeader" style="stroke: #A80036; stroke-width: 1.0;"/><polygon fill="none" points="1019.5876,409.4393,1034.3245,394.2136,1032.299,415.3062,1019.5876,409.4393" style="stroke: #A80036; stroke-width: 1.0;"/><!--link MJRefreshAutoGifFooter to MJChiBaoZiFooter--><path d="M2187.5,752.5236 C2187.5,784.6318 2187.5,826.7466 2187.5,852.8313 " fill="none" id="MJRefreshAutoGifFooter-MJChiBaoZiFooter" style="stroke: #A80036; stroke-width: 1.0;"/><polygon fill="none" points="2180.5001,752.2136,2187.5,732.2136,2194.5001,752.2135,2180.5001,752.2136" style="stroke: #A80036; stroke-width: 1.0;"/><!--link MJRefreshGifHeader to MJChiBaoZiHeader--><path d="M537.5,583.5236 C537.5,615.6318 537.5,657.7466 537.5,683.8313 " fill="none" id="MJRefreshGifHeader-MJChiBaoZiHeader" style="stroke: #A80036; stroke-width: 1.0;"/><polygon fill="none" points="530.5001,583.2136,537.5,563.2136,544.5001,583.2135,530.5001,583.2136" style="stroke: #A80036; stroke-width: 1.0;"/><!--link MJRefreshAutoFooter to MJDIYAutoFooter--><path d="M2229.7097,407.743 C2266.3143,440.4741 2318.1958,486.8655 2349.4711,514.8313 " fill="none" id="MJRefreshAutoFooter-MJDIYAutoFooter" style="stroke: #A80036; stroke-width: 1.0;"/><polygon fill="none" points="2224.8221,412.763,2214.5791,394.2136,2234.154,402.3268,2224.8221,412.763" style="stroke: #A80036; stroke-width: 1.0;"/><!--link MJRefreshBackFooter to MJDIYBackFooter--><path d="M1916.9871,412.2258 C1934.2266,444.5978 1957.4039,488.1196 1971.6291,514.8313 " fill="none" id="MJRefreshBackFooter-MJDIYBackFooter" style="stroke: #A80036; stroke-width: 1.0;"/><polygon fill="none" points="1910.6173,415.1568,1907.3948,394.2136,1922.9743,408.5761,1910.6173,415.1568" style="stroke: #A80036; stroke-width: 1.0;"/><!--link MJRefreshHeader to MJDIYHeader--><path d="M882.5,245.5236 C882.5,277.6318 882.5,319.7466 882.5,345.8313 " fill="none" id="MJRefreshHeader-MJDIYHeader" style="stroke: #A80036; stroke-width: 1.0;"/><polygon fill="none" points="875.5001,245.2136,882.5,225.2136,889.5001,245.2135,875.5001,245.2136" style="stroke: #A80036; stroke-width: 1.0;"/><!--link UITableViewController to MJExampleViewController--><path d="M2243.2965,69.0844 C2203.3584,101.8492 2146.2778,148.6774 2111.96,176.8313 " fill="none" id="UITableViewController-MJExampleViewController" style="stroke: #A80036; stroke-width: 1.0;"/><polygon fill="none" points="2239.083,63.4869,2258.9852,56.2136,2247.9626,74.3106,2239.083,63.4869" style="stroke: #A80036; stroke-width: 1.0;"/><!--link UIWindow to MJExampleWindow--><path d="M3463.5,76.5236 C3463.5,108.6318 3463.5,150.7466 3463.5,176.8313 " fill="none" id="UIWindow-MJExampleWindow" style="stroke: #A80036; stroke-width: 1.0;"/><polygon fill="none" points="3456.5001,76.2136,3463.5,56.2136,3470.5001,76.2135,3456.5001,76.2136" style="stroke: #A80036; stroke-width: 1.0;"/><!--link UINavigationController to MJNavigationController--><path d="M3277.5,76.5236 C3277.5,108.6318 3277.5,150.7466 3277.5,176.8313 " fill="none" id="UINavigationController-MJNavigationController" style="stroke: #A80036; stroke-width: 1.0;"/><polygon fill="none" points="3270.5001,76.2136,3277.5,56.2136,3284.5001,76.2135,3270.5001,76.2136" style="stroke: #A80036; stroke-width: 1.0;"/><!--link UITableViewController to MJSingleViewController--><path d="M2288.5,76.5236 C2288.5,108.6318 2288.5,150.7466 2288.5,176.8313 " fill="none" id="UITableViewController-MJSingleViewController" style="stroke: #A80036; stroke-width: 1.0;"/><polygon fill="none" points="2281.5001,76.2136,2288.5,56.2136,2295.5001,76.2135,2281.5001,76.2136" style="stroke: #A80036; stroke-width: 1.0;"/><!--link UIViewController to MJTempViewController--><path d="M444.4262,69.5231 C406.8396,102.266 353.4187,148.8028 321.2439,176.8313 " fill="none" id="UIViewController-MJTempViewController" style="stroke: #A80036; stroke-width: 1.0;"/><polygon fill="none" points="440.0261,64.0725,459.7045,56.2136,449.2221,74.6288,440.0261,64.0725" style="stroke: #A80036; stroke-width: 1.0;"/><!--link UIResponder to AppDelegate--><path d="M3107.5,76.5236 C3107.5,108.6318 3107.5,150.7466 3107.5,176.8313 " fill="none" id="UIResponder-AppDelegate" style="stroke: #A80036; stroke-width: 1.0;"/><polygon fill="none" points="3100.5001,76.2136,3107.5,56.2136,3114.5001,76.2135,3100.5001,76.2136" style="stroke: #A80036; stroke-width: 1.0;"/><!--link UICollectionViewController to CAIHCollectionViewController--><path d="M2786.1763,72.8647 C2764.443,105.3684 2734.7722,149.7434 2716.6601,176.8313 " fill="none" id="UICollectionViewController-CAIHCollectionViewController" style="stroke: #A80036; stroke-width: 1.0;"/><polygon fill="none" points="2780.3741,68.9486,2797.3099,56.2136,2792.0122,76.7303,2780.3741,68.9486" style="stroke: #A80036; stroke-width: 1.0;"/><!--link UICollectionViewController to MJCollectionViewController--><path d="M2840.8237,72.8647 C2862.557,105.3684 2892.2278,149.7434 2910.3399,176.8313 " fill="none" id="UICollectionViewController-MJCollectionViewController" style="stroke: #A80036; stroke-width: 1.0;"/><polygon fill="none" points="2834.9878,76.7303,2829.6901,56.2136,2846.6259,68.9486,2834.9878,76.7303" style="stroke: #A80036; stroke-width: 1.0;"/><!--link UITableViewController to MJTableViewController--><path d="M2331.984,69.3035 C2370.1649,102.0577 2424.5817,148.7401 2457.3271,176.8313 " fill="none" id="UITableViewController-MJTableViewController" style="stroke: #A80036; stroke-width: 1.0;"/><polygon fill="none" points="2327.3472,74.5487,2316.7253,56.2136,2336.4628,63.9229,2327.3472,74.5487" style="stroke: #A80036; stroke-width: 1.0;"/><!--link MJRefreshBackGifFooter to MJChiBaoZiFooter2--><path d="M1780.6371,749.3169 C1801.9584,781.779 1830.9168,825.8688 1848.6259,852.8313 " fill="none" id="MJRefreshBackGifFooter-MJChiBaoZiFooter2" style="stroke: #A80036; stroke-width: 1.0;"/><polygon fill="none" points="1774.5324,752.7732,1769.4036,732.2136,1786.2341,745.0874,1774.5324,752.7732" style="stroke: #A80036; stroke-width: 1.0;"/><!--link UIViewController to MJTestViewController--><path d="M487.5,76.5236 C487.5,108.6318 487.5,150.7466 487.5,176.8313 " fill="none" id="UIViewController-MJTestViewController" style="stroke: #A80036; stroke-width: 1.0;"/><polygon fill="none" points="480.5001,76.2136,487.5,56.2136,494.5001,76.2135,480.5001,76.2136" style="stroke: #A80036; stroke-width: 1.0;"/><!--link UIViewController to MJWebViewViewController--><path d="M532.0452,69.0844 C571.4017,101.8492 627.651,148.6774 661.469,176.8313 " fill="none" id="UIViewController-MJWebViewViewController" style="stroke: #A80036; stroke-width: 1.0;"/><polygon fill="none" points="527.4769,74.3896,516.585,56.2136,536.4343,63.6301,527.4769,74.3896" style="stroke: #A80036; stroke-width: 1.0;"/><!--link XCTestCase to MJRefreshExampleTests--><path d="M91.5,76.5236 C91.5,108.6318 91.5,150.7466 91.5,176.8313 " fill="none" id="XCTestCase-MJRefreshExampleTests" style="stroke: #A80036; stroke-width: 1.0;"/><polygon fill="none" points="84.5001,76.2136,91.5,56.2136,98.5001,76.2135,84.5001,76.2136" style="stroke: #A80036; stroke-width: 1.0;"/><!--
@startuml

MJRefreshAutoFooter -up- -|> MJRefreshFooter
MJRefreshBackFooter -up- -|> MJRefreshFooter
MJRefreshFooter -up- -|> MJRefreshComponent
MJRefreshHeader -up- -|> MJRefreshComponent
MJRefreshAutoGifFooter -up- -|> MJRefreshAutoStateFooter
MJRefreshAutoNormalFooter -up- -|> MJRefreshAutoStateFooter
MJRefreshAutoStateFooter -up- -|> MJRefreshAutoFooter
MJRefreshBackGifFooter -up- -|> MJRefreshBackStateFooter
MJRefreshBackNormalFooter -up- -|> MJRefreshBackStateFooter
MJRefreshBackStateFooter -up- -|> MJRefreshBackFooter
MJRefreshGifHeader -up- -|> MJRefreshStateHeader
MJRefreshNormalHeader -up- -|> MJRefreshStateHeader
MJRefreshStateHeader -up- -|> MJRefreshHeader
CAIHRefreshAutoFooter -up- -|> CAIHRefreshFooter
CAIHRefreshBackFooter -up- -|> CAIHRefreshFooter
CAIHRefreshComponent -up- -|> MJRefreshComponent
CAIHRefreshFooter -up- -|> CAIHRefreshComponent
CAIHRefreshHeader -up- -|> CAIHRefreshComponent
CAIHRefreshAutoGifFooter -up- -|> CAIHRefreshAutoStateFooter
CAIHRefreshAutoNormalFooter -up- -|> CAIHRefreshAutoStateFooter
CAIHRefreshAutoStateFooter -up- -|> CAIHRefreshAutoFooter
CAIHRefreshBackGifFooter -up- -|> CAIHRefreshBackStateFooter
CAIHRefreshBackNormalFooter -up- -|> CAIHRefreshBackStateFooter
CAIHRefreshBackStateFooter -up- -|> CAIHRefreshBackFooter
CAIHRefreshGifHeader -up- -|> CAIHRefreshStateHeader
CAIHRefreshNormalHeader -up- -|> CAIHRefreshStateHeader
CAIHRefreshStateHeader -up- -|> CAIHRefreshHeader
MJChiBaoZiFooter -up- -|> MJRefreshAutoGifFooter
MJChiBaoZiHeader -up- -|> MJRefreshGifHeader
MJDIYAutoFooter -up- -|> MJRefreshAutoFooter
MJDIYBackFooter -up- -|> MJRefreshBackFooter
MJDIYHeader -up- -|> MJRefreshHeader
MJExampleViewController -up- -|> UITableViewController
MJExampleWindow -up- -|> UIWindow
MJNavigationController -up- -|> UINavigationController
MJSingleViewController -up- -|> UITableViewController
MJTempViewController -up- -|> UIViewController
AppDelegate -up- -|> UIResponder
CAIHCollectionViewController -up- -|> UICollectionViewController
MJCollectionViewController -up- -|> UICollectionViewController
MJTableViewController -up- -|> UITableViewController
MJChiBaoZiFooter2 -up- -|> MJRefreshBackGifFooter
MJTestViewController -up- -|> UIViewController
MJWebViewViewController -up- -|> UIViewController
MJRefreshExampleTests -up- -|> XCTestCase


class MJRefreshAutoFooter
class MJRefreshFooter
class MJRefreshBackFooter
class MJRefreshComponent
class MJRefreshHeader
class MJRefreshAutoGifFooter
class MJRefreshAutoStateFooter
class MJRefreshAutoNormalFooter
class MJRefreshBackGifFooter
class MJRefreshBackStateFooter
class MJRefreshBackNormalFooter
class MJRefreshGifHeader
class MJRefreshStateHeader
class MJRefreshNormalHeader
class CAIHRefreshAutoFooter
class CAIHRefreshFooter
class CAIHRefreshBackFooter
class CAIHRefreshComponent
class CAIHRefreshHeader
class CAIHRefreshAutoGifFooter
class CAIHRefreshAutoStateFooter
class CAIHRefreshAutoNormalFooter
class CAIHRefreshBackGifFooter
class CAIHRefreshBackStateFooter
class CAIHRefreshBackNormalFooter
class CAIHRefreshGifHeader
class CAIHRefreshStateHeader
class CAIHRefreshNormalHeader
class MJChiBaoZiFooter
class MJChiBaoZiHeader
class MJDIYAutoFooter
class MJDIYBackFooter
class MJDIYHeader
class MJExampleViewController
class UITableViewController
class MJExampleWindow
class UIWindow
class MJNavigationController
class UINavigationController
class MJSingleViewController
class MJTempViewController
class UIViewController
class AppDelegate
class UIResponder
class CAIHCollectionViewController
class UICollectionViewController
class MJCollectionViewController
class MJTableViewController
class MJChiBaoZiFooter2
class MJTestViewController
class MJWebViewViewController
class MJRefreshExampleTests
class XCTestCase



@enduml

PlantUML version 1.2019.06(Sat May 25 01:10:25 CST 2019)
(GPL source distribution)
Java Runtime: Java(TM) SE Runtime Environment
JVM: Java HotSpot(TM) 64-Bit Server VM
Java Version: 1.8.0_191-b12
Operating System: Mac OS X
OS Version: 10.14.3
Default Encoding: UTF-8
Language: zh
Country: CN
--></g></svg>