<?xml version="1.0" encoding="UTF-8" standalone="no"?><svg xmlns="http://www.w3.org/2000/svg" xmlns:xlink="http://www.w3.org/1999/xlink" contentScriptType="application/ecmascript" contentStyleType="text/css" height="912px" preserveAspectRatio="none" style="width:2913px;height:912px;" version="1.1" viewBox="0 0 2913 912" width="2913px" zoomAndPan="magnify"><defs><filter height="300%" id="f1ucn734gwkr3q" width="300%" x="-1" y="-1"><feGaussianBlur result="blurOut" stdDeviation="2.0"/><feColorMatrix in="blurOut" result="blurOut2" type="matrix" values="0 0 0 0 0 0 0 0 0 0 0 0 0 0 0 0 0 0 .4 0"/><feOffset dx="4.0" dy="4.0" in="blurOut2" result="blurOut3"/><feBlend in="SourceGraphic" in2="blurOut3" mode="normal"/></filter></defs><g><!--class MJRefreshAutoFooter--><rect fill="#FEFECE" filter="url(#f1ucn734gwkr3q)" height="48" id="MJRefreshAutoFooter" style="stroke: #A80036; stroke-width: 1.5;" width="152" x="2554.5" y="346"/><ellipse cx="2569.5" cy="362" fill="#ADD1B2" rx="11" ry="11" style="stroke: #A80036; stroke-width: 1.0;"/><path d="M2571.9731,368.1431 Q2571.3921,368.4419 2570.7529,368.5913 Q2570.1138,368.7407 2569.4082,368.7407 Q2566.9014,368.7407 2565.5815,367.0889 Q2564.2617,365.437 2564.2617,362.3159 Q2564.2617,359.1865 2565.5815,357.5347 Q2566.9014,355.8828 2569.4082,355.8828 Q2570.1138,355.8828 2570.7612,356.0322 Q2571.4087,356.1816 2571.9731,356.4805 L2571.9731,359.2031 Q2571.3423,358.6221 2570.7488,358.3523 Q2570.1553,358.0825 2569.5244,358.0825 Q2568.1797,358.0825 2567.4949,359.1492 Q2566.8101,360.2158 2566.8101,362.3159 Q2566.8101,364.4077 2567.4949,365.4744 Q2568.1797,366.541 2569.5244,366.541 Q2570.1553,366.541 2570.7488,366.2712 Q2571.3423,366.0015 2571.9731,365.4204 Z "/><text fill="#000000" font-family="sans-serif" font-size="12" lengthAdjust="spacingAndGlyphs" textLength="120" x="2583.5" y="366.5352">MJRefreshAutoFooter</text><line style="stroke: #A80036; stroke-width: 1.5;" x1="2555.5" x2="2705.5" y1="378" y2="378"/><line style="stroke: #A80036; stroke-width: 1.5;" x1="2555.5" x2="2705.5" y1="386" y2="386"/><!--class MJRefreshFooter--><rect fill="#FEFECE" filter="url(#f1ucn734gwkr3q)" height="48" id="MJRefreshFooter" style="stroke: #A80036; stroke-width: 1.5;" width="126" x="2345.5" y="177"/><ellipse cx="2360.5" cy="193" fill="#ADD1B2" rx="11" ry="11" style="stroke: #A80036; stroke-width: 1.0;"/><path d="M2362.9731,199.1431 Q2362.3921,199.4419 2361.7529,199.5913 Q2361.1138,199.7407 2360.4082,199.7407 Q2357.9014,199.7407 2356.5815,198.0889 Q2355.2617,196.437 2355.2617,193.3159 Q2355.2617,190.1865 2356.5815,188.5347 Q2357.9014,186.8828 2360.4082,186.8828 Q2361.1138,186.8828 2361.7612,187.0322 Q2362.4087,187.1816 2362.9731,187.4805 L2362.9731,190.2031 Q2362.3423,189.6221 2361.7488,189.3523 Q2361.1553,189.0825 2360.5244,189.0825 Q2359.1797,189.0825 2358.4949,190.1492 Q2357.8101,191.2158 2357.8101,193.3159 Q2357.8101,195.4077 2358.4949,196.4744 Q2359.1797,197.541 2360.5244,197.541 Q2361.1553,197.541 2361.7488,197.2712 Q2362.3423,197.0015 2362.9731,196.4204 Z "/><text fill="#000000" font-family="sans-serif" font-size="12" lengthAdjust="spacingAndGlyphs" textLength="94" x="2374.5" y="197.5352">MJRefreshFooter</text><line style="stroke: #A80036; stroke-width: 1.5;" x1="2346.5" x2="2470.5" y1="209" y2="209"/><line style="stroke: #A80036; stroke-width: 1.5;" x1="2346.5" x2="2470.5" y1="217" y2="217"/><!--class MJRefreshBackFooter--><rect fill="#FEFECE" filter="url(#f1ucn734gwkr3q)" height="48" id="MJRefreshBackFooter" style="stroke: #A80036; stroke-width: 1.5;" width="153" x="2332" y="346"/><ellipse cx="2347" cy="362" fill="#ADD1B2" rx="11" ry="11" style="stroke: #A80036; stroke-width: 1.0;"/><path d="M2349.4731,368.1431 Q2348.8921,368.4419 2348.2529,368.5913 Q2347.6138,368.7407 2346.9082,368.7407 Q2344.4014,368.7407 2343.0815,367.0889 Q2341.7617,365.437 2341.7617,362.3159 Q2341.7617,359.1865 2343.0815,357.5347 Q2344.4014,355.8828 2346.9082,355.8828 Q2347.6138,355.8828 2348.2612,356.0322 Q2348.9087,356.1816 2349.4731,356.4805 L2349.4731,359.2031 Q2348.8423,358.6221 2348.2488,358.3523 Q2347.6553,358.0825 2347.0244,358.0825 Q2345.6797,358.0825 2344.9949,359.1492 Q2344.3101,360.2158 2344.3101,362.3159 Q2344.3101,364.4077 2344.9949,365.4744 Q2345.6797,366.541 2347.0244,366.541 Q2347.6553,366.541 2348.2488,366.2712 Q2348.8423,366.0015 2349.4731,365.4204 Z "/><text fill="#000000" font-family="sans-serif" font-size="12" lengthAdjust="spacingAndGlyphs" textLength="121" x="2361" y="366.5352">MJRefreshBackFooter</text><line style="stroke: #A80036; stroke-width: 1.5;" x1="2333" x2="2484" y1="378" y2="378"/><line style="stroke: #A80036; stroke-width: 1.5;" x1="2333" x2="2484" y1="386" y2="386"/><!--class MJRefreshComponent--><rect fill="#FEFECE" filter="url(#f1ucn734gwkr3q)" height="48" id="MJRefreshComponent" style="stroke: #A80036; stroke-width: 1.5;" width="156" x="2239.5" y="8"/><ellipse cx="2254.5" cy="24" fill="#ADD1B2" rx="11" ry="11" style="stroke: #A80036; stroke-width: 1.0;"/><path d="M2256.9731,30.1431 Q2256.3921,30.4419 2255.7529,30.5913 Q2255.1138,30.7407 2254.4082,30.7407 Q2251.9014,30.7407 2250.5815,29.0889 Q2249.2617,27.437 2249.2617,24.3159 Q2249.2617,21.1865 2250.5815,19.5347 Q2251.9014,17.8828 2254.4082,17.8828 Q2255.1138,17.8828 2255.7612,18.0322 Q2256.4087,18.1816 2256.9731,18.4805 L2256.9731,21.2031 Q2256.3423,20.6221 2255.7488,20.3523 Q2255.1553,20.0825 2254.5244,20.0825 Q2253.1797,20.0825 2252.4949,21.1492 Q2251.8101,22.2158 2251.8101,24.3159 Q2251.8101,26.4077 2252.4949,27.4744 Q2253.1797,28.541 2254.5244,28.541 Q2255.1553,28.541 2255.7488,28.2712 Q2256.3423,28.0015 2256.9731,27.4204 Z "/><text fill="#000000" font-family="sans-serif" font-size="12" lengthAdjust="spacingAndGlyphs" textLength="124" x="2268.5" y="28.5352">MJRefreshComponent</text><line style="stroke: #A80036; stroke-width: 1.5;" x1="2240.5" x2="2394.5" y1="40" y2="40"/><line style="stroke: #A80036; stroke-width: 1.5;" x1="2240.5" x2="2394.5" y1="48" y2="48"/><!--class MJRefreshHeader--><rect fill="#FEFECE" filter="url(#f1ucn734gwkr3q)" height="48" id="MJRefreshHeader" style="stroke: #A80036; stroke-width: 1.5;" width="133" x="2159" y="177"/><ellipse cx="2174" cy="193" fill="#ADD1B2" rx="11" ry="11" style="stroke: #A80036; stroke-width: 1.0;"/><path d="M2176.4731,199.1431 Q2175.8921,199.4419 2175.2529,199.5913 Q2174.6138,199.7407 2173.9082,199.7407 Q2171.4014,199.7407 2170.0815,198.0889 Q2168.7617,196.437 2168.7617,193.3159 Q2168.7617,190.1865 2170.0815,188.5347 Q2171.4014,186.8828 2173.9082,186.8828 Q2174.6138,186.8828 2175.2612,187.0322 Q2175.9087,187.1816 2176.4731,187.4805 L2176.4731,190.2031 Q2175.8423,189.6221 2175.2488,189.3523 Q2174.6553,189.0825 2174.0244,189.0825 Q2172.6797,189.0825 2171.9949,190.1492 Q2171.3101,191.2158 2171.3101,193.3159 Q2171.3101,195.4077 2171.9949,196.4744 Q2172.6797,197.541 2174.0244,197.541 Q2174.6553,197.541 2175.2488,197.2712 Q2175.8423,197.0015 2176.4731,196.4204 Z "/><text fill="#000000" font-family="sans-serif" font-size="12" lengthAdjust="spacingAndGlyphs" textLength="101" x="2188" y="197.5352">MJRefreshHeader</text><line style="stroke: #A80036; stroke-width: 1.5;" x1="2160" x2="2291" y1="209" y2="209"/><line style="stroke: #A80036; stroke-width: 1.5;" x1="2160" x2="2291" y1="217" y2="217"/><!--class MJRefreshAutoGifFooter--><rect fill="#FEFECE" filter="url(#f1ucn734gwkr3q)" height="48" id="MJRefreshAutoGifFooter" style="stroke: #A80036; stroke-width: 1.5;" width="168" x="2505.5" y="684"/><ellipse cx="2520.5" cy="700" fill="#ADD1B2" rx="11" ry="11" style="stroke: #A80036; stroke-width: 1.0;"/><path d="M2522.9731,706.1431 Q2522.3921,706.4419 2521.7529,706.5913 Q2521.1138,706.7407 2520.4082,706.7407 Q2517.9014,706.7407 2516.5815,705.0889 Q2515.2617,703.437 2515.2617,700.3159 Q2515.2617,697.1865 2516.5815,695.5347 Q2517.9014,693.8828 2520.4082,693.8828 Q2521.1138,693.8828 2521.7612,694.0322 Q2522.4087,694.1816 2522.9731,694.4805 L2522.9731,697.2031 Q2522.3423,696.6221 2521.7488,696.3523 Q2521.1553,696.0825 2520.5244,696.0825 Q2519.1797,696.0825 2518.4949,697.1492 Q2517.8101,698.2158 2517.8101,700.3159 Q2517.8101,702.4077 2518.4949,703.4744 Q2519.1797,704.541 2520.5244,704.541 Q2521.1553,704.541 2521.7488,704.2712 Q2522.3423,704.0015 2522.9731,703.4204 Z "/><text fill="#000000" font-family="sans-serif" font-size="12" lengthAdjust="spacingAndGlyphs" textLength="136" x="2534.5" y="704.5352">MJRefreshAutoGifFooter</text><line style="stroke: #A80036; stroke-width: 1.5;" x1="2506.5" x2="2672.5" y1="716" y2="716"/><line style="stroke: #A80036; stroke-width: 1.5;" x1="2506.5" x2="2672.5" y1="724" y2="724"/><!--class MJRefreshAutoStateFooter--><rect fill="#FEFECE" filter="url(#f1ucn734gwkr3q)" height="48" id="MJRefreshAutoStateFooter" style="stroke: #A80036; stroke-width: 1.5;" width="180" x="2540.5" y="515"/><ellipse cx="2555.5" cy="531" fill="#ADD1B2" rx="11" ry="11" style="stroke: #A80036; stroke-width: 1.0;"/><path d="M2557.9731,537.1431 Q2557.3921,537.4419 2556.7529,537.5913 Q2556.1138,537.7407 2555.4082,537.7407 Q2552.9014,537.7407 2551.5815,536.0889 Q2550.2617,534.437 2550.2617,531.3159 Q2550.2617,528.1865 2551.5815,526.5347 Q2552.9014,524.8828 2555.4082,524.8828 Q2556.1138,524.8828 2556.7612,525.0322 Q2557.4087,525.1816 2557.9731,525.4805 L2557.9731,528.2031 Q2557.3423,527.6221 2556.7488,527.3523 Q2556.1553,527.0825 2555.5244,527.0825 Q2554.1797,527.0825 2553.4949,528.1492 Q2552.8101,529.2158 2552.8101,531.3159 Q2552.8101,533.4077 2553.4949,534.4744 Q2554.1797,535.541 2555.5244,535.541 Q2556.1553,535.541 2556.7488,535.2712 Q2557.3423,535.0015 2557.9731,534.4204 Z "/><text fill="#000000" font-family="sans-serif" font-size="12" lengthAdjust="spacingAndGlyphs" textLength="148" x="2569.5" y="535.5352">MJRefreshAutoStateFooter</text><line style="stroke: #A80036; stroke-width: 1.5;" x1="2541.5" x2="2719.5" y1="547" y2="547"/><line style="stroke: #A80036; stroke-width: 1.5;" x1="2541.5" x2="2719.5" y1="555" y2="555"/><!--class MJRefreshAutoNormalFooter--><rect fill="#FEFECE" filter="url(#f1ucn734gwkr3q)" height="48" id="MJRefreshAutoNormalFooter" style="stroke: #A80036; stroke-width: 1.5;" width="194" x="2708.5" y="684"/><ellipse cx="2723.5" cy="700" fill="#ADD1B2" rx="11" ry="11" style="stroke: #A80036; stroke-width: 1.0;"/><path d="M2725.9731,706.1431 Q2725.3921,706.4419 2724.7529,706.5913 Q2724.1138,706.7407 2723.4082,706.7407 Q2720.9014,706.7407 2719.5815,705.0889 Q2718.2617,703.437 2718.2617,700.3159 Q2718.2617,697.1865 2719.5815,695.5347 Q2720.9014,693.8828 2723.4082,693.8828 Q2724.1138,693.8828 2724.7612,694.0322 Q2725.4087,694.1816 2725.9731,694.4805 L2725.9731,697.2031 Q2725.3423,696.6221 2724.7488,696.3523 Q2724.1553,696.0825 2723.5244,696.0825 Q2722.1797,696.0825 2721.4949,697.1492 Q2720.8101,698.2158 2720.8101,700.3159 Q2720.8101,702.4077 2721.4949,703.4744 Q2722.1797,704.541 2723.5244,704.541 Q2724.1553,704.541 2724.7488,704.2712 Q2725.3423,704.0015 2725.9731,703.4204 Z "/><text fill="#000000" font-family="sans-serif" font-size="12" lengthAdjust="spacingAndGlyphs" textLength="162" x="2737.5" y="704.5352">MJRefreshAutoNormalFooter</text><line style="stroke: #A80036; stroke-width: 1.5;" x1="2709.5" x2="2901.5" y1="716" y2="716"/><line style="stroke: #A80036; stroke-width: 1.5;" x1="2709.5" x2="2901.5" y1="724" y2="724"/><!--class MJRefreshBackGifFooter--><rect fill="#FEFECE" filter="url(#f1ucn734gwkr3q)" height="48" id="MJRefreshBackGifFooter" style="stroke: #A80036; stroke-width: 1.5;" width="169" x="1990" y="684"/><ellipse cx="2005" cy="700" fill="#ADD1B2" rx="11" ry="11" style="stroke: #A80036; stroke-width: 1.0;"/><path d="M2007.4731,706.1431 Q2006.8921,706.4419 2006.2529,706.5913 Q2005.6138,706.7407 2004.9082,706.7407 Q2002.4014,706.7407 2001.0815,705.0889 Q1999.7617,703.437 1999.7617,700.3159 Q1999.7617,697.1865 2001.0815,695.5347 Q2002.4014,693.8828 2004.9082,693.8828 Q2005.6138,693.8828 2006.2612,694.0322 Q2006.9087,694.1816 2007.4731,694.4805 L2007.4731,697.2031 Q2006.8423,696.6221 2006.2488,696.3523 Q2005.6553,696.0825 2005.0244,696.0825 Q2003.6797,696.0825 2002.9949,697.1492 Q2002.3101,698.2158 2002.3101,700.3159 Q2002.3101,702.4077 2002.9949,703.4744 Q2003.6797,704.541 2005.0244,704.541 Q2005.6553,704.541 2006.2488,704.2712 Q2006.8423,704.0015 2007.4731,703.4204 Z "/><text fill="#000000" font-family="sans-serif" font-size="12" lengthAdjust="spacingAndGlyphs" textLength="137" x="2019" y="704.5352">MJRefreshBackGifFooter</text><line style="stroke: #A80036; stroke-width: 1.5;" x1="1991" x2="2158" y1="716" y2="716"/><line style="stroke: #A80036; stroke-width: 1.5;" x1="1991" x2="2158" y1="724" y2="724"/><!--class MJRefreshBackStateFooter--><rect fill="#FEFECE" filter="url(#f1ucn734gwkr3q)" height="48" id="MJRefreshBackStateFooter" style="stroke: #A80036; stroke-width: 1.5;" width="181" x="2161" y="515"/><ellipse cx="2176" cy="531" fill="#ADD1B2" rx="11" ry="11" style="stroke: #A80036; stroke-width: 1.0;"/><path d="M2178.4731,537.1431 Q2177.8921,537.4419 2177.2529,537.5913 Q2176.6138,537.7407 2175.9082,537.7407 Q2173.4014,537.7407 2172.0815,536.0889 Q2170.7617,534.437 2170.7617,531.3159 Q2170.7617,528.1865 2172.0815,526.5347 Q2173.4014,524.8828 2175.9082,524.8828 Q2176.6138,524.8828 2177.2612,525.0322 Q2177.9087,525.1816 2178.4731,525.4805 L2178.4731,528.2031 Q2177.8423,527.6221 2177.2488,527.3523 Q2176.6553,527.0825 2176.0244,527.0825 Q2174.6797,527.0825 2173.9949,528.1492 Q2173.3101,529.2158 2173.3101,531.3159 Q2173.3101,533.4077 2173.9949,534.4744 Q2174.6797,535.541 2176.0244,535.541 Q2176.6553,535.541 2177.2488,535.2712 Q2177.8423,535.0015 2178.4731,534.4204 Z "/><text fill="#000000" font-family="sans-serif" font-size="12" lengthAdjust="spacingAndGlyphs" textLength="149" x="2190" y="535.5352">MJRefreshBackStateFooter</text><line style="stroke: #A80036; stroke-width: 1.5;" x1="2162" x2="2341" y1="547" y2="547"/><line style="stroke: #A80036; stroke-width: 1.5;" x1="2162" x2="2341" y1="555" y2="555"/><!--class MJRefreshBackNormalFooter--><rect fill="#FEFECE" filter="url(#f1ucn734gwkr3q)" height="48" id="MJRefreshBackNormalFooter" style="stroke: #A80036; stroke-width: 1.5;" width="195" x="2194" y="684"/><ellipse cx="2209" cy="700" fill="#ADD1B2" rx="11" ry="11" style="stroke: #A80036; stroke-width: 1.0;"/><path d="M2211.4731,706.1431 Q2210.8921,706.4419 2210.2529,706.5913 Q2209.6138,706.7407 2208.9082,706.7407 Q2206.4014,706.7407 2205.0815,705.0889 Q2203.7617,703.437 2203.7617,700.3159 Q2203.7617,697.1865 2205.0815,695.5347 Q2206.4014,693.8828 2208.9082,693.8828 Q2209.6138,693.8828 2210.2612,694.0322 Q2210.9087,694.1816 2211.4731,694.4805 L2211.4731,697.2031 Q2210.8423,696.6221 2210.2488,696.3523 Q2209.6553,696.0825 2209.0244,696.0825 Q2207.6797,696.0825 2206.9949,697.1492 Q2206.3101,698.2158 2206.3101,700.3159 Q2206.3101,702.4077 2206.9949,703.4744 Q2207.6797,704.541 2209.0244,704.541 Q2209.6553,704.541 2210.2488,704.2712 Q2210.8423,704.0015 2211.4731,703.4204 Z "/><text fill="#000000" font-family="sans-serif" font-size="12" lengthAdjust="spacingAndGlyphs" textLength="163" x="2223" y="704.5352">MJRefreshBackNormalFooter</text><line style="stroke: #A80036; stroke-width: 1.5;" x1="2195" x2="2388" y1="716" y2="716"/><line style="stroke: #A80036; stroke-width: 1.5;" x1="2195" x2="2388" y1="724" y2="724"/><!--class MJRefreshGifHeader--><rect fill="#FEFECE" filter="url(#f1ucn734gwkr3q)" height="48" id="MJRefreshGifHeader" style="stroke: #A80036; stroke-width: 1.5;" width="149" x="1767" y="515"/><ellipse cx="1782" cy="531" fill="#ADD1B2" rx="11" ry="11" style="stroke: #A80036; stroke-width: 1.0;"/><path d="M1784.4731,537.1431 Q1783.8921,537.4419 1783.2529,537.5913 Q1782.6138,537.7407 1781.9082,537.7407 Q1779.4014,537.7407 1778.0815,536.0889 Q1776.7617,534.437 1776.7617,531.3159 Q1776.7617,528.1865 1778.0815,526.5347 Q1779.4014,524.8828 1781.9082,524.8828 Q1782.6138,524.8828 1783.2612,525.0322 Q1783.9087,525.1816 1784.4731,525.4805 L1784.4731,528.2031 Q1783.8423,527.6221 1783.2488,527.3523 Q1782.6553,527.0825 1782.0244,527.0825 Q1780.6797,527.0825 1779.9949,528.1492 Q1779.3101,529.2158 1779.3101,531.3159 Q1779.3101,533.4077 1779.9949,534.4744 Q1780.6797,535.541 1782.0244,535.541 Q1782.6553,535.541 1783.2488,535.2712 Q1783.8423,535.0015 1784.4731,534.4204 Z "/><text fill="#000000" font-family="sans-serif" font-size="12" lengthAdjust="spacingAndGlyphs" textLength="117" x="1796" y="535.5352">MJRefreshGifHeader</text><line style="stroke: #A80036; stroke-width: 1.5;" x1="1768" x2="1915" y1="547" y2="547"/><line style="stroke: #A80036; stroke-width: 1.5;" x1="1768" x2="1915" y1="555" y2="555"/><!--class MJRefreshStateHeader--><rect fill="#FEFECE" filter="url(#f1ucn734gwkr3q)" height="48" id="MJRefreshStateHeader" style="stroke: #A80036; stroke-width: 1.5;" width="161" x="1958" y="346"/><ellipse cx="1973" cy="362" fill="#ADD1B2" rx="11" ry="11" style="stroke: #A80036; stroke-width: 1.0;"/><path d="M1975.4731,368.1431 Q1974.8921,368.4419 1974.2529,368.5913 Q1973.6138,368.7407 1972.9082,368.7407 Q1970.4014,368.7407 1969.0815,367.0889 Q1967.7617,365.437 1967.7617,362.3159 Q1967.7617,359.1865 1969.0815,357.5347 Q1970.4014,355.8828 1972.9082,355.8828 Q1973.6138,355.8828 1974.2612,356.0322 Q1974.9087,356.1816 1975.4731,356.4805 L1975.4731,359.2031 Q1974.8423,358.6221 1974.2488,358.3523 Q1973.6553,358.0825 1973.0244,358.0825 Q1971.6797,358.0825 1970.9949,359.1492 Q1970.3101,360.2158 1970.3101,362.3159 Q1970.3101,364.4077 1970.9949,365.4744 Q1971.6797,366.541 1973.0244,366.541 Q1973.6553,366.541 1974.2488,366.2712 Q1974.8423,366.0015 1975.4731,365.4204 Z "/><text fill="#000000" font-family="sans-serif" font-size="12" lengthAdjust="spacingAndGlyphs" textLength="129" x="1987" y="366.5352">MJRefreshStateHeader</text><line style="stroke: #A80036; stroke-width: 1.5;" x1="1959" x2="2118" y1="378" y2="378"/><line style="stroke: #A80036; stroke-width: 1.5;" x1="1959" x2="2118" y1="386" y2="386"/><!--class MJRefreshNormalHeader--><rect fill="#FEFECE" filter="url(#f1ucn734gwkr3q)" height="48" id="MJRefreshNormalHeader" style="stroke: #A80036; stroke-width: 1.5;" width="175" x="1951" y="515"/><ellipse cx="1966" cy="531" fill="#ADD1B2" rx="11" ry="11" style="stroke: #A80036; stroke-width: 1.0;"/><path d="M1968.4731,537.1431 Q1967.8921,537.4419 1967.2529,537.5913 Q1966.6138,537.7407 1965.9082,537.7407 Q1963.4014,537.7407 1962.0815,536.0889 Q1960.7617,534.437 1960.7617,531.3159 Q1960.7617,528.1865 1962.0815,526.5347 Q1963.4014,524.8828 1965.9082,524.8828 Q1966.6138,524.8828 1967.2612,525.0322 Q1967.9087,525.1816 1968.4731,525.4805 L1968.4731,528.2031 Q1967.8423,527.6221 1967.2488,527.3523 Q1966.6553,527.0825 1966.0244,527.0825 Q1964.6797,527.0825 1963.9949,528.1492 Q1963.3101,529.2158 1963.3101,531.3159 Q1963.3101,533.4077 1963.9949,534.4744 Q1964.6797,535.541 1966.0244,535.541 Q1966.6553,535.541 1967.2488,535.2712 Q1967.8423,535.0015 1968.4731,534.4204 Z "/><text fill="#000000" font-family="sans-serif" font-size="12" lengthAdjust="spacingAndGlyphs" textLength="143" x="1980" y="535.5352">MJRefreshNormalHeader</text><line style="stroke: #A80036; stroke-width: 1.5;" x1="1952" x2="2125" y1="547" y2="547"/><line style="stroke: #A80036; stroke-width: 1.5;" x1="1952" x2="2125" y1="555" y2="555"/><!--class MJChiBaoZiFooter--><rect fill="#FEFECE" filter="url(#f1ucn734gwkr3q)" height="48" id="MJChiBaoZiFooter" style="stroke: #A80036; stroke-width: 1.5;" width="131" x="2524" y="853"/><ellipse cx="2539" cy="869" fill="#ADD1B2" rx="11" ry="11" style="stroke: #A80036; stroke-width: 1.0;"/><path d="M2541.4731,875.1431 Q2540.8921,875.4419 2540.2529,875.5913 Q2539.6138,875.7407 2538.9082,875.7407 Q2536.4014,875.7407 2535.0815,874.0889 Q2533.7617,872.437 2533.7617,869.3159 Q2533.7617,866.1865 2535.0815,864.5347 Q2536.4014,862.8828 2538.9082,862.8828 Q2539.6138,862.8828 2540.2612,863.0322 Q2540.9087,863.1816 2541.4731,863.4805 L2541.4731,866.2031 Q2540.8423,865.6221 2540.2488,865.3523 Q2539.6553,865.0825 2539.0244,865.0825 Q2537.6797,865.0825 2536.9949,866.1492 Q2536.3101,867.2158 2536.3101,869.3159 Q2536.3101,871.4077 2536.9949,872.4744 Q2537.6797,873.541 2539.0244,873.541 Q2539.6553,873.541 2540.2488,873.2712 Q2540.8423,873.0015 2541.4731,872.4204 Z "/><text fill="#000000" font-family="sans-serif" font-size="12" lengthAdjust="spacingAndGlyphs" textLength="99" x="2553" y="873.5352">MJChiBaoZiFooter</text><line style="stroke: #A80036; stroke-width: 1.5;" x1="2525" x2="2654" y1="885" y2="885"/><line style="stroke: #A80036; stroke-width: 1.5;" x1="2525" x2="2654" y1="893" y2="893"/><!--class MJChiBaoZiFooter2--><rect fill="#FEFECE" filter="url(#f1ucn734gwkr3q)" height="48" id="MJChiBaoZiFooter2" style="stroke: #A80036; stroke-width: 1.5;" width="139" x="2005" y="853"/><ellipse cx="2020" cy="869" fill="#ADD1B2" rx="11" ry="11" style="stroke: #A80036; stroke-width: 1.0;"/><path d="M2022.4731,875.1431 Q2021.8921,875.4419 2021.2529,875.5913 Q2020.6138,875.7407 2019.9082,875.7407 Q2017.4014,875.7407 2016.0815,874.0889 Q2014.7617,872.437 2014.7617,869.3159 Q2014.7617,866.1865 2016.0815,864.5347 Q2017.4014,862.8828 2019.9082,862.8828 Q2020.6138,862.8828 2021.2612,863.0322 Q2021.9087,863.1816 2022.4731,863.4805 L2022.4731,866.2031 Q2021.8423,865.6221 2021.2488,865.3523 Q2020.6553,865.0825 2020.0244,865.0825 Q2018.6797,865.0825 2017.9949,866.1492 Q2017.3101,867.2158 2017.3101,869.3159 Q2017.3101,871.4077 2017.9949,872.4744 Q2018.6797,873.541 2020.0244,873.541 Q2020.6553,873.541 2021.2488,873.2712 Q2021.8423,873.0015 2022.4731,872.4204 Z "/><text fill="#000000" font-family="sans-serif" font-size="12" lengthAdjust="spacingAndGlyphs" textLength="107" x="2034" y="873.5352">MJChiBaoZiFooter2</text><line style="stroke: #A80036; stroke-width: 1.5;" x1="2006" x2="2143" y1="885" y2="885"/><line style="stroke: #A80036; stroke-width: 1.5;" x1="2006" x2="2143" y1="893" y2="893"/><!--class MJChiBaoZiHeader--><rect fill="#FEFECE" filter="url(#f1ucn734gwkr3q)" height="48" id="MJChiBaoZiHeader" style="stroke: #A80036; stroke-width: 1.5;" width="138" x="1772.5" y="684"/><ellipse cx="1787.5" cy="700" fill="#ADD1B2" rx="11" ry="11" style="stroke: #A80036; stroke-width: 1.0;"/><path d="M1789.9731,706.1431 Q1789.3921,706.4419 1788.7529,706.5913 Q1788.1138,706.7407 1787.4082,706.7407 Q1784.9014,706.7407 1783.5815,705.0889 Q1782.2617,703.437 1782.2617,700.3159 Q1782.2617,697.1865 1783.5815,695.5347 Q1784.9014,693.8828 1787.4082,693.8828 Q1788.1138,693.8828 1788.7612,694.0322 Q1789.4087,694.1816 1789.9731,694.4805 L1789.9731,697.2031 Q1789.3423,696.6221 1788.7488,696.3523 Q1788.1553,696.0825 1787.5244,696.0825 Q1786.1797,696.0825 1785.4949,697.1492 Q1784.8101,698.2158 1784.8101,700.3159 Q1784.8101,702.4077 1785.4949,703.4744 Q1786.1797,704.541 1787.5244,704.541 Q1788.1553,704.541 1788.7488,704.2712 Q1789.3423,704.0015 1789.9731,703.4204 Z "/><text fill="#000000" font-family="sans-serif" font-size="12" lengthAdjust="spacingAndGlyphs" textLength="106" x="1801.5" y="704.5352">MJChiBaoZiHeader</text><line style="stroke: #A80036; stroke-width: 1.5;" x1="1773.5" x2="1909.5" y1="716" y2="716"/><line style="stroke: #A80036; stroke-width: 1.5;" x1="1773.5" x2="1909.5" y1="724" y2="724"/><!--class MJDIYAutoFooter--><rect fill="#FEFECE" filter="url(#f1ucn734gwkr3q)" height="48" id="MJDIYAutoFooter" style="stroke: #A80036; stroke-width: 1.5;" width="127" x="2756" y="515"/><ellipse cx="2771" cy="531" fill="#ADD1B2" rx="11" ry="11" style="stroke: #A80036; stroke-width: 1.0;"/><path d="M2773.4731,537.1431 Q2772.8921,537.4419 2772.2529,537.5913 Q2771.6138,537.7407 2770.9082,537.7407 Q2768.4014,537.7407 2767.0815,536.0889 Q2765.7617,534.437 2765.7617,531.3159 Q2765.7617,528.1865 2767.0815,526.5347 Q2768.4014,524.8828 2770.9082,524.8828 Q2771.6138,524.8828 2772.2612,525.0322 Q2772.9087,525.1816 2773.4731,525.4805 L2773.4731,528.2031 Q2772.8423,527.6221 2772.2488,527.3523 Q2771.6553,527.0825 2771.0244,527.0825 Q2769.6797,527.0825 2768.9949,528.1492 Q2768.3101,529.2158 2768.3101,531.3159 Q2768.3101,533.4077 2768.9949,534.4744 Q2769.6797,535.541 2771.0244,535.541 Q2771.6553,535.541 2772.2488,535.2712 Q2772.8423,535.0015 2773.4731,534.4204 Z "/><text fill="#000000" font-family="sans-serif" font-size="12" lengthAdjust="spacingAndGlyphs" textLength="95" x="2785" y="535.5352">MJDIYAutoFooter</text><line style="stroke: #A80036; stroke-width: 1.5;" x1="2757" x2="2882" y1="547" y2="547"/><line style="stroke: #A80036; stroke-width: 1.5;" x1="2757" x2="2882" y1="555" y2="555"/><!--class MJDIYBackFooter--><rect fill="#FEFECE" filter="url(#f1ucn734gwkr3q)" height="48" id="MJDIYBackFooter" style="stroke: #A80036; stroke-width: 1.5;" width="128" x="2377.5" y="515"/><ellipse cx="2392.5" cy="531" fill="#ADD1B2" rx="11" ry="11" style="stroke: #A80036; stroke-width: 1.0;"/><path d="M2394.9731,537.1431 Q2394.3921,537.4419 2393.7529,537.5913 Q2393.1138,537.7407 2392.4082,537.7407 Q2389.9014,537.7407 2388.5815,536.0889 Q2387.2617,534.437 2387.2617,531.3159 Q2387.2617,528.1865 2388.5815,526.5347 Q2389.9014,524.8828 2392.4082,524.8828 Q2393.1138,524.8828 2393.7612,525.0322 Q2394.4087,525.1816 2394.9731,525.4805 L2394.9731,528.2031 Q2394.3423,527.6221 2393.7488,527.3523 Q2393.1553,527.0825 2392.5244,527.0825 Q2391.1797,527.0825 2390.4949,528.1492 Q2389.8101,529.2158 2389.8101,531.3159 Q2389.8101,533.4077 2390.4949,534.4744 Q2391.1797,535.541 2392.5244,535.541 Q2393.1553,535.541 2393.7488,535.2712 Q2394.3423,535.0015 2394.9731,534.4204 Z "/><text fill="#000000" font-family="sans-serif" font-size="12" lengthAdjust="spacingAndGlyphs" textLength="96" x="2406.5" y="535.5352">MJDIYBackFooter</text><line style="stroke: #A80036; stroke-width: 1.5;" x1="2378.5" x2="2504.5" y1="547" y2="547"/><line style="stroke: #A80036; stroke-width: 1.5;" x1="2378.5" x2="2504.5" y1="555" y2="555"/><!--class MJDIYHeader--><rect fill="#FEFECE" filter="url(#f1ucn734gwkr3q)" height="48" id="MJDIYHeader" style="stroke: #A80036; stroke-width: 1.5;" width="108" x="2171.5" y="346"/><ellipse cx="2186.5" cy="362" fill="#ADD1B2" rx="11" ry="11" style="stroke: #A80036; stroke-width: 1.0;"/><path d="M2188.9731,368.1431 Q2188.3921,368.4419 2187.7529,368.5913 Q2187.1138,368.7407 2186.4082,368.7407 Q2183.9014,368.7407 2182.5815,367.0889 Q2181.2617,365.437 2181.2617,362.3159 Q2181.2617,359.1865 2182.5815,357.5347 Q2183.9014,355.8828 2186.4082,355.8828 Q2187.1138,355.8828 2187.7612,356.0322 Q2188.4087,356.1816 2188.9731,356.4805 L2188.9731,359.2031 Q2188.3423,358.6221 2187.7488,358.3523 Q2187.1553,358.0825 2186.5244,358.0825 Q2185.1797,358.0825 2184.4949,359.1492 Q2183.8101,360.2158 2183.8101,362.3159 Q2183.8101,364.4077 2184.4949,365.4744 Q2185.1797,366.541 2186.5244,366.541 Q2187.1553,366.541 2187.7488,366.2712 Q2188.3423,366.0015 2188.9731,365.4204 Z "/><text fill="#000000" font-family="sans-serif" font-size="12" lengthAdjust="spacingAndGlyphs" textLength="76" x="2200.5" y="366.5352">MJDIYHeader</text><line style="stroke: #A80036; stroke-width: 1.5;" x1="2172.5" x2="2278.5" y1="378" y2="378"/><line style="stroke: #A80036; stroke-width: 1.5;" x1="2172.5" x2="2278.5" y1="386" y2="386"/><!--class MJExampleViewController--><rect fill="#FEFECE" filter="url(#f1ucn734gwkr3q)" height="48" id="MJExampleViewController" style="stroke: #A80036; stroke-width: 1.5;" width="179" x="816" y="177"/><ellipse cx="831" cy="193" fill="#ADD1B2" rx="11" ry="11" style="stroke: #A80036; stroke-width: 1.0;"/><path d="M833.4731,199.1431 Q832.8921,199.4419 832.2529,199.5913 Q831.6138,199.7407 830.9082,199.7407 Q828.4014,199.7407 827.0815,198.0889 Q825.7617,196.437 825.7617,193.3159 Q825.7617,190.1865 827.0815,188.5347 Q828.4014,186.8828 830.9082,186.8828 Q831.6138,186.8828 832.2612,187.0322 Q832.9087,187.1816 833.4731,187.4805 L833.4731,190.2031 Q832.8423,189.6221 832.2488,189.3523 Q831.6553,189.0825 831.0244,189.0825 Q829.6797,189.0825 828.9949,190.1492 Q828.3101,191.2158 828.3101,193.3159 Q828.3101,195.4077 828.9949,196.4744 Q829.6797,197.541 831.0244,197.541 Q831.6553,197.541 832.2488,197.2712 Q832.8423,197.0015 833.4731,196.4204 Z "/><text fill="#000000" font-family="sans-serif" font-size="12" lengthAdjust="spacingAndGlyphs" textLength="147" x="845" y="197.5352">MJExampleViewController</text><line style="stroke: #A80036; stroke-width: 1.5;" x1="817" x2="994" y1="209" y2="209"/><line style="stroke: #A80036; stroke-width: 1.5;" x1="817" x2="994" y1="217" y2="217"/><!--class UITableViewController--><rect fill="#FEFECE" filter="url(#f1ucn734gwkr3q)" height="48" id="UITableViewController" style="stroke: #A80036; stroke-width: 1.5;" width="159" x="1032" y="8"/><ellipse cx="1047" cy="24" fill="#ADD1B2" rx="11" ry="11" style="stroke: #A80036; stroke-width: 1.0;"/><path d="M1049.4731,30.1431 Q1048.8921,30.4419 1048.2529,30.5913 Q1047.6138,30.7407 1046.9082,30.7407 Q1044.4014,30.7407 1043.0815,29.0889 Q1041.7617,27.437 1041.7617,24.3159 Q1041.7617,21.1865 1043.0815,19.5347 Q1044.4014,17.8828 1046.9082,17.8828 Q1047.6138,17.8828 1048.2612,18.0322 Q1048.9087,18.1816 1049.4731,18.4805 L1049.4731,21.2031 Q1048.8423,20.6221 1048.2488,20.3523 Q1047.6553,20.0825 1047.0244,20.0825 Q1045.6797,20.0825 1044.9949,21.1492 Q1044.3101,22.2158 1044.3101,24.3159 Q1044.3101,26.4077 1044.9949,27.4744 Q1045.6797,28.541 1047.0244,28.541 Q1047.6553,28.541 1048.2488,28.2712 Q1048.8423,28.0015 1049.4731,27.4204 Z "/><text fill="#000000" font-family="sans-serif" font-size="12" lengthAdjust="spacingAndGlyphs" textLength="127" x="1061" y="28.5352">UITableViewController</text><line style="stroke: #A80036; stroke-width: 1.5;" x1="1033" x2="1190" y1="40" y2="40"/><line style="stroke: #A80036; stroke-width: 1.5;" x1="1033" x2="1190" y1="48" y2="48"/><!--class MJExampleWindow--><rect fill="#FEFECE" filter="url(#f1ucn734gwkr3q)" height="48" id="MJExampleWindow" style="stroke: #A80036; stroke-width: 1.5;" width="140" x="1983.5" y="177"/><ellipse cx="1998.5" cy="193" fill="#ADD1B2" rx="11" ry="11" style="stroke: #A80036; stroke-width: 1.0;"/><path d="M2000.9731,199.1431 Q2000.3921,199.4419 1999.7529,199.5913 Q1999.1138,199.7407 1998.4082,199.7407 Q1995.9014,199.7407 1994.5815,198.0889 Q1993.2617,196.437 1993.2617,193.3159 Q1993.2617,190.1865 1994.5815,188.5347 Q1995.9014,186.8828 1998.4082,186.8828 Q1999.1138,186.8828 1999.7612,187.0322 Q2000.4087,187.1816 2000.9731,187.4805 L2000.9731,190.2031 Q2000.3423,189.6221 1999.7488,189.3523 Q1999.1553,189.0825 1998.5244,189.0825 Q1997.1797,189.0825 1996.4949,190.1492 Q1995.8101,191.2158 1995.8101,193.3159 Q1995.8101,195.4077 1996.4949,196.4744 Q1997.1797,197.541 1998.5244,197.541 Q1999.1553,197.541 1999.7488,197.2712 Q2000.3423,197.0015 2000.9731,196.4204 Z "/><text fill="#000000" font-family="sans-serif" font-size="12" lengthAdjust="spacingAndGlyphs" textLength="108" x="2012.5" y="197.5352">MJExampleWindow</text><line style="stroke: #A80036; stroke-width: 1.5;" x1="1984.5" x2="2122.5" y1="209" y2="209"/><line style="stroke: #A80036; stroke-width: 1.5;" x1="1984.5" x2="2122.5" y1="217" y2="217"/><!--class UIWindow--><rect fill="#FEFECE" filter="url(#f1ucn734gwkr3q)" height="48" id="UIWindow" style="stroke: #A80036; stroke-width: 1.5;" width="87" x="2010" y="8"/><ellipse cx="2025" cy="24" fill="#ADD1B2" rx="11" ry="11" style="stroke: #A80036; stroke-width: 1.0;"/><path d="M2027.4731,30.1431 Q2026.8921,30.4419 2026.2529,30.5913 Q2025.6138,30.7407 2024.9082,30.7407 Q2022.4014,30.7407 2021.0815,29.0889 Q2019.7617,27.437 2019.7617,24.3159 Q2019.7617,21.1865 2021.0815,19.5347 Q2022.4014,17.8828 2024.9082,17.8828 Q2025.6138,17.8828 2026.2612,18.0322 Q2026.9087,18.1816 2027.4731,18.4805 L2027.4731,21.2031 Q2026.8423,20.6221 2026.2488,20.3523 Q2025.6553,20.0825 2025.0244,20.0825 Q2023.6797,20.0825 2022.9949,21.1492 Q2022.3101,22.2158 2022.3101,24.3159 Q2022.3101,26.4077 2022.9949,27.4744 Q2023.6797,28.541 2025.0244,28.541 Q2025.6553,28.541 2026.2488,28.2712 Q2026.8423,28.0015 2027.4731,27.4204 Z "/><text fill="#000000" font-family="sans-serif" font-size="12" lengthAdjust="spacingAndGlyphs" textLength="55" x="2039" y="28.5352">UIWindow</text><line style="stroke: #A80036; stroke-width: 1.5;" x1="2011" x2="2096" y1="40" y2="40"/><line style="stroke: #A80036; stroke-width: 1.5;" x1="2011" x2="2096" y1="48" y2="48"/><!--class MJNavigationController--><rect fill="#FEFECE" filter="url(#f1ucn734gwkr3q)" height="48" id="MJNavigationController" style="stroke: #A80036; stroke-width: 1.5;" width="162" x="1786.5" y="177"/><ellipse cx="1801.5" cy="193" fill="#ADD1B2" rx="11" ry="11" style="stroke: #A80036; stroke-width: 1.0;"/><path d="M1803.9731,199.1431 Q1803.3921,199.4419 1802.7529,199.5913 Q1802.1138,199.7407 1801.4082,199.7407 Q1798.9014,199.7407 1797.5815,198.0889 Q1796.2617,196.437 1796.2617,193.3159 Q1796.2617,190.1865 1797.5815,188.5347 Q1798.9014,186.8828 1801.4082,186.8828 Q1802.1138,186.8828 1802.7612,187.0322 Q1803.4087,187.1816 1803.9731,187.4805 L1803.9731,190.2031 Q1803.3423,189.6221 1802.7488,189.3523 Q1802.1553,189.0825 1801.5244,189.0825 Q1800.1797,189.0825 1799.4949,190.1492 Q1798.8101,191.2158 1798.8101,193.3159 Q1798.8101,195.4077 1799.4949,196.4744 Q1800.1797,197.541 1801.5244,197.541 Q1802.1553,197.541 1802.7488,197.2712 Q1803.3423,197.0015 1803.9731,196.4204 Z "/><text fill="#000000" font-family="sans-serif" font-size="12" lengthAdjust="spacingAndGlyphs" textLength="130" x="1815.5" y="197.5352">MJNavigationController</text><line style="stroke: #A80036; stroke-width: 1.5;" x1="1787.5" x2="1947.5" y1="209" y2="209"/><line style="stroke: #A80036; stroke-width: 1.5;" x1="1787.5" x2="1947.5" y1="217" y2="217"/><!--class UINavigationController--><rect fill="#FEFECE" filter="url(#f1ucn734gwkr3q)" height="48" id="UINavigationController" style="stroke: #A80036; stroke-width: 1.5;" width="159" x="1788" y="8"/><ellipse cx="1803" cy="24" fill="#ADD1B2" rx="11" ry="11" style="stroke: #A80036; stroke-width: 1.0;"/><path d="M1805.4731,30.1431 Q1804.8921,30.4419 1804.2529,30.5913 Q1803.6138,30.7407 1802.9082,30.7407 Q1800.4014,30.7407 1799.0815,29.0889 Q1797.7617,27.437 1797.7617,24.3159 Q1797.7617,21.1865 1799.0815,19.5347 Q1800.4014,17.8828 1802.9082,17.8828 Q1803.6138,17.8828 1804.2612,18.0322 Q1804.9087,18.1816 1805.4731,18.4805 L1805.4731,21.2031 Q1804.8423,20.6221 1804.2488,20.3523 Q1803.6553,20.0825 1803.0244,20.0825 Q1801.6797,20.0825 1800.9949,21.1492 Q1800.3101,22.2158 1800.3101,24.3159 Q1800.3101,26.4077 1800.9949,27.4744 Q1801.6797,28.541 1803.0244,28.541 Q1803.6553,28.541 1804.2488,28.2712 Q1804.8423,28.0015 1805.4731,27.4204 Z "/><text fill="#000000" font-family="sans-serif" font-size="12" lengthAdjust="spacingAndGlyphs" textLength="127" x="1817" y="28.5352">UINavigationController</text><line style="stroke: #A80036; stroke-width: 1.5;" x1="1789" x2="1946" y1="40" y2="40"/><line style="stroke: #A80036; stroke-width: 1.5;" x1="1789" x2="1946" y1="48" y2="48"/><!--class MJSingleViewController--><rect fill="#FEFECE" filter="url(#f1ucn734gwkr3q)" height="48" id="MJSingleViewController" style="stroke: #A80036; stroke-width: 1.5;" width="162" x="1030.5" y="177"/><ellipse cx="1045.5" cy="193" fill="#ADD1B2" rx="11" ry="11" style="stroke: #A80036; stroke-width: 1.0;"/><path d="M1047.9731,199.1431 Q1047.3921,199.4419 1046.7529,199.5913 Q1046.1138,199.7407 1045.4082,199.7407 Q1042.9014,199.7407 1041.5815,198.0889 Q1040.2617,196.437 1040.2617,193.3159 Q1040.2617,190.1865 1041.5815,188.5347 Q1042.9014,186.8828 1045.4082,186.8828 Q1046.1138,186.8828 1046.7612,187.0322 Q1047.4087,187.1816 1047.9731,187.4805 L1047.9731,190.2031 Q1047.3423,189.6221 1046.7488,189.3523 Q1046.1553,189.0825 1045.5244,189.0825 Q1044.1797,189.0825 1043.4949,190.1492 Q1042.8101,191.2158 1042.8101,193.3159 Q1042.8101,195.4077 1043.4949,196.4744 Q1044.1797,197.541 1045.5244,197.541 Q1046.1553,197.541 1046.7488,197.2712 Q1047.3423,197.0015 1047.9731,196.4204 Z "/><text fill="#000000" font-family="sans-serif" font-size="12" lengthAdjust="spacingAndGlyphs" textLength="130" x="1059.5" y="197.5352">MJSingleViewController</text><line style="stroke: #A80036; stroke-width: 1.5;" x1="1031.5" x2="1191.5" y1="209" y2="209"/><line style="stroke: #A80036; stroke-width: 1.5;" x1="1031.5" x2="1191.5" y1="217" y2="217"/><!--class MJTempViewController--><rect fill="#FEFECE" filter="url(#f1ucn734gwkr3q)" height="48" id="MJTempViewController" style="stroke: #A80036; stroke-width: 1.5;" width="163" x="212" y="177"/><ellipse cx="227" cy="193" fill="#ADD1B2" rx="11" ry="11" style="stroke: #A80036; stroke-width: 1.0;"/><path d="M229.4731,199.1431 Q228.8921,199.4419 228.2529,199.5913 Q227.6138,199.7407 226.9082,199.7407 Q224.4014,199.7407 223.0815,198.0889 Q221.7617,196.437 221.7617,193.3159 Q221.7617,190.1865 223.0815,188.5347 Q224.4014,186.8828 226.9082,186.8828 Q227.6138,186.8828 228.2612,187.0322 Q228.9087,187.1816 229.4731,187.4805 L229.4731,190.2031 Q228.8423,189.6221 228.2488,189.3523 Q227.6553,189.0825 227.0244,189.0825 Q225.6797,189.0825 224.9949,190.1492 Q224.3101,191.2158 224.3101,193.3159 Q224.3101,195.4077 224.9949,196.4744 Q225.6797,197.541 227.0244,197.541 Q227.6553,197.541 228.2488,197.2712 Q228.8423,197.0015 229.4731,196.4204 Z "/><text fill="#000000" font-family="sans-serif" font-size="12" lengthAdjust="spacingAndGlyphs" textLength="131" x="241" y="197.5352">MJTempViewController</text><line style="stroke: #A80036; stroke-width: 1.5;" x1="213" x2="374" y1="209" y2="209"/><line style="stroke: #A80036; stroke-width: 1.5;" x1="213" x2="374" y1="217" y2="217"/><!--class UIViewController--><rect fill="#FEFECE" filter="url(#f1ucn734gwkr3q)" height="48" id="UIViewController" style="stroke: #A80036; stroke-width: 1.5;" width="126" x="424.5" y="8"/><ellipse cx="439.5" cy="24" fill="#ADD1B2" rx="11" ry="11" style="stroke: #A80036; stroke-width: 1.0;"/><path d="M441.9731,30.1431 Q441.3921,30.4419 440.7529,30.5913 Q440.1138,30.7407 439.4082,30.7407 Q436.9014,30.7407 435.5815,29.0889 Q434.2617,27.437 434.2617,24.3159 Q434.2617,21.1865 435.5815,19.5347 Q436.9014,17.8828 439.4082,17.8828 Q440.1138,17.8828 440.7612,18.0322 Q441.4087,18.1816 441.9731,18.4805 L441.9731,21.2031 Q441.3423,20.6221 440.7488,20.3523 Q440.1553,20.0825 439.5244,20.0825 Q438.1797,20.0825 437.4949,21.1492 Q436.8101,22.2158 436.8101,24.3159 Q436.8101,26.4077 437.4949,27.4744 Q438.1797,28.541 439.5244,28.541 Q440.1553,28.541 440.7488,28.2712 Q441.3423,28.0015 441.9731,27.4204 Z "/><text fill="#000000" font-family="sans-serif" font-size="12" lengthAdjust="spacingAndGlyphs" textLength="94" x="453.5" y="28.5352">UIViewController</text><line style="stroke: #A80036; stroke-width: 1.5;" x1="425.5" x2="549.5" y1="40" y2="40"/><line style="stroke: #A80036; stroke-width: 1.5;" x1="425.5" x2="549.5" y1="48" y2="48"/><!--class AppDelegate--><rect fill="#FEFECE" filter="url(#f1ucn734gwkr3q)" height="48" id="AppDelegate" style="stroke: #A80036; stroke-width: 1.5;" width="107" x="1644" y="177"/><ellipse cx="1659" cy="193" fill="#ADD1B2" rx="11" ry="11" style="stroke: #A80036; stroke-width: 1.0;"/><path d="M1661.4731,199.1431 Q1660.8921,199.4419 1660.2529,199.5913 Q1659.6138,199.7407 1658.9082,199.7407 Q1656.4014,199.7407 1655.0815,198.0889 Q1653.7617,196.437 1653.7617,193.3159 Q1653.7617,190.1865 1655.0815,188.5347 Q1656.4014,186.8828 1658.9082,186.8828 Q1659.6138,186.8828 1660.2612,187.0322 Q1660.9087,187.1816 1661.4731,187.4805 L1661.4731,190.2031 Q1660.8423,189.6221 1660.2488,189.3523 Q1659.6553,189.0825 1659.0244,189.0825 Q1657.6797,189.0825 1656.9949,190.1492 Q1656.3101,191.2158 1656.3101,193.3159 Q1656.3101,195.4077 1656.9949,196.4744 Q1657.6797,197.541 1659.0244,197.541 Q1659.6553,197.541 1660.2488,197.2712 Q1660.8423,197.0015 1661.4731,196.4204 Z "/><text fill="#000000" font-family="sans-serif" font-size="12" lengthAdjust="spacingAndGlyphs" textLength="75" x="1673" y="197.5352">AppDelegate</text><line style="stroke: #A80036; stroke-width: 1.5;" x1="1645" x2="1750" y1="209" y2="209"/><line style="stroke: #A80036; stroke-width: 1.5;" x1="1645" x2="1750" y1="217" y2="217"/><!--class UIResponder--><rect fill="#FEFECE" filter="url(#f1ucn734gwkr3q)" height="48" id="UIResponder" style="stroke: #A80036; stroke-width: 1.5;" width="106" x="1644.5" y="8"/><ellipse cx="1659.5" cy="24" fill="#ADD1B2" rx="11" ry="11" style="stroke: #A80036; stroke-width: 1.0;"/><path d="M1661.9731,30.1431 Q1661.3921,30.4419 1660.7529,30.5913 Q1660.1138,30.7407 1659.4082,30.7407 Q1656.9014,30.7407 1655.5815,29.0889 Q1654.2617,27.437 1654.2617,24.3159 Q1654.2617,21.1865 1655.5815,19.5347 Q1656.9014,17.8828 1659.4082,17.8828 Q1660.1138,17.8828 1660.7612,18.0322 Q1661.4087,18.1816 1661.9731,18.4805 L1661.9731,21.2031 Q1661.3423,20.6221 1660.7488,20.3523 Q1660.1553,20.0825 1659.5244,20.0825 Q1658.1797,20.0825 1657.4949,21.1492 Q1656.8101,22.2158 1656.8101,24.3159 Q1656.8101,26.4077 1657.4949,27.4744 Q1658.1797,28.541 1659.5244,28.541 Q1660.1553,28.541 1660.7488,28.2712 Q1661.3423,28.0015 1661.9731,27.4204 Z "/><text fill="#000000" font-family="sans-serif" font-size="12" lengthAdjust="spacingAndGlyphs" textLength="74" x="1673.5" y="28.5352">UIResponder</text><line style="stroke: #A80036; stroke-width: 1.5;" x1="1645.5" x2="1749.5" y1="40" y2="40"/><line style="stroke: #A80036; stroke-width: 1.5;" x1="1645.5" x2="1749.5" y1="48" y2="48"/><!--class MJCollectionViewController--><rect fill="#FEFECE" filter="url(#f1ucn734gwkr3q)" height="48" id="MJCollectionViewController" style="stroke: #A80036; stroke-width: 1.5;" width="184" x="1424.5" y="177"/><ellipse cx="1439.5" cy="193" fill="#ADD1B2" rx="11" ry="11" style="stroke: #A80036; stroke-width: 1.0;"/><path d="M1441.9731,199.1431 Q1441.3921,199.4419 1440.7529,199.5913 Q1440.1138,199.7407 1439.4082,199.7407 Q1436.9014,199.7407 1435.5815,198.0889 Q1434.2617,196.437 1434.2617,193.3159 Q1434.2617,190.1865 1435.5815,188.5347 Q1436.9014,186.8828 1439.4082,186.8828 Q1440.1138,186.8828 1440.7612,187.0322 Q1441.4087,187.1816 1441.9731,187.4805 L1441.9731,190.2031 Q1441.3423,189.6221 1440.7488,189.3523 Q1440.1553,189.0825 1439.5244,189.0825 Q1438.1797,189.0825 1437.4949,190.1492 Q1436.8101,191.2158 1436.8101,193.3159 Q1436.8101,195.4077 1437.4949,196.4744 Q1438.1797,197.541 1439.5244,197.541 Q1440.1553,197.541 1440.7488,197.2712 Q1441.3423,197.0015 1441.9731,196.4204 Z "/><text fill="#000000" font-family="sans-serif" font-size="12" lengthAdjust="spacingAndGlyphs" textLength="152" x="1453.5" y="197.5352">MJCollectionViewController</text><line style="stroke: #A80036; stroke-width: 1.5;" x1="1425.5" x2="1607.5" y1="209" y2="209"/><line style="stroke: #A80036; stroke-width: 1.5;" x1="1425.5" x2="1607.5" y1="217" y2="217"/><!--class UICollectionViewController--><rect fill="#FEFECE" filter="url(#f1ucn734gwkr3q)" height="48" id="UICollectionViewController" style="stroke: #A80036; stroke-width: 1.5;" width="181" x="1426" y="8"/><ellipse cx="1441" cy="24" fill="#ADD1B2" rx="11" ry="11" style="stroke: #A80036; stroke-width: 1.0;"/><path d="M1443.4731,30.1431 Q1442.8921,30.4419 1442.2529,30.5913 Q1441.6138,30.7407 1440.9082,30.7407 Q1438.4014,30.7407 1437.0815,29.0889 Q1435.7617,27.437 1435.7617,24.3159 Q1435.7617,21.1865 1437.0815,19.5347 Q1438.4014,17.8828 1440.9082,17.8828 Q1441.6138,17.8828 1442.2612,18.0322 Q1442.9087,18.1816 1443.4731,18.4805 L1443.4731,21.2031 Q1442.8423,20.6221 1442.2488,20.3523 Q1441.6553,20.0825 1441.0244,20.0825 Q1439.6797,20.0825 1438.9949,21.1492 Q1438.3101,22.2158 1438.3101,24.3159 Q1438.3101,26.4077 1438.9949,27.4744 Q1439.6797,28.541 1441.0244,28.541 Q1441.6553,28.541 1442.2488,28.2712 Q1442.8423,28.0015 1443.4731,27.4204 Z "/><text fill="#000000" font-family="sans-serif" font-size="12" lengthAdjust="spacingAndGlyphs" textLength="149" x="1455" y="28.5352">UICollectionViewController</text><line style="stroke: #A80036; stroke-width: 1.5;" x1="1427" x2="1606" y1="40" y2="40"/><line style="stroke: #A80036; stroke-width: 1.5;" x1="1427" x2="1606" y1="48" y2="48"/><!--class MJTableViewController--><rect fill="#FEFECE" filter="url(#f1ucn734gwkr3q)" height="48" id="MJTableViewController" style="stroke: #A80036; stroke-width: 1.5;" width="162" x="1227.5" y="177"/><ellipse cx="1242.5" cy="193" fill="#ADD1B2" rx="11" ry="11" style="stroke: #A80036; stroke-width: 1.0;"/><path d="M1244.9731,199.1431 Q1244.3921,199.4419 1243.7529,199.5913 Q1243.1138,199.7407 1242.4082,199.7407 Q1239.9014,199.7407 1238.5815,198.0889 Q1237.2617,196.437 1237.2617,193.3159 Q1237.2617,190.1865 1238.5815,188.5347 Q1239.9014,186.8828 1242.4082,186.8828 Q1243.1138,186.8828 1243.7612,187.0322 Q1244.4087,187.1816 1244.9731,187.4805 L1244.9731,190.2031 Q1244.3423,189.6221 1243.7488,189.3523 Q1243.1553,189.0825 1242.5244,189.0825 Q1241.1797,189.0825 1240.4949,190.1492 Q1239.8101,191.2158 1239.8101,193.3159 Q1239.8101,195.4077 1240.4949,196.4744 Q1241.1797,197.541 1242.5244,197.541 Q1243.1553,197.541 1243.7488,197.2712 Q1244.3423,197.0015 1244.9731,196.4204 Z "/><text fill="#000000" font-family="sans-serif" font-size="12" lengthAdjust="spacingAndGlyphs" textLength="130" x="1256.5" y="197.5352">MJTableViewController</text><line style="stroke: #A80036; stroke-width: 1.5;" x1="1228.5" x2="1388.5" y1="209" y2="209"/><line style="stroke: #A80036; stroke-width: 1.5;" x1="1228.5" x2="1388.5" y1="217" y2="217"/><!--class MJTestViewController--><rect fill="#FEFECE" filter="url(#f1ucn734gwkr3q)" height="48" id="MJTestViewController" style="stroke: #A80036; stroke-width: 1.5;" width="154" x="410.5" y="177"/><ellipse cx="425.5" cy="193" fill="#ADD1B2" rx="11" ry="11" style="stroke: #A80036; stroke-width: 1.0;"/><path d="M427.9731,199.1431 Q427.3921,199.4419 426.7529,199.5913 Q426.1138,199.7407 425.4082,199.7407 Q422.9014,199.7407 421.5815,198.0889 Q420.2617,196.437 420.2617,193.3159 Q420.2617,190.1865 421.5815,188.5347 Q422.9014,186.8828 425.4082,186.8828 Q426.1138,186.8828 426.7612,187.0322 Q427.4087,187.1816 427.9731,187.4805 L427.9731,190.2031 Q427.3423,189.6221 426.7488,189.3523 Q426.1553,189.0825 425.5244,189.0825 Q424.1797,189.0825 423.4949,190.1492 Q422.8101,191.2158 422.8101,193.3159 Q422.8101,195.4077 423.4949,196.4744 Q424.1797,197.541 425.5244,197.541 Q426.1553,197.541 426.7488,197.2712 Q427.3423,197.0015 427.9731,196.4204 Z "/><text fill="#000000" font-family="sans-serif" font-size="12" lengthAdjust="spacingAndGlyphs" textLength="122" x="439.5" y="197.5352">MJTestViewController</text><line style="stroke: #A80036; stroke-width: 1.5;" x1="411.5" x2="563.5" y1="209" y2="209"/><line style="stroke: #A80036; stroke-width: 1.5;" x1="411.5" x2="563.5" y1="217" y2="217"/><!--class MJWebViewViewController--><rect fill="#FEFECE" filter="url(#f1ucn734gwkr3q)" height="48" id="MJWebViewViewController" style="stroke: #A80036; stroke-width: 1.5;" width="181" x="600" y="177"/><ellipse cx="615" cy="193" fill="#ADD1B2" rx="11" ry="11" style="stroke: #A80036; stroke-width: 1.0;"/><path d="M617.4731,199.1431 Q616.8921,199.4419 616.2529,199.5913 Q615.6138,199.7407 614.9082,199.7407 Q612.4014,199.7407 611.0815,198.0889 Q609.7617,196.437 609.7617,193.3159 Q609.7617,190.1865 611.0815,188.5347 Q612.4014,186.8828 614.9082,186.8828 Q615.6138,186.8828 616.2612,187.0322 Q616.9087,187.1816 617.4731,187.4805 L617.4731,190.2031 Q616.8423,189.6221 616.2488,189.3523 Q615.6553,189.0825 615.0244,189.0825 Q613.6797,189.0825 612.9949,190.1492 Q612.3101,191.2158 612.3101,193.3159 Q612.3101,195.4077 612.9949,196.4744 Q613.6797,197.541 615.0244,197.541 Q615.6553,197.541 616.2488,197.2712 Q616.8423,197.0015 617.4731,196.4204 Z "/><text fill="#000000" font-family="sans-serif" font-size="12" lengthAdjust="spacingAndGlyphs" textLength="149" x="629" y="197.5352">MJWebViewViewController</text><line style="stroke: #A80036; stroke-width: 1.5;" x1="601" x2="780" y1="209" y2="209"/><line style="stroke: #A80036; stroke-width: 1.5;" x1="601" x2="780" y1="217" y2="217"/><!--class MJRefreshExampleTests--><rect fill="#FEFECE" filter="url(#f1ucn734gwkr3q)" height="48" id="MJRefreshExampleTests" style="stroke: #A80036; stroke-width: 1.5;" width="171" x="6" y="177"/><ellipse cx="21" cy="193" fill="#ADD1B2" rx="11" ry="11" style="stroke: #A80036; stroke-width: 1.0;"/><path d="M23.4731,199.1431 Q22.8921,199.4419 22.2529,199.5913 Q21.6138,199.7407 20.9082,199.7407 Q18.4014,199.7407 17.0815,198.0889 Q15.7617,196.437 15.7617,193.3159 Q15.7617,190.1865 17.0815,188.5347 Q18.4014,186.8828 20.9082,186.8828 Q21.6138,186.8828 22.2612,187.0322 Q22.9087,187.1816 23.4731,187.4805 L23.4731,190.2031 Q22.8423,189.6221 22.2488,189.3523 Q21.6553,189.0825 21.0244,189.0825 Q19.6797,189.0825 18.9949,190.1492 Q18.3101,191.2158 18.3101,193.3159 Q18.3101,195.4077 18.9949,196.4744 Q19.6797,197.541 21.0244,197.541 Q21.6553,197.541 22.2488,197.2712 Q22.8423,197.0015 23.4731,196.4204 Z "/><text fill="#000000" font-family="sans-serif" font-size="12" lengthAdjust="spacingAndGlyphs" textLength="139" x="35" y="197.5352">MJRefreshExampleTests</text><line style="stroke: #A80036; stroke-width: 1.5;" x1="7" x2="176" y1="209" y2="209"/><line style="stroke: #A80036; stroke-width: 1.5;" x1="7" x2="176" y1="217" y2="217"/><!--class XCTestCase--><rect fill="#FEFECE" filter="url(#f1ucn734gwkr3q)" height="48" id="XCTestCase" style="stroke: #A80036; stroke-width: 1.5;" width="101" x="41" y="8"/><ellipse cx="56" cy="24" fill="#ADD1B2" rx="11" ry="11" style="stroke: #A80036; stroke-width: 1.0;"/><path d="M58.4731,30.1431 Q57.8921,30.4419 57.2529,30.5913 Q56.6138,30.7407 55.9082,30.7407 Q53.4014,30.7407 52.0815,29.0889 Q50.7617,27.437 50.7617,24.3159 Q50.7617,21.1865 52.0815,19.5347 Q53.4014,17.8828 55.9082,17.8828 Q56.6138,17.8828 57.2612,18.0322 Q57.9087,18.1816 58.4731,18.4805 L58.4731,21.2031 Q57.8423,20.6221 57.2488,20.3523 Q56.6553,20.0825 56.0244,20.0825 Q54.6797,20.0825 53.9949,21.1492 Q53.3101,22.2158 53.3101,24.3159 Q53.3101,26.4077 53.9949,27.4744 Q54.6797,28.541 56.0244,28.541 Q56.6553,28.541 57.2488,28.2712 Q57.8423,28.0015 58.4731,27.4204 Z "/><text fill="#000000" font-family="sans-serif" font-size="12" lengthAdjust="spacingAndGlyphs" textLength="69" x="70" y="28.5352">XCTestCase</text><line style="stroke: #A80036; stroke-width: 1.5;" x1="42" x2="141" y1="40" y2="40"/><line style="stroke: #A80036; stroke-width: 1.5;" x1="42" x2="141" y1="48" y2="48"/><!--link MJRefreshFooter to MJRefreshAutoFooter--><path d="M2456.3542,237.4295 C2499.4315,270.2226 2561.5215,317.4893 2598.7518,345.8313 " fill="none" id="MJRefreshFooter-MJRefreshAutoFooter" style="stroke: #A80036; stroke-width: 1.0;"/><polygon fill="none" points="2451.9807,242.8978,2440.3072,225.2136,2460.4608,231.7582,2451.9807,242.8978" style="stroke: #A80036; stroke-width: 1.0;"/><!--link MJRefreshFooter to MJRefreshBackFooter--><path d="M2408.5,245.5236 C2408.5,277.6318 2408.5,319.7466 2408.5,345.8313 " fill="none" id="MJRefreshFooter-MJRefreshBackFooter" style="stroke: #A80036; stroke-width: 1.0;"/><polygon fill="none" points="2401.5001,245.2136,2408.5,225.2136,2415.5001,245.2135,2401.5001,245.2136" style="stroke: #A80036; stroke-width: 1.0;"/><!--link MJRefreshComponent to MJRefreshFooter--><path d="M2340.237,74.2258 C2357.668,106.5978 2381.1029,150.1196 2395.4861,176.8313 " fill="none" id="MJRefreshComponent-MJRefreshFooter" style="stroke: #A80036; stroke-width: 1.0;"/><polygon fill="none" points="2333.8568,77.1417,2330.5381,56.2136,2346.1834,70.5043,2333.8568,77.1417" style="stroke: #A80036; stroke-width: 1.0;"/><!--link MJRefreshComponent to MJRefreshHeader--><path d="M2294.5132,74.2258 C2276.8906,106.5978 2253.1982,150.1196 2238.6569,176.8313 " fill="none" id="MJRefreshComponent-MJRefreshHeader" style="stroke: #A80036; stroke-width: 1.0;"/><polygon fill="none" points="2288.6081,70.4326,2304.3186,56.2136,2300.9042,77.1263,2288.6081,70.4326" style="stroke: #A80036; stroke-width: 1.0;"/><!--link MJRefreshAutoStateFooter to MJRefreshAutoGifFooter--><path d="M2619.8106,583.0612 C2612.0072,615.2264 2601.7221,657.6212 2595.3634,683.8313 " fill="none" id="MJRefreshAutoStateFooter-MJRefreshAutoGifFooter" style="stroke: #A80036; stroke-width: 1.0;"/><polygon fill="none" points="2613.1077,580.9994,2624.6257,563.2136,2626.713,584.3002,2613.1077,580.9994" style="stroke: #A80036; stroke-width: 1.0;"/><!--link MJRefreshAutoStateFooter to MJRefreshAutoNormalFooter--><path d="M2670.0398,577.1842 C2703.9066,609.8898 2751.6445,655.9909 2780.4733,683.8313 " fill="none" id="MJRefreshAutoStateFooter-MJRefreshAutoNormalFooter" style="stroke: #A80036; stroke-width: 1.0;"/><polygon fill="none" points="2665.0972,582.1423,2655.5732,563.2136,2674.8226,572.0716,2665.0972,582.1423" style="stroke: #A80036; stroke-width: 1.0;"/><!--link MJRefreshAutoFooter to MJRefreshAutoStateFooter--><path d="M2630.5,414.5236 C2630.5,446.6318 2630.5,488.7466 2630.5,514.8313 " fill="none" id="MJRefreshAutoFooter-MJRefreshAutoStateFooter" style="stroke: #A80036; stroke-width: 1.0;"/><polygon fill="none" points="2623.5001,414.2136,2630.5,394.2136,2637.5001,414.2135,2623.5001,414.2136" style="stroke: #A80036; stroke-width: 1.0;"/><!--link MJRefreshBackStateFooter to MJRefreshBackGifFooter--><path d="M2211.5083,577.1842 C2177.2544,609.8898 2128.971,655.9909 2099.8127,683.8313 " fill="none" id="MJRefreshBackStateFooter-MJRefreshBackGifFooter" style="stroke: #A80036; stroke-width: 1.0;"/><polygon fill="none" points="2206.8409,571.9622,2226.1402,563.2136,2216.509,582.0879,2206.8409,571.9622" style="stroke: #A80036; stroke-width: 1.0;"/><!--link MJRefreshBackStateFooter to MJRefreshBackNormalFooter--><path d="M2261.9287,583.0612 C2269.5418,615.2264 2279.576,657.6212 2285.7796,683.8313 " fill="none" id="MJRefreshBackStateFooter-MJRefreshBackNormalFooter" style="stroke: #A80036; stroke-width: 1.0;"/><polygon fill="none" points="2255.0258,584.2882,2257.231,563.2136,2268.6494,581.0636,2255.0258,584.2882" style="stroke: #A80036; stroke-width: 1.0;"/><!--link MJRefreshBackFooter to MJRefreshBackStateFooter--><path d="M2372.2029,409.0714 C2341.8735,441.719 2299.5831,487.2417 2273.9525,514.8313 " fill="none" id="MJRefreshBackFooter-MJRefreshBackStateFooter" style="stroke: #A80036; stroke-width: 1.0;"/><polygon fill="none" points="2367.2649,404.1021,2386.0057,394.2136,2377.5218,413.6307,2367.2649,404.1021" style="stroke: #A80036; stroke-width: 1.0;"/><!--link MJRefreshStateHeader to MJRefreshGifHeader--><path d="M1995.016,407.3035 C1956.8351,440.0577 1902.4183,486.7401 1869.6729,514.8313 " fill="none" id="MJRefreshStateHeader-MJRefreshGifHeader" style="stroke: #A80036; stroke-width: 1.0;"/><polygon fill="none" points="1990.5372,401.9229,2010.2747,394.2136,1999.6528,412.5487,1990.5372,401.9229" style="stroke: #A80036; stroke-width: 1.0;"/><!--link MJRefreshStateHeader to MJRefreshNormalHeader--><path d="M2038.5,414.5236 C2038.5,446.6318 2038.5,488.7466 2038.5,514.8313 " fill="none" id="MJRefreshStateHeader-MJRefreshNormalHeader" style="stroke: #A80036; stroke-width: 1.0;"/><polygon fill="none" points="2031.5001,414.2136,2038.5,394.2136,2045.5001,414.2135,2031.5001,414.2136" style="stroke: #A80036; stroke-width: 1.0;"/><!--link MJRefreshHeader to MJRefreshStateHeader--><path d="M2183.737,238.743 C2147.5197,271.4741 2096.1873,317.8655 2065.2428,345.8313 " fill="none" id="MJRefreshHeader-MJRefreshStateHeader" style="stroke: #A80036; stroke-width: 1.0;"/><polygon fill="none" points="2179.1757,233.4302,2198.7075,225.2136,2188.5627,243.817,2179.1757,233.4302" style="stroke: #A80036; stroke-width: 1.0;"/><!--link MJRefreshAutoGifFooter to MJChiBaoZiFooter--><path d="M2589.5,752.5236 C2589.5,784.6318 2589.5,826.7466 2589.5,852.8313 " fill="none" id="MJRefreshAutoGifFooter-MJChiBaoZiFooter" style="stroke: #A80036; stroke-width: 1.0;"/><polygon fill="none" points="2582.5001,752.2136,2589.5,732.2136,2596.5001,752.2135,2582.5001,752.2136" style="stroke: #A80036; stroke-width: 1.0;"/><!--link MJRefreshBackGifFooter to MJChiBaoZiFooter2--><path d="M2074.5,752.5236 C2074.5,784.6318 2074.5,826.7466 2074.5,852.8313 " fill="none" id="MJRefreshBackGifFooter-MJChiBaoZiFooter2" style="stroke: #A80036; stroke-width: 1.0;"/><polygon fill="none" points="2067.5001,752.2136,2074.5,732.2136,2081.5001,752.2135,2067.5001,752.2136" style="stroke: #A80036; stroke-width: 1.0;"/><!--link MJRefreshGifHeader to MJChiBaoZiHeader--><path d="M1841.5,583.5236 C1841.5,615.6318 1841.5,657.7466 1841.5,683.8313 " fill="none" id="MJRefreshGifHeader-MJChiBaoZiHeader" style="stroke: #A80036; stroke-width: 1.0;"/><polygon fill="none" points="1834.5001,583.2136,1841.5,563.2136,1848.5001,583.2135,1834.5001,583.2136" style="stroke: #A80036; stroke-width: 1.0;"/><!--link MJRefreshAutoFooter to MJDIYAutoFooter--><path d="M2672.7097,407.743 C2709.3143,440.4741 2761.1958,486.8655 2792.4711,514.8313 " fill="none" id="MJRefreshAutoFooter-MJDIYAutoFooter" style="stroke: #A80036; stroke-width: 1.0;"/><polygon fill="none" points="2667.8221,412.763,2657.5791,394.2136,2677.154,402.3268,2667.8221,412.763" style="stroke: #A80036; stroke-width: 1.0;"/><!--link MJRefreshBackFooter to MJDIYBackFooter--><path d="M2417.1037,414.0612 C2423.3845,446.2264 2431.6627,488.6212 2436.7807,514.8313 " fill="none" id="MJRefreshBackFooter-MJDIYBackFooter" style="stroke: #A80036; stroke-width: 1.0;"/><polygon fill="none" points="2410.1909,415.1844,2413.2281,394.2136,2423.9314,412.5013,2410.1909,415.1844" style="stroke: #A80036; stroke-width: 1.0;"/><!--link MJRefreshHeader to MJDIYHeader--><path d="M2225.5,245.5236 C2225.5,277.6318 2225.5,319.7466 2225.5,345.8313 " fill="none" id="MJRefreshHeader-MJDIYHeader" style="stroke: #A80036; stroke-width: 1.0;"/><polygon fill="none" points="2218.5001,245.2136,2225.5,225.2136,2232.5001,245.2135,2218.5001,245.2136" style="stroke: #A80036; stroke-width: 1.0;"/><!--link UITableViewController to MJExampleViewController--><path d="M1066.2965,69.0844 C1026.3584,101.8492 969.2778,148.6774 934.96,176.8313 " fill="none" id="UITableViewController-MJExampleViewController" style="stroke: #A80036; stroke-width: 1.0;"/><polygon fill="none" points="1062.083,63.4869,1081.9852,56.2136,1070.9626,74.3106,1062.083,63.4869" style="stroke: #A80036; stroke-width: 1.0;"/><!--link UIWindow to MJExampleWindow--><path d="M2053.5,76.5236 C2053.5,108.6318 2053.5,150.7466 2053.5,176.8313 " fill="none" id="UIWindow-MJExampleWindow" style="stroke: #A80036; stroke-width: 1.0;"/><polygon fill="none" points="2046.5001,76.2136,2053.5,56.2136,2060.5001,76.2135,2046.5001,76.2136" style="stroke: #A80036; stroke-width: 1.0;"/><!--link UINavigationController to MJNavigationController--><path d="M1867.5,76.5236 C1867.5,108.6318 1867.5,150.7466 1867.5,176.8313 " fill="none" id="UINavigationController-MJNavigationController" style="stroke: #A80036; stroke-width: 1.0;"/><polygon fill="none" points="1860.5001,76.2136,1867.5,56.2136,1874.5001,76.2135,1860.5001,76.2136" style="stroke: #A80036; stroke-width: 1.0;"/><!--link UITableViewController to MJSingleViewController--><path d="M1111.5,76.5236 C1111.5,108.6318 1111.5,150.7466 1111.5,176.8313 " fill="none" id="UITableViewController-MJSingleViewController" style="stroke: #A80036; stroke-width: 1.0;"/><polygon fill="none" points="1104.5001,76.2136,1111.5,56.2136,1118.5001,76.2135,1104.5001,76.2136" style="stroke: #A80036; stroke-width: 1.0;"/><!--link UIViewController to MJTempViewController--><path d="M444.4262,69.5231 C406.8396,102.266 353.4187,148.8028 321.2439,176.8313 " fill="none" id="UIViewController-MJTempViewController" style="stroke: #A80036; stroke-width: 1.0;"/><polygon fill="none" points="440.0261,64.0725,459.7045,56.2136,449.2221,74.6288,440.0261,64.0725" style="stroke: #A80036; stroke-width: 1.0;"/><!--link UIResponder to AppDelegate--><path d="M1697.5,76.5236 C1697.5,108.6318 1697.5,150.7466 1697.5,176.8313 " fill="none" id="UIResponder-AppDelegate" style="stroke: #A80036; stroke-width: 1.0;"/><polygon fill="none" points="1690.5001,76.2136,1697.5,56.2136,1704.5001,76.2135,1690.5001,76.2136" style="stroke: #A80036; stroke-width: 1.0;"/><!--link UICollectionViewController to MJCollectionViewController--><path d="M1516.5,76.5236 C1516.5,108.6318 1516.5,150.7466 1516.5,176.8313 " fill="none" id="UICollectionViewController-MJCollectionViewController" style="stroke: #A80036; stroke-width: 1.0;"/><polygon fill="none" points="1509.5001,76.2136,1516.5,56.2136,1523.5001,76.2135,1509.5001,76.2136" style="stroke: #A80036; stroke-width: 1.0;"/><!--link UITableViewController to MJTableViewController--><path d="M1154.984,69.3035 C1193.1649,102.0577 1247.5817,148.7401 1280.3271,176.8313 " fill="none" id="UITableViewController-MJTableViewController" style="stroke: #A80036; stroke-width: 1.0;"/><polygon fill="none" points="1150.3472,74.5487,1139.7253,56.2136,1159.4628,63.9229,1150.3472,74.5487" style="stroke: #A80036; stroke-width: 1.0;"/><!--link UIViewController to MJTestViewController--><path d="M487.5,76.5236 C487.5,108.6318 487.5,150.7466 487.5,176.8313 " fill="none" id="UIViewController-MJTestViewController" style="stroke: #A80036; stroke-width: 1.0;"/><polygon fill="none" points="480.5001,76.2136,487.5,56.2136,494.5001,76.2135,480.5001,76.2136" style="stroke: #A80036; stroke-width: 1.0;"/><!--link UIViewController to MJWebViewViewController--><path d="M532.0452,69.0844 C571.4017,101.8492 627.651,148.6774 661.469,176.8313 " fill="none" id="UIViewController-MJWebViewViewController" style="stroke: #A80036; stroke-width: 1.0;"/><polygon fill="none" points="527.4769,74.3896,516.585,56.2136,536.4343,63.6301,527.4769,74.3896" style="stroke: #A80036; stroke-width: 1.0;"/><!--link XCTestCase to MJRefreshExampleTests--><path d="M91.5,76.5236 C91.5,108.6318 91.5,150.7466 91.5,176.8313 " fill="none" id="XCTestCase-MJRefreshExampleTests" style="stroke: #A80036; stroke-width: 1.0;"/><polygon fill="none" points="84.5001,76.2136,91.5,56.2136,98.5001,76.2135,84.5001,76.2136" style="stroke: #A80036; stroke-width: 1.0;"/><!--
@startuml

MJRefreshAutoFooter -up- -|> MJRefreshFooter
MJRefreshBackFooter -up- -|> MJRefreshFooter
MJRefreshFooter -up- -|> MJRefreshComponent
MJRefreshHeader -up- -|> MJRefreshComponent
MJRefreshAutoGifFooter -up- -|> MJRefreshAutoStateFooter
MJRefreshAutoNormalFooter -up- -|> MJRefreshAutoStateFooter
MJRefreshAutoStateFooter -up- -|> MJRefreshAutoFooter
MJRefreshBackGifFooter -up- -|> MJRefreshBackStateFooter
MJRefreshBackNormalFooter -up- -|> MJRefreshBackStateFooter
MJRefreshBackStateFooter -up- -|> MJRefreshBackFooter
MJRefreshGifHeader -up- -|> MJRefreshStateHeader
MJRefreshNormalHeader -up- -|> MJRefreshStateHeader
MJRefreshStateHeader -up- -|> MJRefreshHeader
MJChiBaoZiFooter -up- -|> MJRefreshAutoGifFooter
MJChiBaoZiFooter2 -up- -|> MJRefreshBackGifFooter
MJChiBaoZiHeader -up- -|> MJRefreshGifHeader
MJDIYAutoFooter -up- -|> MJRefreshAutoFooter
MJDIYBackFooter -up- -|> MJRefreshBackFooter
MJDIYHeader -up- -|> MJRefreshHeader
MJExampleViewController -up- -|> UITableViewController
MJExampleWindow -up- -|> UIWindow
MJNavigationController -up- -|> UINavigationController
MJSingleViewController -up- -|> UITableViewController
MJTempViewController -up- -|> UIViewController
AppDelegate -up- -|> UIResponder
MJCollectionViewController -up- -|> UICollectionViewController
MJTableViewController -up- -|> UITableViewController
MJTestViewController -up- -|> UIViewController
MJWebViewViewController -up- -|> UIViewController
MJRefreshExampleTests -up- -|> XCTestCase


class MJRefreshAutoFooter
class MJRefreshFooter
class MJRefreshBackFooter
class MJRefreshComponent
class MJRefreshHeader
class MJRefreshAutoGifFooter
class MJRefreshAutoStateFooter
class MJRefreshAutoNormalFooter
class MJRefreshBackGifFooter
class MJRefreshBackStateFooter
class MJRefreshBackNormalFooter
class MJRefreshGifHeader
class MJRefreshStateHeader
class MJRefreshNormalHeader
class MJChiBaoZiFooter
class MJChiBaoZiFooter2
class MJChiBaoZiHeader
class MJDIYAutoFooter
class MJDIYBackFooter
class MJDIYHeader
class MJExampleViewController
class UITableViewController
class MJExampleWindow
class UIWindow
class MJNavigationController
class UINavigationController
class MJSingleViewController
class MJTempViewController
class UIViewController
class AppDelegate
class UIResponder
class MJCollectionViewController
class UICollectionViewController
class MJTableViewController
class MJTestViewController
class MJWebViewViewController
class MJRefreshExampleTests
class XCTestCase



@enduml

PlantUML version 1.2019.06(Sat May 25 01:10:25 CST 2019)
(GPL source distribution)
Java Runtime: Java(TM) SE Runtime Environment
JVM: Java HotSpot(TM) 64-Bit Server VM
Java Version: 1.8.0_191-b12
Operating System: Mac OS X
OS Version: 10.14.3
Default Encoding: UTF-8
Language: zh
Country: CN
--></g></svg>